<?xml version='1.0' encoding='utf-8'?>
<svg xmlns="http://www.w3.org/2000/svg" enable-background="new 0 0 576 576" version="1.1" viewBox="0 0 576 576"> <style type="text/css"> .st0{fill:#DCA35A;} .st1{fill:#206935;} .st2{fill:#CE955A;} .st3{fill:#FFFFFF;} .st4{fill:#F3E5D0;} .st5{fill:#594A42;} .st6{fill:#DDACC0;} </style> <path class="st0" d="m126.72 382.1c-2.37-19.54-4.59-40.22 3.47-58.18-10.64 8.69-20.04 18.91-27.8 30.24-0.92 1.35-1.86 2.85-1.75 4.48s1.86 3.19 3.34 2.49c-3.6 4.39-4.99 10.51-3.64 16.02 0 0 1.15-1.93 0.84 1.38-0.32 3.32-2.85 15.14-2.75 18.47 0.59 19.99 8.54 39.81 22.41 54.27 2.04 2.12 4.22 5.6 2.05 7.58 32.62 14.26 69.64 12.92 105.2 11.33-1.44 0.98-2.88 1.95-4.32 2.93 0 0 0.71 1.48 2.64 1.58 2.01 0.1 5.8-1.99 7.79-2.05 3.34-0.1 0.17 3.43 11.24-0.51 1.36-0.48 2.77-0.95 4.22-0.92 1.91 0.04 3.66 1.05 5.18 2.21 3.18 2.44 4.64 7.17 6.45 10.54 1.54 2.89 4.99 4.24 5.93 7.54 3.58 12.55 2.78 27.34 10.78 37.64 3.66 4.72 9.87 8.42 15.47 6.35 3.72 1.38 7.44 2.76 11.16 4.15 1.6-1.81 4.46-2.37 6.63-1.29 6.39-7.91 13.16-17.13 11.68-27.2-0.82-5.58-4.1-10.43-6.85-15.35-7.69-13.77-11.66-29.6-11.39-45.37 8.42-0.31 16.51 6.48 17.67 14.83 6.44-12.63 23.52-17.63 28.56-30.89-1.25 3.21-0.98 8.38 0.25 11.66 0.99 2.64 1.42-2.64 4.03 5.84 1.49 4.87 2.87 10.19 5.44 8.44 0.76-0.51 8.83 31.24 9.39 44.7 0.1 2.39 0.16 4.9 1.38 6.96 1.12 1.89 3.05 3.13 4.95 4.24 13.2 7.7 28.11 12.43 43.33 13.75 2.63-4.81 6.91-8.54 9.61-13.31s3.32-11.58-0.88-15.1c-2.38-1.99-5.66-2.4-8.52-3.6-9.82-4.13-12.85-16.39-13.98-26.98-1.34-12.6-1.13-37.58 0.41-58.49 0.8-10.83-0.94-22.78-0.83-25.37 0.05-1.17 0.27-6.2 0.27-6.2-2.53 1.57 0.57-13.31 0.98-22.8 1.28 5.2-4.77 8.97-9.77 10.89-6.14 2.35-22.11 6.93-31.58 10.56-5.47 2.1-6.68 4.11-7.96 4.6-10.7 4.11-21.61 8.26-33.05 9.01-12.03 0.8-23.97-2.21-35.53-5.65-30.48-9.08-61.16-22.19-81.97-46.25 6.93 15.98 9.01 34.01 5.9 51.15-2.15 11.89-4.32 22.81-7.07 17s-7.26-10.56-11.71-15.21c-8.11-8.49-16.23-16.97-24.34-25.46 1.22 6.46 1.83 13.04 1.81 19.62 0 1.61-0.07 3.32-0.94 4.69-1.03 1.62-2.93 2.41-4.7 3.15-5.65 2.36-11.08 5.23-16.22 8.56-3.96 2.57-8.81 8.23-13.78 8.41-5.97 0.21-6.04-5.61-6.59-10.11-0.84-6.98-1.69-13.98-2.54-20.97z"/> <path class="st1" d="m213.89 212.03c-3.22 2.89-5.58 6.71-6.73 10.88-0.61 2.23-0.9 4.59-2.02 6.62-1.53 2.76-4.42 4.55-5.97 7.3-1.53 2.71-1.59 6.06-3.07 8.81-1.69 3.12-4.97 4.99-7.45 7.53-2.88 2.93-4.73 6.87-5.14 10.96-0.09 0.91-0.12 1.84-0.46 2.69-0.52 1.31-1.7 2.23-2.74 3.19-3.92 3.6-6.43 8.44-9.28 12.95-4.75 7.52-10.79 14.45-18.53 18.84-3.43 1.94-7.15 3.36-10.39 5.6-8.7 6.02-12 17.89-14.47 27.64-2.95 11.64-3.8 23.82-2.45 35.76 0.62 5.44 1.68 10.83 2.26 16.28 1.14 10.79 0.42 22.05 4.52 32.1 6.33-7 16.45-9.55 22.92-16.41 1.53-1.62 2.87-3.5 4.77-4.67 2.49-1.53 5.58-1.63 8.35-2.56 0.51-0.17 1.03-0.38 1.41-0.76 0.43-0.44 0.64-1.05 0.8-1.64 2.12-7.96-2-16.34-1.14-24.53 3.12 2.63 6.52 7.85 9.42 10.82 2.1 2.16 3.75 2.01 5.73 4.22 7.93 8.85 15.49 18.03 22.65 27.51 2.16-3.53 3.08-7.65 3.96-11.7 1.49-6.81 3-13.7 2.86-20.68-0.09-4.52-0.87-9-1.64-13.46-0.63-3.59-1.25-7.19-2.22-10.7-1.37-4.97-3.46-10.02-2.57-15.1 0.29 0.2 0.76 0.05 0.87-0.28-0.19-0.21-0.24-0.53-0.14-0.79 8.76 11.9 21.06 21.46 33.22 29.86 5.49 3.79 11.05 7.62 17.3 9.96 5.11 1.91 10.53 2.78 15.86 3.96 12.87 2.85 25.28 7.58 38.23 10.04s27.28 0.35 38.91-5.85c7.78-4.15 15.95-10.61 14.32-8.11 9.73-1 19.31-3.47 28.31-7.3 5.9-2.51 11.96-6.04 14.42-11.96 2.23-5.35 1.02-11.47 1.87-17.21 0.52-3.53 1.83-6.89 2.62-10.37 0.57-2.54 0.87-5.14 0.87-7.74 2.78-3.59-0.34-9.2-0.53-13.75-0.1-2.48 0.55-4.92 1.2-7.32 1.64-6.01 3.33-12.06 3.68-18.28s-0.75-12.71-4.27-17.84c-2.23-3.25-5.32-5.83-7.55-9.08-1.64-2.39-2.77-5.13-3.32-7.98-6.42 4.68-11.1 11.68-12.96 19.4-0.89 3.69-1.29 7.78-3.9 10.53-2.95 3.1-7.7 3.44-11.56 5.28-6 2.86-9.74 9.33-15.87 11.91-2.72 1.14-5.7 1.43-8.64 1.71-4.2 0.39-8.45 0.79-12.63 0.22-4.32-0.58-8.51-2.19-12.87-2.22-3.59-0.03-7.09 1-10.56 1.91-9.24 2.42-18.4 2.03-27.84 0.59s-19.21-4.32-24.09-12.53c-0.24-0.41-0.48-0.86-0.46-1.33 0.04-0.71 0.64-1.24 0.95-1.88 1.21-2.44-2.07-4.77-4.78-4.96-2.72-0.2-5.94 0.19-7.67-1.91 0.66-1.63 1.07-3.36 1.21-5.11-1.18 0.05-2.37 0.1-3.55 0.14 1.01-2.09 2.02-4.19 3.03-6.28-1.29 1.27-3.62 1.12-5.12 0.09s-2.37-2.75-2.86-4.5-0.67-3.57-1.13-5.32c-0.85-3.23-2.64-6.13-4.39-8.97-1.38-2.24-2.78-4.49-4.62-6.37-1.64-1.68-3.6-3.03-5.26-4.7-2.59-2.61-4.34-5.92-6.03-9.19-0.67-1.31-1.35-2.64-1.62-4.09-0.24-1.28-0.14-2.62-0.47-3.88-0.68-2.61-3.37-4.41-5.56-5.99z"/> <path class="st2" d="m285.2 112.76c-0.17-0.38-1.42 0.5-1.59 0.13-0.8-1.75 0.49-10.44-0.38-12.15-0.26-0.51-2.22 3.77-2.49 3.26-0.75-1.43-3.14-9.44-3.93-10.84-0.44-0.76-1.47 4.81-1.92 4.05-0.36-0.6-2.69-7.87-3.06-8.47-15.46-25.11-34.03-37.47-61.28-48.77-2.92-1.21-6.32-2.31-9.14-0.87-1.79 0.91-2.96 2.69-3.96 4.43-5.1 8.83-8.07 18.69-11 28.45-2.71 9.03-5.11 19.82 0.93 27.06-1.82-0.57-4.03-0.55-5.85-1.12 1.37 3.52 3.72 6.23 6.16 9.12-1.46-0.2-3.63 0.16-5.09-0.04 1 2.43 0.6 2.15 3.11 5.39 0.93 1.19 3.59 0.71 4.44 3.28-0.91 0.6-3.84 2.23-4.75 2.84 4.6 12.03 10.79 23.45 18.36 33.88 0.98 1.35 2.03 2.83 1.96 4.5-0.05 1.14-0.63 2.18-0.81 3.3-0.72 4.49 5.67 6.67 10.02 8.03-0.68 1.74-2.43 4.11-3.11 5.85l5.61 1.05c-1.29 0.78-0.54 2.87 0.68 3.76s2.85 1.42 3.49 2.79c0.39 0.83 0.31 1.83 0.72 2.65 1.18 2.38 4.76 1.44 7.09 0.16-0.99 1.52-6.08 0.15-9.55 0.52-2.89 0.31-4.39 2.32-3.95 3.77 0.52 1.72 0.61 5.18 0.73 6.97 0.25 3.77 2.98 6.93-0.73 7.65s-0.79 3.08-4.41 2c2.45 4.71 5.81 8.93 9.84 12.38-1.81-0.18-3.63-0.36-5.44-0.54 0.21 2.48 1.5 4.86 3.48 6.37-1.56 3.85 0.75 8.79 4.71 10.04-1.2-0.55-2.59 0.8-2.54 2.12s1.34 3.39 2.37 4.21c2.36 1.89 5 2.06 8.02 2.26 0.41 2.2-0.92 4.59-3.01 5.4 1.77 3.91 6.35 6.32 10.57 5.56-2.08 1.16-4.87 2.15-7.24 2.33 1.1 2.39 3.86 3.91 6.44 4.43-1.64 0.09-3.29 0.41-0.77 2.26 4.13 3.02 8.87 5.73 13.85 4.58-1.78 1.61-2.99 3.24-3.86 5.06 1.13-0.07 2.08-0.03 3.21-0.1-0.13 2.71 0.44 4.55 0.31 7.26 0.88-1.31 1.56-2.16 3.07-2.61-1.11 0.59-1.93 1.71-2.13 2.96 4.01-1.1 8.63 0.6 10.97 4.04-0.71 1.02-1.41 2.03-2.12 3.05 2.7 1.07 3.68 4.35 5.74 6.39 4.54 4.51 10.59 2.95 16.04 1.15-1.45 2.18-8.54 4.2-11.09 4.77 3.89-0.74 12.55-1.91 16.43-2.65-1.42 1.53-4.65 3.74-6.06 5.27 13.62 4.99 30.12-5.17 44.62-4.62 7.59 0.28 15.12 3.83 22.58 2.4 14.14-2.71 11.74-4.17 17.04-7.49 3.53-2.21 4.81-4.57 10.59-6.62 3.89-1.38 8.95-4.65 10.68-8.4 3.21-6.96 3.44-16.42 9.62-22.27 3.81-3.6 10.16-5.79 10.46-11.03-1.13-0.42-2.26-0.84-3.39-1.25 4.72-4.21 8.22-9.79 9.96-15.87-1.86-0.13-3.73-0.25-5.59-0.38 3.62-2.18 6.4-5.73 7.62-9.78-2.38-1.52-4.77-3.04-7.15-4.56 3.23-2.63 4.91-7.03 4.26-11.14 1.49 0.04 2.95 0.78 3.87 1.96 0.25-1.21 0.51-2.41 0.76-3.62 1.22 0.15 2.5-0.13 3.55-0.78-0.49-1.15-0.97-2.3-1.46-3.46 1.83 0.3 3.78-1.04 4.15-2.86l-2.7-4.26c6.61-1.91 11.38-7.83 12.23-14.66 0.68-5.45 20.41-36.87 31.58-54.28-1.43 0.62-3.17 0.49-4.49-0.35 4.08-3.43 7.38-7.77 9.6-12.62-1.14 2.55-4.72 3.63-7.07 2.13 8.6-10.18 13.86-23.14 14.78-36.43 0.49-7.1-2.65-14.56-9.03-17.71-4.24-2.09-9.29-1.4-13.91-0.4-25.19 5.44-48.65 18.59-66.44 37.24-1.28 1.35-3.67 2.67-4.68 1.11l-3.84 6.09c-0.79-1.34-1.58-2.67-2.36-4.01-1.27 1.81-2.53 3.63-3.8 5.44l-2.52-4.32c-2.37 3.38-3.47 7.62-3.04 11.73-1.02-1.22-2.29-2.22-3.71-2.93 0.01 3.51-0.28 7.02-0.87 10.49-26.65-1.91-52.26-1.52-78.99-1.11z"/> <path class="st3" d="m280.84 155.19c-2.59 1.52-4.59 4.02-5.49 6.89-0.26 0.84-0.44 1.73-0.4 2.61 0.05 1.17 0.47 2.29 0.98 3.34 1.13 2.31 2.78 4.42 4.97 5.78s4.92 1.93 7.4 1.22c2.41-0.69 4.33-2.47 6.09-4.26 1.46-1.49 2.96-3.23 2.97-5.31 0.01-1.65-0.92-3.14-1.86-4.49-1.02-1.46-2.11-2.88-3.25-4.25-0.76-0.91-1.63-2.34-2.73-2.86-2.49-1.2-6.5 0.05-8.68 1.33z"/> <path class="st3" d="m359.08 156.47c-3.45 1.3-7.08 2.75-9.26 5.72-0.62 0.84-1.11 1.81-1.22 2.85-0.12 1.19 0.25 2.37 0.68 3.48 0.87 2.25 2.1 4.54 4.21 5.7 0.88 0.48 1.85 0.73 2.83 0.95 2.18 0.49 4.5 0.8 6.63 0.11 2.25-0.73 4.05-2.52 5.23-4.57 1.02-1.78 1.65-3.81 1.59-5.86s-0.85-4.11-2.32-5.53c-1.87-1.81-4.56-2.43-6.95-3.47-0.53 0.27-1.13 0.45-1.66 0.71 0.06-0.12 0.19 0.03 0.24-0.09z"/> <path class="st4" d="m338.93 111.61c-7.67-0.48-15.34-0.97-23.01-1.45-1.51-0.1-3.45 0.09-3.9 1.53-0.2 0.64-0.01 1.32 0.14 1.98 0.56 2.47 0.5 5.07-0.17 7.51-0.64 2.34-1.84 4.54-2.07 6.95-0.5 5.12 3.3 9.5 5.68 14.06 2.74 5.24 3.71 11.38 2.73 17.21-0.64 0.67-1.68-0.29-2.6-0.35-1.48-0.1-1.96 1.95-1.89 3.43-0.78-0.25-1.57-0.44-2.38-0.56 0.01 1.11-0.28 2.22-0.81 3.19-0.78-0.36-1.63-0.58-2.48-0.65-1.22 4.21-2.63 8.59-5.79 11.62-2.69 2.58-6.47 3.99-8.63 7.03-2.03 2.86-2.56 7.04-5.67 8.64-0.52 0.27-1.3 0.37-1.59-0.14-0.48 1.18-1.23 2.43-2.18 3.28-0.4-0.4-0.59-0.99-0.52-1.55-2.97 0.91-5.22 3.81-5.37 6.91-0.05 1.06 0.11 2.18-0.37 3.13-0.39 0.78-1.17 1.31-1.56 2.09-0.64 1.27-0.12 2.79 0.43 4.1 1.34 3.2 2.82 6.34 4.43 9.41 0.98 1.86 2.01 3.71 3.37 5.32 5.22 6.18 14.16 7.69 22.24 7.25s16.14-2.41 24.17-1.48c4.53 0.52 9 1.96 13.55 1.59 6.76-0.55 12.64-5.07 16.8-10.42 0.76-0.97 1.49-2.01 1.72-3.22 0.23-1.16-0.03-2.36-0.28-3.51-0.6-2.73-1.31-5.65-3.41-7.49 1.22-5.15-2.31-10.05-4.52-14.87-0.92-2.02-1.63-4.14-2.74-6.07-1.1-1.92-2.57-3.6-3.91-5.37-4.83-6.34-8.1-13.86-9.44-21.71-0.13-0.76-0.24-1.52-0.35-2.28-0.09-0.58-0.17-1.17-0.26-1.75-0.36-2.43-1.05-4.68-0.87-7.12 0.15-2.1 0.3-4.21 0.46-6.31 0.05-0.72 0.11-1.45 0.36-2.13 0.69-1.87 2.79-3.09 3.06-5.07 0.04-0.31 0.06-0.67 0.3-0.86 0.41-0.33 1.33-0.11 1.31-0.64-0.3-0.58-0.38-1.27-0.22-1.9 0.73 0.12 1.51-0.09 2.08-0.55 0.3-2.36-1.02-4.57-2.11-6.69-1.96-3.79-3.08-7.9-3.73-12.09z"/> <path class="st5" d="m314.04 191.71c-2.13 1.38-3.47 3.85-3.63 6.38s0.83 5.09 2.53 6.97c0.45 0.5 0.96 0.98 1.13 1.63 0.18 0.7-0.09 1.43-0.16 2.15-0.16 1.55 0.62 3.08 1.72 4.19 1.1 1.1 2.5 1.86 3.87 2.59 2.58 1.38 5.17 2.76 7.75 4.15 0.49 0.26 0.98 0.52 1.52 0.65 0.73 0.18 1.49 0.1 2.23-0.05 4.42-0.86 8.07-3.88 11.51-6.79 0.63-0.54 1.29-1.11 1.58-1.89 0.26-0.72 0.18-1.54 0.47-2.24 0.55-1.3 2.13-1.76 3.17-2.7 1.36-1.23 1.73-3.27 1.39-5.07s-1.27-3.43-2.19-5.01c-1.18-2.02-2.48-4.14-4.55-5.21-1.18-0.61-2.52-0.83-3.84-1.04-3.81-0.61-9.11-2.52-12.8-1.24-3.79 1.31-8.18 0.25-11.7 2.53z"/> <path class="st4" d="m369.01 219.61c-0.79 1.83 0.48 4.04 2.27 4.91s3.9 0.74 5.87 0.44c8.59-1.29 16.54-5.19 24.33-9.04-0.31 0.8-0.61 1.59-0.92 2.39 4.25 0.08 8.52-0.96 12.26-2.99-3.76 6.03-4.28 4.48-7.7 9.12-0.84 1.14-9.93 9.1-11.31 9.45 1.49 1.85-0.05 4.54-1.62 6.32-5.35 6.06-11.46 11.44-18.15 15.96 0.73 0.09 1.47 0.18 2.2 0.27-0.57 0.94-1.15 1.88-1.72 2.81 1.7-0.68 3.39 1.53 3 3.31s-1.99 3.02-3.47 4.09c-3.93 2.85-7.86 5.7-11.78 8.55 2.25 4.62 6.92 7.97 12.01 8.63-3.18 0.82-2.09 1.86-4.43 4.17-1 0.99-2.18 2.81-3.3 3.65-2.4 1.79-3 3.22-5.79 4.3-6.41 2.47-18.82 3.87-25.46 2.1-2.57-0.68-5.07-1.68-7.7-1.99-3.4-0.4-6.81 0.36-10.15 1.07-11.93 2.51-24.18 4.31-36.29 2.93 1.87-1.07 3.43-2.68 4.44-4.58-3.73 1.78-8.02 2.35-12.08 1.59 2.91-0.14 5.72-1.67 7.43-4.03-7.7 3.21-17.64-0.95-20.74-8.7 2.3-1.19 2.83-4.79 0.96-6.59-2.32-2.24-6.14-1.08-9.1 0.22 1.42-4.19 5.01-7.57 9.28-8.73-0.91-0.59-1.82-1.18-2.72-1.77-0.86-1.55-1.71-3.09-2.57-4.64 2.86-0.64 5.73-1.27 8.59-1.91-4.73-4.87-11-8.22-17.68-9.44 2.12-0.99 4.23-1.98 6.35-2.96 1.81-6.45-3.75-6.07-7.96-7.35-4.21-1.29-8.64-3.46-11.86-6.46 0.37-0.59 0.74-1.19 1.11-1.78-0.9-0.55-1.8-1.09-2.69-1.64-0.25-2.45-2.89-4.37-5.3-3.86 4.61-1.7 9.87-1.57 14.38 0.38-1.43-1.3-2.87-2.6-4.3-3.89 1.92 0.2 3.84 0.39 5.76 0.59-0.82-0.39-1.32-1.35-1.18-2.24 10.11 3.18 19.93 7.27 29.31 12.2-1.17-2.1-2.34-4.21-3.51-6.31 0.75 0.51 1.49 1.01 2.24 1.52 0.59-0.25 1.03-0.84 1.09-1.49 2.18 2.15 5.82 1.38 8.72 2.36 2.67 0.91 4.55 3.27 6.27 5.51 3.48 4.54 6.96 9.08 10.45 13.62 2.96 3.86 5.96 7.79 7.68 12.35 1.62 4.31 2.04 9.05 4.12 13.17 3.81 7.56 13.41 11.59 21.51 9.16 8.11-2.43 13.88-10.96 13.27-19.4-0.16-2.27-0.73-4.52-0.52-6.78 0.21-2.24 1.17-4.34 2.15-6.37 3.11-6.43 6.55-12.7 10.31-18.78 1.88-3.04 3.84-6.02 5.87-8.96 1.33-1.93 2.33-4.16 4.46-5.33-0.1 2.58 3.03 1.61 4.31 0.87z"/> <path class="st3" d="m287.22 228.99c-0.17-0.04-0.35-0.08-0.51-0.02-0.35 0.12-0.41 0.59-0.4 0.96 0.13 2.84 1.51 5.48 3.21 7.75 1.7 2.28 3.73 4.29 5.45 6.54 3.07 4.04 5.08 8.77 7.03 13.45 0.94-0.17 1.56-1.05 2.02-1.88 1.88-3.37 2.86-7.3 2.35-11.12-1.18-8.7-11.42-13.8-19.15-15.68z"/> <path class="st3" d="m340.15 235.68c-0.44 1.17-0.59 2.44-0.74 3.68-0.17 1.47-0.34 2.94-0.29 4.41 0.1 2.48 0.83 4.88 1.56 7.25 0.35 1.15 0.71 2.29 1.06 3.44 1.21-0.59 1.9-1.87 2.46-3.09 0.84-1.81 1.6-3.66 2.35-5.5 1.32-3.23 5.37-9.22 3.02-12.69-2.59-3.86-8.14-0.89-9.42 2.5z"/> <path class="st6" d="m323.66 229.82c-5.11 0.26-11.55 0.89-16.41 2.45-0.61 0.19-1.27 0.49-1.5 1.08-0.13 0.33-0.1 0.71-0.06 1.06 0.6 6.36 0.61 12.78 0.03 19.14-0.57 6.28-1.65 12.93 1.04 18.64 1.14 2.42 2.89 4.49 4.65 6.51 2.51 2.87 5.26 5.82 8.91 6.92 1.63 0.49 3.36 0.58 5.06 0.44 5.65-0.47 11.04-3.54 14.31-8.17s4.38-10.73 2.93-16.22c-0.79-2.99-2.28-5.75-3.28-8.68-1.99-5.78-0.73-12.28-2.84-17.89-2.12-5.66-8.17-5.51-12.84-5.28z"/> <path class="st4" d="m444.61 65.68c3.27-2.01 6.95-3.37 10.74-3.97 4.19-0.67 8.8-0.31 12.16 2.28 3.62 2.81 5.07 7.8 4.5 12.34-0.56 4.55-2.86 8.71-5.58 12.4-2.71 3.69-5.88 7.04-8.54 10.77 0.62-0.51 1.6-0.52 2.22-0.01-0.73 0.58-1.45 1.16-2.18 1.74 0.68-0.08 1.4 0.31 1.7 0.94-1.88 1.88-3.7 3.82-5.45 5.82 1.31-0.27 2.72-0.02 3.86 0.69-3.57 10.07-9.51 19.29-17.2 26.71-0.96 0.93-2.02 1.97-2.08 3.31-0.08 1.92 1.96 3.69 1.28 5.48-0.96-0.24-1.84-0.77-2.5-1.5 0.37 1.04 0.53 2.16 0.44 3.26-0.61-0.32-1.23-0.64-1.84-0.96-0.31 1.79-0.95 3.53-1.86 5.1-0.81-1.12-2.72-0.65-3.5 0.48-0.78 1.14-0.81 2.61-0.94 3.98-0.41 4.33-2.15 8.52-4.92 11.87-1.39 1.67-3.47 3.25-5.55 2.62-1.14-0.35-1.98-1.28-2.89-2.05-0.94-0.79-2.02-1.44-2.7-2.46s-0.77-2.58 0.19-3.32c-1.79 0.41-3.86 0.28-5.21-0.97s-1.46-3.81 0.13-4.75c-1.22 0.34-2.56 0.23-3.71-0.31 1.34-2.05 2.68-4.1 4.02-6.15-4.07-0.14-8.17 1.53-10.98 4.47 2.13-3.64 3.53-7.7 4.09-11.88-1.07 0.19-2.11 0.58-3.04 1.15 1.16-0.79 1.3-2.6 0.47-3.73s-2.38-1.57-3.76-1.31c2.05-2.77 2.95-6.37 2.46-9.78-0.41-2.79-1.7-5.43-1.84-8.25s1.51-6.11 4.33-6.27c-1.92-0.63-3.94-0.95-5.96-0.96 1.91-2.71 4.74-4.77 7.9-5.76-1.77-0.48-3.53-0.96-5.3-1.43 1.21-3.28 3.82-5.81 6.39-8.17 11.22-10.29 23.31-19.6 36.06-27.92 2.7-1.76 5.45-3.5 7.72-5.8"/> <path class="st4" d="m239.18 163.43c-2.04 0.7-3.66 2.24-5.46 3.44-1.8 1.19-4.11 2.05-6.09 1.18-1.31-0.58-2.2-1.8-3.13-2.89-2.44-2.89-5.53-5.22-8.98-6.77 1.28-1.09 2.66-2.05 4.13-2.86-1.48-0.8-2.69-2.08-3.42-3.59l3.9-0.76c-1.33-0.45-7.33 1.69-8.35 0.72 2.78-1.38 5.74-2.41 8.77-3.05-0.86-1.42-2.81-2.05-4.34-1.41l1.91-2.77c-1.46-1.19-3.24-1.96-5.11-2.22 1.04-0.18 1.99-0.83 2.55-1.73l-5.85-1.94c1.29-1.11 2.89-1.86 4.57-2.14-2.93-1.64-6.23-2.62-9.58-2.86l5.34-3.12c-2.82-0.78-3.45-5.87-4.82-8.46s-2.07-4.97-3.09-7.72c-1.89-5.12-6.33-7.62-9.99-11.66 0.78 0.09 1.58-0.07 2.25-0.46l-2.04-2.93c0.65-0.21 1.26-0.56 1.77-1.02l-2.85-5.92c1.86-0.42 4.37-7.02 4.69-8.9 0.93-5.58-2.34-15.06 0-20.22s6.52-9.99 12.05-11.21c0.85-0.19 4.44 2.26 6.21 3.25 1.84 1.03 4.61 3.04 6.2 4.42 10.7 9.31 20.21 20.08 28.92 31.29 2.96 3.81 5.94 7.65 8.1 11.96 4.05 8.05 5.04 17.59 2.73 26.29-1.12-2.55-3.42-4.55-6.1-5.3-1.72 3.15 2.08 7.32 0.33 10.44-0.58-0.8-1.24-1.55-1.95-2.24-0.3-0.29-0.69-0.59-1.1-0.49-0.44 0.11-0.63 0.62-0.72 1.06-0.69 3.51 0.83 7.43-0.84 10.59-1.85 3.53-6.53 4.2-10.51 4.44-0.15 2.27 2.2 4.34 4.43 3.91-2.75 2.34-6.34 3.68-9.95 3.72 0.64 0.76 1.27 1.53 1.91 2.29-2.9-0.59-5.81-1.18-8.71-1.77-0.51-0.1-1.15-0.16-1.45 0.27-0.15 0.21-0.16 0.49-0.15 0.74 0.05 1.27 0.47 2.53 1.36 3.44 2.75 2.82 6.38 2.99 9.89 3.14-0.01 0.3-0.18 0.26 0.11 0.21 0.69-0.1 1.76-0.28 2.46-0.39z"/> <path class="st1" d="m133.09 428.29c0.87 8.04 1.1 16.14 0.7 24.22 2.55-11.4-0.31-23.43 1.76-34.93 0.21-1.16 0.9-2.62 2.06-2.4 0.46 0.09 0.81 0.44 1.11 0.8 4.41 5.33 1.53 13.69 4.39 19.99 1.54-5.99 1.62-12.36 0.23-18.39-0.36-1.54-0.81-3.13-0.47-4.68 0.34-1.54 1.81-2.98 3.35-2.64 1.22 5.91 2.45 11.82 3.67 17.72 0.93-0.58 1.13-1.82 1.21-2.91 0.3-4.1 0.1-8.23-0.58-12.28-0.25-1.48-0.56-3-0.25-4.47s1.44-2.89 2.94-2.99c1.93 6.05 2.89 12.4 2.84 18.75-0.02 2.02-0.03 4.31 1.43 5.7 0.23-7.6 0-15.22-0.71-22.79-0.13-1.44-0.28-2.93 0.17-4.3s1.69-2.6 3.13-2.55c-0.16 3.7 0.15 7.43 0.92 11.05 1.65-2.28 1.62-5.35 1.3-8.15-0.16-1.41-0.38-2.87 0.07-4.21s1.81-2.51 3.19-2.2c-0.4 2.55 0.33 5.13 0.86 7.65 1.16 5.51 1.35 11.16 1.55 16.78 0.09 2.68 0.18 5.35 0.28 8.03 2.06-2.1 1.71-5.48 1.34-8.4-0.74-5.88-0.95-11.82-0.63-17.74 0.06-1.16 0.83-2.75 1.87-2.23 0.37 0.19 0.56 0.61 0.69 1 0.96 3.14-0.44 7.16 1.92 9.44 0.61 0.59 1.45 1.02 1.75 1.82 1.38-1.86 1.18-4.41 0.94-6.72-1.11-10.68-1.69-21.42-1.73-32.15 3.04 3.35 3.44 8.24 3.75 12.75 0.86 12.5 2.17 24.97 3.94 37.38 1.16 0.18 1.59-1.48 1.5-2.66-0.99-13.17-4.23-26.19-3.9-39.4 0.01-0.38 0.06-0.84 0.4-1.02 0.28-0.16 0.64-0.05 0.93 0.09 3.4 1.65 3.9 6.18 4.06 9.95 0.44 10.41 1.77 20.76 3.1 31.1 0.18 1.37 0.44 2.9 1.56 3.71 1.89-1.92 1.69-5 1.35-7.67-1.22-9.77-2.44-19.53-3.66-29.3-0.07-0.52-0.07-1.17 0.39-1.43 0.44-0.24 0.97 0.06 1.34 0.4 1.92 1.8 2.24 4.67 2.45 7.29 1.01 12.84 2.02 25.69 3.03 38.53 0.08 1.05 0.21 2.19 0.95 2.93s2.32 0.63 2.55-0.39c1.13 3.57 2.05 7.22 2.74 10.9 1.21 0.2 1.79-1.44 1.8-2.66 0.09-8.43-3.89-16.35-5.19-24.69-1.07-6.81-0.33-13.78 1.07-20.53 4.13 4.3 4 10.97 4.2 16.93 0.14 4.16 0.56 8.3 0.98 12.44 0.74 7.27 1.48 14.53 2.22 21.8 0.12 1.14 0.59 2.61 1.73 2.55 1.21-0.06 1.48-1.73 1.37-2.94-1.31-14.44-2.61-28.87-3.92-43.31-0.11-1.24-0.23-2.5-0.63-3.68-0.41-1.2-1.11-2.28-1.81-3.33-6.86-10.24-15.42-19.34-25.21-26.82-2.09-1.6-4.35-3.17-6.94-3.62-0.72 3-0.88 6.13-0.47 9.19 0.31 2.32 0.94 4.59 1.09 6.92s-0.24 4.82-1.74 6.61c-1.24 1.48-3.07 2.31-4.81 3.13-6.3 2.96-12.36 6.44-18.1 10.38-2.95 2.02-5.81 4.17-8.59 6.43-1.85 1.51-4.4 3.1-5.09 5.53-0.95 3.32-0.1 7.4 0.26 10.69z"/> <path class="st4" d="m267.94 382.21c2.31 1.08 4.61 2.16 6.92 3.24-3.33-0.61-6.87 0.04-9.78 1.78 1.94 0.37 3.88 0.74 5.83 1.1-0.55 0.68-1.1 1.36-1.64 2.04 5.72 2.34 10.96 5.83 15.31 10.21-1.51 0.13-2.96 0.91-3.9 2.09 0.78 0.02 1.57 0.04 2.35 0.07-1 0.62-1.48 1.98-1.08 3.09 1.55 4.53 2.77 9.18 3.66 13.89 0.65-1.53 1.53-2.95 2.6-4.21 1.74 2.59 2.63 5.76 2.5 8.88-0.77-0.74-2.12-0.5-2.9 0.23s-1.13 1.8-1.46 2.82c-1.63-0.77-3.36-1.35-5.13-1.71-1.86 4.04-2.5 8.63-1.81 13.02 0.35 2.22 0.82 5-1.03 6.28-1.09 0.75-2.66 0.65-3.6 1.59-0.52 0.52-0.74 1.26-0.94 1.97-1.8 6.35-3.97 12.58-6.51 18.67-0.25 0.59-0.54 1.23-1.12 1.49-0.57 0.26-1.23 0.09-1.84-0.07-3.35-0.85-6.9-0.91-10.28-0.17-0.31-1.86-0.88-3.67-1.69-5.37-2.21 1.01-5.07 0.36-6.61-1.52-0.32 1.38-0.05 2.86 0.6 4.13 2.1 4.15 7.42 5.52 10.46 9.04 3.2 3.71 3.59 9.46 7.38 12.56 1.02 0.84 2.26 1.44 3.08 2.48 1.38 1.73 1.26 4.17 1.19 6.38-0.27 9.37 1.7 18.8 5.72 27.27 2.81 5.93 7.66 10.67 13.57 13.51 0.57 0.27 1.25 0.52 1.8 0.22 0.89-0.47 0.84-1.96 1.76-2.35 0.93-0.39 1.76 0.65 2.5 1.33 1.24 1.13 3.2 1.39 4.7 0.62 0.48-0.25 0.94-0.6 1.48-0.62 1.56-0.06 2.23 2.51 3.8 2.46 1-0.03 1.64-1.16 2.61-1.41s1.91 0.43 2.82 0.87c0.9 0.44 2.28 0.5 2.64-0.44 0.21-0.53-0.04-1.17 0.22-1.69 0.3-0.61 1.1-0.73 1.72-1 1.41-0.63 2.02-2.26 2.67-3.66 1.83-3.96 4.99-7.25 6.37-11.39 1.66-5.01 0.43-10.57-1.81-15.36-2.24-4.78-5.44-9.05-7.98-13.68-3.61-6.57-5.87-13.86-6.63-21.32-0.67-6.61-0.2-13.54-2.9-19.61 3.07 3.08 8.43 2.14 12.06 4.53 2.65 1.74 3.9 4.93 4.95 7.93 0.32 0.93 0.96 2.06 1.93 1.89 1.03-0.18 1.17-1.56 1.41-2.58 0.54-2.37 2.74-3.92 4.78-5.25l7.71-5.04c1.55-1.01 3.17-2.11 3.96-3.79 2.03-4.36 5.38-8.17 9.43-10.77 0.19 3.24 0.37 6.48 0.56 9.73 1.47-0.09 2.86-1.03 3.49-2.36 0.04 2.84 0.32 5.67 0.82 8.47 0.13 0.73 0.33 1.54 0.97 1.91s1.71-0.23 1.41-0.91c0.44 1.9 0.87 3.8 1.31 5.7 1.1-0.32 1.99 0.9 2.47 1.94 6.16 13.45 7.21 28.58 8.75 43.3 0.32 3.06 0.73 6.28 2.58 8.74 1.38 1.83 3.42 3.04 5.44 4.13 11.86 6.4 25 10.43 38.41 11.78 1.43 0.14 2.98 0.23 4.18-0.55 1.01-0.66 1.57-1.81 2.19-2.84 3.55-5.97 10.75-11.08 9.33-17.88-0.87-4.2-4.87-6.94-8.75-8.78-3.87-1.84-8.15-3.37-10.81-6.73-1.57-1.98-2.42-4.42-3.16-6.84-3.61-11.73-5.37-24.03-5.19-36.31 0.05-3.3 0.22-6.71-0.98-9.79-2.37-6.07-9.79-10.29-9.18-16.77 0.19-2.03 1.2-3.88 1.67-5.86 0.48-1.98 0.24-4.41-1.45-5.55 0.29-4.92-1-9.93-3.63-14.1 0.48 2.06-0.06 4.33-1.42 5.95-0.94-2.3-1.89-4.6-2.83-6.9 3.82-2.94 6.73-7.04 8.26-11.61-1.57 0.68-3.14 1.35-4.71 2.03 3.16-3.49 5.65-7.58 7.29-12-2.13 1-4.25 2-6.38 2.99 2.22-1.97 4.35-4.05 6.36-6.23-5.67 0.49-11.37 0.98-16.9 2.32-19.53 4.7-36.62 19.69-56.7 18.95-7.18-0.26-14.11-2.57-21.04-4.49-11.17-3.11-22.69-5.02-34.21-6.11z"/> <path class="st4" d="m213.42 409.99c-0.55 1.06-0.66 2.3-0.76 3.49-1.02 0.06-2.03 0.42-2.85 1.04l0.96 1.86c-0.52-0.43-1.02 0.58-0.93 1.25 0.55 4.41 2.36 8.65 5.16 12.09-3.03 1.13-5.39 3.89-6.04 7.05 0.49-0.88 1.85 0.24 1.75 1.24s-0.73 2.02-0.32 2.93c0.34 0.74 1.2 1.03 1.93 1.39 3.15 1.57 4.48 5.98 2.72 9.03 8.15 5.97 16.17 12.1 24.06 18.4-0.9 1.34-1.79 2.69-2.69 4.03 3.49 1.05 7.44 0.46 10.47-1.57 0.25-0.17 0.51-0.36 0.63-0.64 0.14-0.34 0.04-0.73-0.06-1.09-1.21-4.2-2.44-8.43-4.51-12.28-0.63-1.18-1.36-2.35-1.58-3.67-0.24-1.41 0.08-3-0.77-4.14-0.62-0.83-1.69-1.16-2.58-1.7-2.12-1.27-3.25-3.72-3.78-6.13-0.54-2.41-0.61-4.91-1.25-7.3-0.71-2.63-2.08-5.02-3.48-7.35-2.55-4.23-5.25-8.37-8.1-12.41-1.5-2.08-5.49-10.3-7.98-5.52z"/> <path class="st3" d="m291.11 533.34c0.26-0.24 0.01-0.67-0.24-0.92-0.66-0.68-1.33-1.36-1.99-2.03-0.33-0.34-0.69-0.69-1.15-0.82-0.73-0.19-1.51 0.29-1.88 0.96-0.37 0.66-0.4 1.46-0.36 2.21 0.06 1.1 0.31 2.28 1.15 2.98 0.7 0.58 1.67 0.71 2.59 0.7 0.28 0 0.56-0.02 0.81-0.13 0.32-0.14 0.55-0.43 0.72-0.73 0.52-0.94 0.49-2.17-0.07-3.09"/> <path class="st3" d="m303.2 530.48c-0.24-0.37-0.52-0.77-0.94-0.89-0.34-0.09-0.7 0.03-1.03 0.14-0.89 0.31-1.87 0.68-2.31 1.52-0.45 0.87-0.17 1.92 0.18 2.83 0.52 1.35 1.19 2.64 1.98 3.84 0.19 0.29 0.4 0.59 0.7 0.77 0.44 0.26 0.98 0.24 1.49 0.21 1.21-0.08 2.68-0.34 3.07-1.49 0.18-0.52 0.07-1.09-0.05-1.63-0.34-1.6-0.67-3.19-1.01-4.79-0.08-0.39-0.14-0.86 0.16-1.12 0.17-0.15 0.42-0.18 0.65-0.2 0.69-0.06 1.39-0.1 2.09-0.12s1.49 0.03 1.93 0.57c0.23 0.28 0.32 0.65 0.4 1l1.02 4.44c0.06 0.28 0.13 0.56 0.07 0.84-0.4 2.07-4 0.49-4.89-0.29-1.55-1.37-2.41-3.89-3.51-5.63z"/> <path class="st3" d="m315.82 523.53c-0.89-0.24-1.1-1.42-0.99-2.33 0.14-1.19 0.59-2.46 1.63-3.05 1.14-0.65 2.69-0.22 3.54 0.77s1.09 2.41 0.87 3.7c-0.21 1.29-0.82 2.48-1.5 3.6-0.3 0.5-0.74 1.06-1.32 1.01-0.35-0.03-0.64-0.28-0.9-0.52-0.52-0.47-1.03-0.94-1.55-1.41 0.11-0.39 0.27-1.37 0.22-1.77z"/> <path class="st3" d="m397.28 519.25c0.08 1.28 0.64 2.49 0.75 3.77 0.06 0.76-0.03 1.57 0.3 2.26 0.3 0.63 0.9 1.06 1.47 1.46 0.48 0.33 1.03 0.68 1.6 0.57 0.34-0.06 0.64-0.29 0.88-0.53 1.88-1.87 2.16-5.7 0.65-7.84-1.58-2.25-5.93-4.14-5.65 0.31z"/> <path class="st3" d="m412.57 519.07c-0.41-0.15-0.92-0.24-1.25 0.05-0.2 0.17-0.29 0.44-0.35 0.7-0.82 3.32 0.51 7.06 3.23 9.13 0.4 0.31 0.84 0.58 1.32 0.72 0.61 0.17 1.26 0.12 1.87-0.03 1.67-0.42 3.13-1.64 3.84-3.22 0.43-0.96 0.59-2.01 0.74-3.05 0.12-0.81 0.22-1.65-0.08-2.41-0.49-1.25-1.89-1.83-3.16-2.26-0.56-0.19-1.14-0.37-1.72-0.32-0.59 0.05-1.19 0.39-1.37 0.95-0.69 2.17-1.44 0.34-3.07-0.26z"/> <path class="st3" d="m427.09 510.32c-0.65 0.15-0.88 0.96-0.92 1.62-0.11 1.78 0.31 3.59 1.19 5.14 0.39 0.68 1.05 1.39 1.81 1.22 0.6-0.13 0.95-0.75 1.18-1.32 0.37-0.91 0.63-1.86 0.79-2.82 0.38-2.29-1.72-4.3-4.05-3.84z"/> <path d="m286.9 417.29c-0.06-0.78 0.11-1.63 0.92-1.67 0.52-0.02 1.36 0.58 1.56 1.09 0.73 1.87 1.26 3.83 1.86 5.75 0.1 0.32 0.12 0.66 0.19 1.09 0.95-0.34 1.3 0.23 1.59 0.95 0.12 0.31 0.33 0.61 0.57 0.83 3.31 3 5.07 6.96 6.65 10.99 1.43 3.63 2.71 7.32 4.09 10.97 0.14 0.38 0.49 0.78 0.85 0.97 1.47 0.75 2.97 1.44 4.49 2.09 0.2 0.09 0.65-0.06 0.81-0.25 1.35-1.6 2.77-1.79 4.12-0.17 1.75 2.1 3.32 4.36 4.87 6.62 0.85 1.23 1.48 2.61 2.22 3.92 0.12 0.22 0.29 0.41 0.51 0.71 0.2-0.29 0.38-0.48 0.48-0.7 1.27-2.89 2.49-5.8 3.83-8.66 0.47-0.99 1.22-1.85 1.91-2.72 0.48-0.6 0.98-0.37 1.39 0.17 0.7 0.93 0.75 1.95 0.37 3-0.36 0.99-0.8 1.95-1.19 2.92-0.11 0.28-0.19 0.57-0.06 0.96 0.16-0.18 0.35-0.34 0.49-0.53 1.38-1.97 2.78-3.92 4.11-5.92 1.16-1.73 1.53-1.82 3.26-0.78 0.22 0.13 0.87-0.09 1.07-0.35 1.31-1.64 2.73-3.23 3.77-5.04 1.47-2.56 2.64-5.3 3.94-7.96 0.21-0.44 0.46-0.86 0.7-1.28 0.47-0.82 0.94-1.64 1.43-2.45 0.09-0.15 0.23-0.26 0.45-0.48 0.32 1.27 0.61 2.42 0.98 3.86 0.36-0.45 0.55-0.61 0.64-0.82 1.29-3.08 2.54-6.18 3.86-9.25 0.75-1.76 1.55-3.5 2.45-5.19 0.81-1.52 1.95-2.71 3.68-3.3 0.92-0.32 1.72-0.97 2.89-1.65-0.14 0.64-0.13 0.93-0.26 1.16-0.98 1.76-2.09 3.47-2.97 5.28-1.25 2.6-2.39 5.25-3.49 7.91-1.24 2.98-2.26 6.06-4.43 8.56-0.25 0.29-0.41 0.74-0.42 1.13-0.07 2.07-0.09 4.13-0.12 6.2 0 0.13 0.08 0.27 0.24 0.78 0.57-1.06 1-1.85 1.42-2.64 0.18-0.33 0.3-0.74 0.56-0.97 0.33-0.28 0.95-0.69 1.16-0.56 0.35 0.21 0.65 0.79 0.66 1.22 0.02 0.74-0.24 1.48-0.31 2.22-0.19 2.08-0.12 4.13 0.69 6.1 0.16 0.4 0.39 0.78 0.73 1.46 0.4-1.02 0.69-1.75 0.97-2.48 0.1 0 0.2 0 0.3 0.01 0.38 2.88-0.13 5.94 1.48 8.91 0.28-1.1 0.45-1.92 0.7-2.72 0.1-0.32 0.38-0.57 0.58-0.86 0.22 0.26 0.55 0.49 0.65 0.8 0.74 2.28 1.7 4.54 2.08 6.88 0.65 4.03 2.75 7.59 3.32 11.64 0.56 3.97 1.49 7.9 2.2 11.85 0.92 5.18 1.87 10.35 2.63 15.55 0.28 1.92 0.05 3.92 0.05 5.89-0.14 0.04-0.29 0.07-0.43 0.11-0.27-0.49-0.66-0.95-0.78-1.47-0.55-2.42-1.09-4.84-1.5-7.28-1.06-6.22-2.01-12.46-3.11-18.67-0.73-4.18-1.63-8.33-2.47-12.49-0.17-0.85-0.39-1.68-0.66-2.5-0.1-0.3-0.32-0.66-0.59-0.78-1.87-0.89-2.24-2.6-2.47-4.39-0.03-0.22-0.07-0.44-0.12-0.73-1.25 0.5-1.85-0.18-2.27-1.18-0.13-0.31-0.29-0.63-0.34-0.95-0.16-1.17-0.47-1.99-1.76-2.62-1.59-0.77-1.9-2.62-2.03-4.3-0.09-1.14-0.02-2.29-0.02-3.6-0.44 0.16-0.62 0.19-0.77 0.28-1.29 0.72-1.9 0.44-2.11-1.02-0.29-2.03-0.54-4.06-0.82-6.18-0.19 0.17-0.46 0.38-0.71 0.62-2.24 2.14-4.15 4.53-5.93 7.06-0.92 1.31-2.11 2.43-3.26 3.56-0.86 0.84-1.91 1.29-3.18 1.16-0.35-0.03-0.82 0.18-1.08 0.43-1.88 1.83-4 3.27-6.41 4.31-0.32 0.14-0.6 0.55-0.75 0.9-0.91 2.02-1.78 4.06-2.67 6.09-0.15 0.34-0.29 0.7-0.48 1.02-0.49 0.79-1.06 1.46-2.12 1.45-1.03-0.02-1.68-0.59-2.12-1.44-1.28-2.47-2.54-4.94-3.81-7.41-0.15-0.3-0.36-0.57-0.53-0.86-0.39-0.66-0.78-1.02-1.61-0.5-0.91 0.57-1.71 0.03-2.45-0.56-1.82-1.45-3.65-2.89-5.48-4.33-0.04-0.03-0.14 0-0.35 0 0.43 1.27 0.98 2.47 1.24 3.72 0.56 2.71 1.07 5.44 1.42 8.19 0.44 3.43 0.75 6.87 1.01 10.31 0.24 3.21 0.68 6.39 1.93 9.34 1.69 4.01 3.65 7.9 5.5 11.84 0.21 0.44 0.49 0.86 0.64 1.32 0.75 2.27 2.12 4.07 3.74 5.8 1.96 2.1 2.77 4.86 3.58 7.57 0.71 2.36 0.44 4.71 0.24 7.13-0.25 2.98-1.97 5.21-3.11 7.75-0.34 0.76-0.57 1.63-0.6 2.46-0.05 1.36-0.83 2.2-1.85 2.77-1.01 0.56-1.69 1.31-2.16 2.33-0.58 1.27-1.57 2.07-2.92 2.45-0.87 0.24-1.38 0.84-1.6 1.72-0.57 2.24-2.16 3.06-4.43 2.41-0.37-0.11-0.95 0-1.24 0.24-2.45 2.11-5.31 1.67-6.89-1.17-0.36-0.66-0.81-0.75-1.47-0.69-1.04 0.1-2.13 0.29-3.13 0.08-1.09-0.23-2.09-0.87-3.22-1.37-0.01 0.02-0.12 0.16-0.19 0.32-1.13 2.43-4.12 2.76-5.63 0.52-0.76-1.13-1.72-1.7-2.91-2.27-3.3-1.56-6.31-3.53-7.74-7.16-0.17-0.44-0.46-0.91-0.83-1.18-1.82-1.34-2.4-3.38-3.17-5.33-0.27-0.69-0.61-1.37-1-2-1.63-2.58-2.75-5.27-2.74-8.43 0.01-6.8-0.96-13.47-3.08-19.96-0.02-0.07-0.07-0.15-0.06-0.22 0.28-1.77-0.93-2.24-2.22-2.98-2.58-1.49-3.92-4.07-4.91-6.8-0.4-1.09-0.73-2.21-1.09-3.32-0.55-1.68-1.59-2.68-3.43-2.98-0.85-0.14-1.65-0.8-2.4-1.33-0.5-0.36-0.85-0.92-1.43-1.57-0.78 1.79-2.41 1.63-3.8 1.98-2.69 0.7-5.38 1.42-8.09 1.99-2 0.42-2.52 0.03-3.46-1.75-0.12-0.23-0.67-0.39-0.97-0.34-2.33 0.39-4.64 0.87-6.97 1.26-0.66 0.11-1.36 0.11-2.02 0.01-1.29-0.19-1.44-0.46-1.05-2.01-6.61 1.23-13.07-0.19-19.58 0.08-0.01-0.14-0.01-0.28-0.02-0.42l2.1-0.39c0-0.11-0.01-0.22-0.01-0.33-1.31 0-2.63-0.07-3.93 0.01-4.38 0.3-8.78 0.53-13.14 1.02-5.92 0.66-11.85 0.86-17.75 0.13-5.69-0.7-11.36-1.66-17.03-2.58-5.42-0.88-10.77-2.05-15.94-3.96-0.81-0.3-1.64-0.58-2.38-1-1.6-0.9-3.32-1.34-5.12-1.59-3.76-0.53-7.17-2.17-10.64-3.59-0.75-0.31-1.4-0.89-1.2-1.82 0.21-0.96 1.02-1.21 1.9-1.29 0.43-0.04 0.86-0.11 1.64-0.21-0.59-0.48-0.9-0.76-1.24-1.01-1.52-1.08-2.68-2.39-3.06-4.29-0.08-0.38-0.33-0.76-0.57-1.08-4.75-6.24-8.94-12.82-12.18-19.98-3.27-7.22-5.65-14.73-6.71-22.62-1.26-9.47-0.67-18.82 1.88-28.03 0.08-0.27 0.09-0.56 0.14-0.85-2.21-0.27-2.79-1.04-2.48-3.25 0.65-4.6 2.44-8.81 4.43-12.96 0.23-0.47 0.47-0.94 0.7-1.41 0.02-0.05-0.03-0.14-0.08-0.35-0.59 0.37-1.09 0.85-1.69 1.03-0.58 0.18-1.45 0.32-1.82 0.02-0.38-0.31-0.59-1.31-0.37-1.77 0.94-2.04 1.95-4.07 3.12-5.98 3.15-5.13 6.61-10.06 10.69-14.49 3.36-3.65 6.97-7.06 10.41-10.63 4.02-4.18 7.78-8.55 10.16-13.95 0.68-1.53 1.65-2.95 2.58-4.35 1.25-1.88 3.02-3.07 5.17-3.79 1.38-0.46 2.73-1.05 4.03-1.72 1.77-0.91 3.47-1.96 5.2-2.94 2.74-1.55 5.11-3.54 7.19-5.92 4.14-4.72 8.4-9.32 12.46-14.11 1.1-1.3 1.79-3.03 2.41-4.66 1.52-4 4.01-7.11 7.85-9.04 1.2-0.6 1.74-1.28 1.66-2.77-0.23-4.37 1.32-8.16 4.27-11.4 1.85-2.03 3.65-4.09 5.44-6.17 1.32-1.52 2.52-3.05 3.03-5.14 1.21-4.97 3.44-9.44 7.33-12.94 0.74-0.67 1.38-1.5 1.89-2.36 0.25-0.42 0.28-1.11 0.15-1.6-0.51-1.92 0.04-3.58 0.87-5.3 1.53-3.2 3.72-5.9 6.11-8.47 0.58-0.62 0.66-1.1 0.27-1.87-0.92-1.8-1.72-3.67-2.56-5.52-0.39-0.86-0.36-1.69 0.33-2.41 0.74-0.77 1.6-0.72 2.5-0.32 0.93 0.41 1.82 0.91 2.78 1.24 4.63 1.59-2.99-0.35 1.21-3 0.8-0.5 0.78-0.85 0.31-1.75-0.73-1.41-1.29-2.7-2.77-3.65-1.17-0.75-0.72-2.36-0.35-3.58 0.64-2.08 1.66-3.97 3.38-5.35 0.45-0.36 1.18-0.38 1.79-0.56 0.15 0.61 0.54 1.27 0.4 1.8-0.3 1.15-0.86 2.23-1.32 3.33-0.21 0.51-0.44 1.02-0.7 1.62 0.23-0.02 0.35 0 0.43-0.04 1.66-0.91 2.52-0.47 2.46 1.42-0.05 1.74-0.38 3.47-0.58 5.21-0.02 0.15-0.1 0.3-0.09 0.44 0.14 1.27 0.08 2.47-0.82 3.51-1.15 1.32-2.6 2.15-4.24 2.65-3.6 1.11 4.84 2.91 1.18 1.9-0.2-0.06-0.43-0.04-1.05-0.08 0.93 1.4 1.55 2.72 2.51 3.69 1.55 1.56 3.35 2.87 5 4.33 0.61 0.54 1.18 1.15 1.62 1.82 0.43 0.66 0.18 1.19-0.61 1.47-1.09 0.38-2.13 0.17-3.02-0.42-1.47-0.97-2.88-2.03-4.24-3.14-0.59-0.49-0.98-0.58-1.49 0.02-2.06 2.44-4.27 4.8-5.37 7.87-0.38 1.06-0.55 2.25-0.54 3.38 0.03 4.73 0.55 9.45-0.05 14.18-0.35 2.72-0.6 5.45-0.74 8.19-0.23 4.46 0.95 8.73 2.18 12.95 0.75 2.58 1.81 5.08 2.72 7.61 0.1 0.29 0.16 0.59 0.25 0.89-0.12 0.05-0.24 0.11-0.35 0.16-0.35-0.66-0.73-1.3-1.05-1.97-1.44-3.01-3.08-5.95-4.23-9.07-1.49-4.05-1.94-8.33-1.58-12.66 0.35-4.11 0.7-8.23 1.01-12.34 0.05-0.65-0.08-1.32-0.14-2.23-0.44 0.29-0.69 0.41-0.87 0.59-2.63 2.6-4.64 5.55-5.76 9.14-1.13 3.64-2.01 7.32-2.21 11.12-0.18 3.46-1.19 6.58-3.28 9.31-1.54 2.02-1.81 4.25-1.7 6.7 0.26 5.78 2.71 10.8 5.27 15.78 2.39 4.66 5.72 8.63 9.4 12.32 0.8 0.8 1.58 1.61 2.37 2.41 1.34 1.34 2.6 2.65 4.54 3.32 2.21 0.77 4.19 2.18 6.32 3.17 4.26 1.99 8.62 3.77 12.29 6.81 4.91 4.08 9.83 8.17 14.68 12.32 4.66 3.99 8.97 8.32 12.77 13.17 2.13 2.72 5.22 3.95 8.58 4.5 6.53 1.09 13.04 0.67 19.53-0.23 5.18-0.72 10.36-1.63 15.17-3.74 4.71-2.06 9.37-4.29 13.88-6.76 8.44-4.61 16.86-9.28 25.09-14.24 8.74-5.26 16.8-11.5 24.31-18.42 3.29-3.03 6.71-5.92 9.88-9.07 2.12-2.11 3.9-4.56 5.82-6.87 0.18-0.21 0.28-0.49 0.5-0.87-1.71 0.89-3.25 1.72-4.8 2.5-0.74 0.37-1.49 0.73-2.27 0.99-1.32 0.44-2.38 0.85-2.99 2.45-0.65 1.72-2.57 2.45-4.3 3.03-1.17 0.39-2.06 0.8-2.77 2.06-1.2 2.11-3.21 3.6-5.59 4.32-2.04 0.62-4.14 1.04-6.24 1.46-3.68 0.74-7.37 1.34-11.15 1.22-0.66-0.02-1.39 0.32-2 0.65-9.35 5.09-18.09 11.14-26.83 17.18-3.67 2.53-7.63 4.52-11.83 6-9.24 3.25-18.51 6.45-27.78 9.61-1.81 0.61-3.7 0.95-5.56 1.42-0.3 0.08-0.59 0.18-0.84 0.5 4.63 0.61 9.12-0.51 13.71-0.85-1.24 0.41-2.47 0.87-3.73 1.21-2.91 0.79-5.86 1.38-8.9 1.18-0.62-0.04-1.31-0.14-1.81-0.47-0.43-0.29-0.86-0.93-0.86-1.41 0-0.37 0.62-0.94 1.06-1.07 1.76-0.53 3.58-0.84 5.33-1.39 4.15-1.31 8.29-2.66 12.41-4.08 5.5-1.89 10.98-3.85 16.47-5.78 5.55-1.95 10.5-4.97 15.26-8.38 2.99-2.14 6.13-4.07 9.25-6.02 3.59-2.25 7.22-4.44 10.85-6.64 0.82-0.5 1.71-0.89 2.87-1.48-1.15-0.26-1.95-0.44-2.76-0.62-3.34-0.73-6.68-1.45-10.01-2.21-1.93-0.44-3.74 0.18-5.55 0.61-6.1 1.45-12.13 3.23-18.28 4.42-5.28 1.02-10.7 1.02-16.04 0.13-1.12-0.19-2.15-0.86-3.25-1.26-0.67-0.24-1.37-0.39-2.05-0.59 0-0.14 0.01-0.28 0.01-0.42 0.43-0.13 0.86-0.35 1.3-0.37 4.31-0.23 8.63-0.66 12.93-0.56 5 0.12 9.64-1.29 14.37-2.46 4.59-1.14 9.19-2.26 13.83-3.15 1.49-0.29 3.14 0.03 4.68 0.32 2.84 0.54 5.61 1.57 8.47 1.84 4.36 0.42 8.78 0.68 13.14 0.44 3.42-0.19 6.79-1.18 10.17-1.92 0.84-0.18 1.59-0.78 2.38-1.19-0.04-0.15-0.08-0.31-0.12-0.46-0.4-0.11-0.8-0.26-1.21-0.33-0.55-0.09-1.14-0.06-1.67-0.2-0.88-0.23-1.72-0.68-1.57-1.74 0.15-1.01 1.01-1.32 1.95-1.36 1.16-0.04 2.34 0.07 3.48-0.12 1.54-0.26 3.06-0.71 4.57-1.12 0.3-0.08 0.55-0.33 0.83-0.51-0.02-0.11-0.05-0.22-0.07-0.32-0.82 0.09-1.64 0.23-2.46 0.24-0.65 0.01-1.37 0-1.94-0.26-0.37-0.17-0.74-0.83-0.71-1.25 0.03-0.41 0.47-1.03 0.86-1.15 0.99-0.3 2.06-0.52 3.09-0.51 4.78 0.06 9.27-1.06 13.37-3.46 1.79-1.05 3.35-2.5 4.93-3.87 0.99-0.86 1.82-1.91 2.63-3.01-2.82 2.42-5.77 4.47-10.05 4.27 0.43-0.31 0.57-0.48 0.75-0.54 3.46-1.21 6.07-3.65 8.72-6.03 1.14-1.02 1.3-2.48 1.4-3.83 0.4-5.36 3.28-9.4 6.76-13.16 0.32-0.34 0.61-0.71 1.15-1.35-2.1 0-2.94-1.01-2.94-2.79 4.31-1.48 8.87-2.58 11.61-6.98-0.32 0-0.59-0.02-0.86 0-1.77 0.18-3.23-0.53-4.54-1.62-0.6-0.5-0.46-0.85 0.2-1.27 4.33-2.71 7.87-6.28 11.01-10.27 0.04-0.05 0.01-0.14 0.03-0.29-1.91 0.36-3.82 0.71-5.72 1.07l-0.18-0.45c2.8-0.67 5-2.26 7.05-4.08-0.06-0.12-0.11-0.24-0.17-0.36-0.94 0.39-1.9 0.74-2.82 1.17-0.75 0.35-1.42 0.86-2.18 1.17-0.99 0.4-2.03 0.01-2.44-0.81-0.41-0.8-0.09-1.59 0.85-2.3 1.58-1.19 3.35-2.23 4.66-3.68 1.25-1.39 2.02-3.2 2.95-4.86 0.13-0.23-0.01-0.61-0.03-0.92-0.33 0.12-0.73 0.15-0.96 0.37-1.96 1.84-3.9 3.71-5.92 5.65 0.52 0.72-0.04 1.4-0.72 1.99-0.91 0.79-1.91 1.47-2.82 2.25-5.74 4.95-12.09 9.02-18.61 12.85-2.62 1.54-5.5 2.16-8.5 2.3-1.07 0.05-2.14 0.01-3.18 0.01 0.19 1.26 0.64 2.31 0.42 3.2-0.34 1.33-1.76 0.42-2.75 0.76 0.11 0.38 0.23 0.68 0.29 1 0.17 0.85-0.33 1.33-1.04 1.47-1.5 0.31-3.02 0.67-4.54 0.71-7.48 0.2-13.71 3.26-19.17 8.16-0.44 0.4-0.92 0.83-1.18 1.35-0.21 0.45-0.26 1.07-0.15 1.56 1.17 4.97 0.84 9.87-1.42 14.4-1.53 3.06-3.64 5.87-5.74 8.6-0.79 1.02-2.18 1.8-3.45 2.18-4.75 1.45-9.63 2.09-14.57 1.16-3.08-0.58-5.77-2.07-8.24-3.99-1.99-1.54-3.54-3.43-4.81-5.61-0.51-0.87-1.37-1.53-2.08-2.28-0.23-0.24-0.5-0.46-0.71-0.71-2.4-2.87-4.89-5.68-7.18-8.64-1.99-2.58-4.89-3.94-7.33-5.91-0.13-0.11-0.32-0.14-0.73-0.31 0.07 0.85 0.21 1.54 0.15 2.21-0.04 0.5-0.34 0.99-0.52 1.48-0.48-0.21-1-0.37-1.43-0.66-0.36-0.25-0.62-0.65-0.9-1-0.41-0.51-0.74-0.68-1.39-0.21-0.82 0.59-1.54-0.01-2.04-0.63-0.78-0.96-1.42-2.03-2.17-3.01-0.4-0.52-0.85-1.07-1.4-1.4-2.35-1.42-4.79-2.68-7.1-4.14-4.05-2.56-8.55-3.37-13.21-3.67-0.45-0.03-0.9-0.03-1.35-0.05-1.66-0.06-1.97-0.46-1.59-2.28-0.93 0-1.82 0.06-2.7-0.01-1.46-0.12-1.81-0.63-1.42-2.23-0.96-0.23-1.92-0.5-2.89-0.7-5.32-1.08-10.05-3.49-14.61-6.33-0.85-0.53-1.49-1.04-0.76-2.28-0.83-0.22-1.54-0.41-2.25-0.58-0.4-0.1-0.88-0.05-1.2-0.25-0.36-0.23-0.6-0.67-0.89-1.01 0.35-0.27 0.67-0.64 1.06-0.78 0.55-0.21 1.17-0.25 1.75-0.55-4.19-1.59-9.07-1.1-12.48-4.67 1 2.52 2 5 4.57 6.34 0.83 0.43 1.74 0.72 2.55 1.18 1.29 0.73 2.53 1.54 3.89 2.37-1.12 1.32-2.42 1.72-3.83 1.39-1.32-0.31-2.58-0.88-4.03-1.4 0.58 1.98 1.71 3.31 3.49 3.97 1.83 0.67 3.72 1.17 5.58 1.74 0.2 0.06 0.39 0.15 0.59 0.23 0.01 0.1 0.02 0.21 0.03 0.31-0.73 0.13-1.46 0.35-2.19 0.39-3.47 0.19-8.01-1.55-8.96-6.42-0.15-0.76-0.58-1.58-1.14-2.11-2.4-2.28-3.45-5.05-3.3-8.31 0.07-1.49 0.04-2.87-0.76-4.29-0.65-1.16-0.72-2.65-0.94-4.02-0.13-0.76 0.61-1.13 1.29-0.58 0.89 0.73 1.79 1.53 2.4 2.48 1.01 1.59 2.1 2.93 3.92 3.71 1.69 0.72 1.69 1.74 0.02 3.37 1.25 0.38 2.35 0.77 3.48 1.05 2.26 0.57 4.53 1.07 6.79 1.62 0.29 0.07 0.56 0.22 0.81 0.38 1.08 0.69 1.16 1.28 0.33 2.79 0.53 0.04 1.01 0 1.44 0.12 0.58 0.16 1.46 0.32 1.59 0.7 0.16 0.47-0.3 1.16-0.52 1.75-0.06 0.16-0.2 0.3-0.43 0.65 1.8 0.96 3.53 1.92 5.29 2.8 3.43 1.72 7.17 2.45 10.86 3.31 0.97 0.23 1.88 0.53 2.18 1.69 0.05 0.21 0.51 0.42 0.79 0.44 0.75 0.05 1.5 0.01 2.25-0.02 2.05-0.1 2.38 0.34 1.62 2.33 0.67 0.1 1.32 0.24 1.97 0.28 5.08 0.27 9.54 2.18 13.71 4.97 1.31 0.87 2.71 1.61 4.13 2.31 1.54 0.75 2.76 1.78 3.47 3.37 0.19 0.42 0.51 0.79 0.69 1.06 0.34-0.48 0.61-1.19 0.95-1.23 0.42-0.05 0.98 0.39 1.36 0.74 0.51 0.47 0.92 1.06 1.48 1.72 0.13-0.34 0.22-0.49 0.24-0.65 0.26-1.86 1-2.25 2.42-1.08 2.92 2.41 5.79 4.89 8.61 7.41 1.42 1.27 2.64 2.75 4.03 4.06 0.54 0.51 1.3 0.79 2.23 1.33-0.28-1.6-0.59-2.83-0.69-4.08-0.35-4.12-2.84-7.13-5.26-10.13-5.82-7.22-11.87-14.27-17.61-21.55-4.66-5.91-8.19-12.5-10.63-19.64-0.21-0.62-0.24-1.32-0.23-1.98 0.02-0.68-0.22-0.88-0.87-1.01-1.13-0.22-2.24-0.56-3.33-0.95-0.73-0.27-0.66-0.88-0.06-1.16 1.63-0.75 3.31-1.41 4.99-2.04 0.26-0.1 0.73 0.12 0.99 0.34 2.4 1.97 4.36 4.34 6.12 6.88 0.98 1.42 1.98 2.83 2.92 4.28 1.41 2.16 3.29 3.81 5.54 5.02 4.21 2.27 8.47 4.53 13.3 4.99 2.7 0.26 5.46-0.06 8.19-0.28 3.48-0.27 6.95-0.7 10.42-1.07 1.19-0.13 2.38-0.38 3.57-0.43 1.67-0.08 3.36-0.02 5.16-0.02 0.24-1.71 0.53-3.66 0.74-5.61 0.03-0.27-0.35-0.77-0.63-0.86-4.43-1.36-8.16-3.94-11.82-6.66-1.66-1.23-2.56-2.91-3.04-4.86-0.03-0.11-0.08-0.24-0.05-0.33 0.62-1.63-0.51-2.43-1.44-3.46-0.75-0.83-1.34-1.95-1.61-3.03-0.56-2.27-0.6-4.6-0.08-6.92 0.5-2.22 1.75-3.86 3.64-5.08 2.8-1.8 5.97-2.34 9.18-2.84 6-0.93 11.92 0.07 17.84 0.69 2.19 0.23 4.07 1.4 5.28 3.17 1.72 2.49 3.6 5.04 4.55 7.85 1.33 3.96 0.96 7.7-3.47 9.95-0.78 0.4-1.16 0.85-1.06 1.84 0.12 1.14-0.48 2.15-1.41 2.81-2.38 1.69-4.81 3.34-7.24 4.97-0.93 0.63-1.9 1.22-2.92 1.69-0.62 0.29-1.35 0.42-2.04 0.44-0.84 0.03-1.29 0.41-1.36 1.18-0.17 1.79-0.31 3.59-0.39 5.39-0.01 0.24 0.34 0.68 0.59 0.74 4.04 0.9 8.11 1.29 12.27 1.04 6.73-0.4 12.19-2.97 16-8.65 1.19-1.77 2.28-3.62 3.23-5.52 0.39-0.79 0.39-1.81 0.41-2.74 0.01-0.86-0.31-1.54-1.35-1.8-0.35-0.09-0.63-0.87-0.74-1.39-0.07-0.34 0.21-0.76 0.34-1.16-2.12-0.48-2.26-0.6-1.69-2.82 0.65-2.51 0.22-4.74-0.94-7.05-1.57-3.1-3-6.31-4.12-9.6-0.62-1.82-1.65-3.27-2.79-4.68-4.23-5.2-7.63-10.88-10.24-17.04-0.85-2-1.2-4.1-0.99-6.27 0.07-0.69-0.01-1.16-0.78-1.35-0.92-0.24-1.13-0.92-0.9-1.76 0.15-0.55 0.16-0.88-0.43-1.29-0.37-0.26-0.5-1.11-0.47-1.68 0.26-3.86 0.6-7.71 0.88-11.57 0.07-0.97-0.01-1.95-0.03-2.92-0.03-1.59 0.47-2.97 1.75-3.97 0.69-0.54 0.98-1.17 0.96-2.04-0.03-0.98 0.28-1.79 1.38-1.93 0.05-0.13 0.12-0.2 0.11-0.26-0.5-2.2-0.5-2.23 1.82-2.35 0.87-0.05 1.07-0.42 0.75-1.15-0.55-1.27-1.1-2.55-1.72-3.79-1.66-3.33-3.16-6.73-3.91-10.4-0.22-1.09-0.73-1.53-1.91-1.54-7.55-0.08-15.1-0.24-22.65-0.38-0.77-0.01-1.54 0.03-1.34 1.11 0.75 4.06-0.01 7.93-1.56 11.65-1.54 3.7-0.65 7.02 1.44 10.13 2.5 3.74 4.55 7.68 5.77 12.04 1.1 3.9 1.26 7.85 0.82 11.85-0.19 1.73-1.22 2.51-2.79 1.63-0.48-0.27-1.03-0.4-1.68-0.65-0.46 1.43 0.29 3.98-2.74 2.99-0.07 0.26-0.16 0.49-0.18 0.73-0.16 1.61-0.91 2.13-2.32 1.44-0.97-0.48-1.33-0.16-1.43 0.76-0.49 4.26-2.94 7.43-5.9 10.23-1.99 1.88-4.11 3.64-6.3 5.29-1.53 1.15-2.32 2.72-3.12 4.33-1.14 2.3-2.45 4.49-4.38 6.22-0.38 0.34-0.98 0.43-1.48 0.66-0.29 0.13-0.61 0.26-0.84 0.47-0.51 0.45-0.95 0.97-1.45 1.41-1.07 0.95-1.52 0.79-1.85-0.71-1.12 0.83-2.24 1.61-3.29 2.48-0.23 0.19-0.29 0.69-0.28 1.04 0.01 0.67 0.08 1.35 0.19 2.02 0.39 2.19-0.55 3.82-2.21 5.07-0.6 0.46-0.92 0.95-0.74 1.6 0.42 1.54 0.76 3.15 1.47 4.57 1.47 2.91 3.17 5.71 4.75 8.57 0.29 0.52 0.46 1.11 0.68 1.67-0.09 0.05-0.18 0.11-0.27 0.16-0.17-0.1-0.42-0.15-0.51-0.29-2.15-3.78-4.3-7.57-6.39-11.38-0.42-0.77-0.69-1.68-0.83-2.55-0.2-1.22-0.25-2.32 1.17-3.17 1.62-0.97 2.27-2.65 1.77-4.61-0.12-0.47-0.22-0.95-0.29-1.43-0.18-1.17 0.31-1.86 1.31-2.57 1.53-1.11 2.8-2.56 4.2-3.85 0.28-0.26 0.63-0.45 0.94-0.68 0.09 0.4 0.28 0.81 0.25 1.21-0.04 0.51-0.26 1-0.19 1.66 0.48-0.58 0.93-1.18 1.45-1.72 0.26-0.28 0.75-0.72 0.92-0.64 0.92 0.46 1.23-0.22 1.57-0.76 1.07-1.73 2.1-3.49 3.15-5.24-0.1-0.08-0.21-0.16-0.31-0.25-1.83 0.91-3.63 1.88-5.49 2.73-3.24 1.48-6.49 2.96-9.8 4.27-1.17 0.46-2.53 0.43-3.8 0.63-0.05-0.14-0.11-0.28-0.16-0.42 0.25-0.2 0.47-0.47 0.76-0.6 1.94-0.88 3.92-1.7 5.85-2.61 5.43-2.58 11.02-4.86 15.83-8.56 3.16-2.43 6.33-4.82 8.82-8.01 1.53-1.95 2.5-4.09 2.93-6.5 0.08-0.44 0.14-0.89 0.27-1.33 0.42-1.44 1.22-1.85 2.64-1.4 0.21 0.06 0.42 0.11 0.82 0.2-0.1-0.66-0.29-1.2-0.24-1.72 0.06-0.57 0.18-1.3 0.57-1.62 0.23-0.19 1.02 0.24 1.53 0.45 0.25 0.1 0.44 0.34 0.87 0.69 0-0.63 0.03-1.02 0-1.4-0.16-1.84 0.54-2.36 2.26-1.63 0.48 0.2 0.97 0.42 1.43 0.66 0.73 0.38 1 0.13 1.09-0.64 0.5-4.38-0.16-8.6-1.61-12.74-1.28-3.64-2.88-7.11-4.88-10.38-2.1-3.44-2.3-6.91-0.87-10.67 0.87-2.29 1.44-4.73 1.87-7.15 0.23-1.32-0.08-2.75-0.23-4.13-0.02-0.2-0.54-0.48-0.83-0.48-6.65-0.02-13.3 0.03-19.95-0.03-2.14-0.02-4.28-0.27-6.37 0.43-0.16 0.05-0.37 0-0.55-0.04-0.1-0.02-0.17-0.13-0.52-0.41 0.9-0.48 1.64-1.11 2.48-1.28 2.68-0.55 5.38-1.16 8.09-1.33 4.12-0.26 8.26-0.14 12.4-0.23 6.31-0.13 12.63-0.57 18.93-0.4 9.19 0.26 18.37 0.93 27.56 1.45 3.04 0.17 6.07 0.4 9.1 0.6 0.87 0.06 1.55-1.09 1.44-2.06-0.23-1.93-0.33-3.87-0.45-5.81-0.02-0.33 0.09-0.67 0.19-0.99 0.42-1.41 1.57-1.74 2.67-0.75 0.29 0.26 0.45 0.67 0.67 1.01 0.11-0.08 0.21-0.16 0.32-0.24 0.22-1.2 0.27-2.46 0.7-3.57 0.8-2.05 1.66-4.1 2.79-5.98 1.17-1.94 2.74-1.7 3.65 0.37 0.39 0.88 0.78 1.75 1.3 2.9 0.39-1.16 0.57-2.04 0.98-2.81 0.39-0.74 0.93-1.46 1.57-2 0.35-0.29 1.17-0.42 1.51-0.2 0.32 0.21 0.54 1.09 0.36 1.46-0.86 1.73-1.86 3.4-2.84 5.07-0.2 0.35-0.56 0.61-0.78 0.95-0.88 1.34-2.13 1.38-3.03 0.03-0.45-0.68-0.84-1.4-1.45-2.44-0.47 1.35-0.96 2.4-1.18 3.49-0.28 1.39-0.34 2.82-0.49 4.24-0.05 0.45-0.01 0.91-0.09 1.35-0.28 1.53-1.49 1.97-2.61 0.9-0.64-0.61-1.14-1.36-1.7-2.04-0.14 0.1-0.27 0.19-0.41 0.29 0 1.51-0.04 3.02 0.02 4.53 0.04 0.93 0.3 1.86 0.33 2.79 0.01 0.38-0.21 0.96-0.51 1.12-1.19 0.63-2.4 1.4-3.69 1.62s-2.68-0.15-4.02-0.25c-4.08-0.33-8.16-0.66-12.24-0.98-1.5-0.12-3-0.21-4.5-0.29-1.14-0.06-1.36 0.13-0.97 1.31 0.71 2.14 1.49 4.25 2.39 6.31 0.98 2.23 2.13 4.39 3.2 6.58 0.11 0.24 0.2 0.48 0.29 0.73 0.81 2.35 0.5 2.81-1.99 2.97-0.18 0.01-0.35 0.08-0.62 0.14 0.14 0.4 0.28 0.74 0.37 1.08 0.21 0.77 0.04 1.4-0.85 1.5-0.65 0.07-0.81 0.41-0.81 0.97-0.01 1.09-0.58 1.83-1.35 2.59-0.64 0.64-1.22 1.61-1.29 2.48-0.38 4.75-0.59 9.51-0.85 14.27-0.01 0.14 0.04 0.28 0.06 0.41 1.73 0.34 1.91 0.67 1.19 2.36-0.34 0.8-0.62 1.42 0.5 1.87 0.35 0.14 0.71 0.87 0.66 1.29-0.56 5.07 2.08 9.14 4.2 13.33 2.62 5.2 6.25 9.77 10.17 14 2.94 3.17 6.57 5.69 9.9 8.49 0.14 0.12 0.33 0.2 0.5 0.24 1.72 0.38 3.45 0.75 5.17 1.12 0.86 0.19 1.45-0.17 2.11-0.73 1.81-1.56 3.72-3.01 5.59-4.5 0.1 0.09 0.2 0.18 0.31 0.26-0.71 0.99-1.34 2.04-2.15 2.94-1.02 1.14-2.18 2.16-3.31 3.21-0.23 0.22-0.57 0.42-0.88 0.45-2.65 0.25-5.24-0.42-7.55-1.45-2.03-0.9-3.7-2.66-5.47-4.12-1.45-1.2-2.8-2.51-4.19-3.76-0.15-0.13-0.33-0.23-0.71-0.2 0.59 1.23 1.14 2.48 1.79 3.68 1.06 1.94 2.21 3.85 3.3 5.77 1.02 1.8 1.35 3.73 0.93 5.77-0.16 0.75-0.18 1.29 0.86 1.39 0.78 0.08 1.21 0.81 0.97 1.51-0.42 1.19-0.36 2.12 0.52 3.12 0.51 0.57 0.64 1.47 0.94 2.19 0.2-0.03 0.3-0.01 0.35-0.06 1.82-1.69 2.21-1.77 4.44-0.66 0.9 0.45 1.77 0.99 2.61 1.56s0.84 1.02 0.05 1.66c-0.87 0.7-1.83 1-2.94 0.62-0.55-0.19-1.36-0.58-1.64-0.36-0.68 0.53-1.5 1.34-1.58 2.1-0.2 1.89-1.21 3.38-1.96 5-1.95 4.18-3.82 8.42-6.06 12.46-1.41 2.54-3.44 4.73-5.12 7.13-2.61 3.72-5.25 7.42-6.82 11.75-0.29 0.79-0.71 1.53-0.91 2.4 3.45-3.18 7.35-5.53 11.57-7.33 4.28-1.82 8.89-1.99 13.74-2.01-0.31-0.69-0.53-1.06-0.64-1.46s-0.32-0.99-0.13-1.22c0.24-0.31 0.82-0.47 1.26-0.47 0.65 0 1.31 0.19 2.27 0.35-0.33-0.79-0.54-1.36-0.8-1.91-0.58-1.21-0.28-1.69 1.09-1.77 2.02-0.12 4.04-0.29 6.07-0.44 2.35-0.17 4.46-1.05 6.43-2.26 3.65-2.24 7.33-4.44 10.86-6.86 2.5-1.71 4.78-3.76 7.16-5.65 0.49-0.39 1.01-0.76 1.48-1.39-0.82 0-1.65 0.05-2.47-0.02-0.43-0.04-0.85-0.28-1.27-0.43 0.36-0.3 0.69-0.78 1.1-0.87 3.89-0.83 7.08-2.81 9.73-5.72 0.2-0.22 0.36-0.47 0.61-0.8-0.59-0.28-1.13-0.5-1.63-0.78-1.68-0.96-2.53-2.4-2.46-4.36 0.08-2.37 1.83-4.73 4.1-5.65 0.3-0.12 0.57-0.76 0.54-1.14-0.11-1.41-0.36-2.8-0.6-4.58 0.45 0.47 0.79 0.67 0.92 0.97 0.94 2.19 1.3 4.47 0.68 6.81-0.14 0.52-0.53 0.98-0.82 1.45-0.28 0.44-0.65 0.84-0.86 1.31-0.6 1.34-0.05 2.24 1.43 2.26 0.78 0.01 1.57-0.1 2.34-0.27 1.59-0.35 2.79 0.77 2.47 2.36-0.76 3.73-1.93 7.26-4.7 10.05-0.04 0.04-0.03 0.14-0.1 0.43 0.48-0.22 0.84-0.44 1.23-0.53 0.44-0.09 1.06-0.24 1.31-0.02s0.3 0.91 0.17 1.29c-0.79 2.22-1.67 4.4-2.49 6.61-1.28 3.44-3.62 6.01-6.54 8.12-0.17 0.12-0.32 0.27-0.44 0.73 0.84 0.06 1.68 0.11 2.67 0.18-0.68 2.45-0.68 5.25-2.81 7.25-0.9 0.84-1.05 1.45-0.41 2.66 0.71 1.35 0.92 2.99 1.23 4.53 0.28 1.41 0.99 2.47 2.03 3.41 1.51 1.35 3.05 2.68 4.44 4.14 2.68 2.83 4.1 6.3 5.09 10.03 1.95 7.29 1.74 14.56 0.18 21.87-0.94 4.42-2.21 8.73-3.85 12.94-0.27 0.7-0.36 1.7-0.07 2.35 1.59 3.54 1.88 7.24 1.65 11.04-0.26 4.2-0.62 8.39-1.66 12.49-0.52 2.02-1.14 3.96-2.49 5.61-0.29 0.35-0.52 0.87-0.53 1.31-0.05 5.46-0.63 10.87-1.5 16.24-0.24 1.48-1.04 2.86-1.55 4.29-0.36 1.01-0.79 2.01-0.97 3.05-0.72 4.02-1.35 8.06-2.03 12.09-0.14 0.83-0.57 1.67 0.81 1.97 0.34 0.08 0.73 0.98 0.71 1.49-0.07 1.61-0.38 3.2-0.49 4.81-0.05 0.79 0.18 1.59 0.24 2.39 0.06 0.69 0.17 1.41 0.06 2.08-0.11 0.69-0.58 1.33-0.68 2.02-0.12 0.89-0.12 1.82 0 2.71 0.09 0.65 0.5 1.25 0.67 1.91 0.15 0.57 0.4 1.32 0.16 1.75-0.77 1.38-0.17 2.64 0.13 3.91 0.52 2.2 0.67 4.37 0.01 6.56-0.11 0.35-0.1 0.75-0.09 1.12 0.1 4.15-0.29 8.25-0.99 12.34-0.28 1.65-0.24 3.37-0.26 5.06-0.1 9.09-0.34 18.19-0.19 27.28 0.13 8.09 1.12 16.11 3.06 23.99 0.86 3.5 1.76 6.99 2.63 10.49 0.41 1.66 1.53 2.78 2.8 3.84 1.7 1.41 3.31 2.93 5 4.34 0.39 0.33 0.97 0.51 1.49 0.61 1.54 0.31 3.15 0.37 4.63 0.85 3.37 1.1 6.29 5.4 6.46 9 0.12 2.42 0.5 4.83 0.64 7.26 0.08 1.41 0.09 2.88-0.22 4.24-0.48 2.1-2.54 2.88-4.41 1.84-0.62-0.35-0.93-0.26-1.21 0.38-0.72 1.65-1.56 3.17-2.93 4.47-1.16 1.1-1.96 2.61-2.79 4.02-0.87 1.47-0.98 1.54-2.65 1.4-0.74-0.06-1.52 0.25-2.27 0.22-0.66-0.02-1.32-0.25-1.98-0.43-0.55-0.15-1.11-0.56-1.63-0.51-2.79 0.26-5.4-0.17-7.73-1.81-0.61-0.43-1.05-0.49-1.6 0.18-0.78 0.95-1.96 0.98-3.01 0.12-0.56-0.46-1.06-0.41-1.73-0.41-3.26 0.02-6.44-0.37-9.07-2.62-0.34-0.29-0.72-0.57-1.13-0.71-5.33-1.89-10.07-4.85-14.63-8.1-0.93-0.66-1.7-1.6-2.38-2.53-1.13-1.52-1.12-2.84-0.1-4.29 0.14 0.18 0.3 0.34 0.39 0.52 1.82 3.36 4.68 5.31 8.27 6.5 2.08 0.69 4.01 1.85 5.96 2.91 1.62 0.87 3.07 2.09 4.75 2.79 2.01 0.85 4.17 1.42 6.31 1.9 0.49 0.11 1.23-0.55 1.76-0.98 0.61-0.48 0.93-0.48 1.25 0.28 0.26 0.64 0.65 1.22 0.98 1.83 0.15-0.04 0.29-0.08 0.44-0.12-0.1-0.68-0.24-1.35-0.29-2.03-0.05-0.79-0.03-1.58 0-2.37 0.02-0.6 0.15-1.19 0.15-1.79 0.02-1.9 0.01-3.79 0.01-5.74 1.97 2.31 4.3 4.42 3.64 7.98-0.15 0.8 0.04 1.66-0.04 2.47-0.06 0.54-0.31 1.06-0.52 1.57-0.25 0.61-0.25 1.23 0.49 1.34 2.22 0.32 4.46 0.54 6.69 0.79 0.09 0.01 0.19-0.09 0.41-0.19-0.41-0.56-0.8-1.09-1.18-1.63-0.43-0.61-0.29-1.06 0.42-1.3 0.39-0.13 0.81-0.39 1.18-0.32 0.39 0.07 0.95 0.37 1.04 0.69 0.59 1.96 0.55 1.97 2.47 3.26 0-1.4 0.15-2.66-0.05-3.86-0.18-1.07-0.75-2.07-1.15-3.11-0.11-0.28-0.28-0.55-0.29-0.84-0.14-3.03-1.32-5.67-3.02-8.12-0.11-0.16-0.17-0.37-0.38-0.86 0.51 0.24 0.79 0.31 0.98 0.47 1.22 1 2.4 2.04 3.65 3.01 1.31 1.02 1.97 2.32 1.62 3.94-0.45 2.1 0.37 3.98 0.8 5.94 0.16 0.73 0.22 1.47 0.35 2.2 0.05 0.28 0.16 0.55 0.28 0.96 1.3-0.77 1.4-2 1.64-3.12 0.18-0.84 0.19-1.72 0.31-2.57 0.05-0.33 0.11-0.73 0.33-0.93 0.33-0.32 0.79-0.49 1.2-0.73 0.17 0.39 0.39 0.76 0.48 1.16 0.08 0.37 0.02 0.78 0.21 1.17 1.8-4.53 3.19-9.05 0.2-13.72 1.65 0.63 2.81 1.74 4 2.96 1.3 1.33 1.6 2.88 1.79 4.57 0.1-0.02 0.2-0.03 0.3-0.05 0.08-1.23 0.24-2.46 0.21-3.68-0.04-1.44-0.18-2.88-0.38-4.31-0.32-2.35-0.88-4.65-2.84-6.23-0.68-0.55-1.58-0.82-2.4-1.17-0.86-0.36-1.84-0.52-2.61-1.02-2.97-1.9-5.9-3.85-8.78-5.87-2.13-1.49-3.25-3.69-3.84-6.18-1.15-4.86-2.54-9.68-3.4-14.59-0.94-5.35-1.74-10.78-1.98-16.2-0.37-8.48-0.24-16.98-0.27-25.48-0.02-5.74 0.81-11.38 2.14-16.95 0.26-1.09 0.41-2.21 0.52-3.33 0.03-0.34-0.26-0.72-0.41-1.08-0.04-0.09-0.15-0.17-0.16-0.26-0.13-1.25-0.39-2.51-0.34-3.76 0.1-2.54-0.53-4.91-1.35-7.26-0.34-0.99-0.59-1.9 0.03-2.91 0.2-0.33 0.09-0.95-0.06-1.36-0.47-1.27-0.73-2.5-0.31-3.85 0.11-0.37 0.02-0.92-0.18-1.26-0.65-1.06-0.39-1.94 0.2-2.93 0.94-1.57 1.75-3.22 2.59-4.84 0.09-0.17 0.08-0.4-0.05-0.68-0.2 0.24-0.37 0.55-0.62 0.71-0.34 0.21-0.85 0.53-1.11 0.41-0.31-0.14-0.54-0.67-0.6-1.07-0.07-0.47 0.04-0.98 0.17-1.45 1.12-3.99 0.65-8.14 1.29-12.18 0.03-0.2-0.06-0.43-0.1-0.71-0.23 0.04-0.43 0.02-0.56 0.1-4.73 2.88-9.92 4.67-15.13 6.37-6.31 2.07-12.69 3.92-19.06 5.81-2.08 0.62-4.22 1.06-6.34 1.58-0.69 0.17-0.9 0.58-1.09 1.31-0.33 1.33-0.9 2.62-1.56 3.83-1.57 2.86-3.25 5.66-4.88 8.5-0.86 1.49-1.91 2.8-3.47 3.6-0.33 0.17-0.7 0.3-1.06 0.34-0.58 0.06-0.97-0.09-0.7-0.84 0.1-0.28-0.01-0.64-0.02-0.97-0.24 0.19-0.52 0.36-0.72 0.59-1.33 1.53-2.55 3.16-4 4.57-0.83 0.81-1.96 1.4-3.05 1.83-0.6 0.24-1.56 0.18-2.07-0.16-0.7-0.48-0.79-1.4-0.33-2.25 0.05-0.09 0.05-0.21-0.09-0.49-0.33 0.34-0.66 0.67-0.99 1.01-1.89 1.98-3.75 3.98-5.68 5.91-0.49 0.48-1.2 0.8-1.86 1.02-0.48 0.16-1.06 0.03-1.68 0.03 2.95-3.65 5.74-7.12 8.55-10.57 0.5-0.61 0.98-1.27 1.6-1.73 0.41-0.3 1.06-0.27 1.6-0.39 0.07 0.55 0.29 1.14 0.17 1.64-0.29 1.19-0.79 2.32-1.11 3.5-0.1 0.36 0.1 0.81 0.16 1.21 0.2 0.12 0.4 0.25 0.6 0.37 0.23-0.43 0.4-0.92 0.72-1.28 1.65-1.9 3.32-3.79 5.01-5.65 0.53-0.58 1.11-1.14 1.74-1.59 0.31-0.22 0.92-0.37 1.2-0.21 0.29 0.16 0.39 0.73 0.49 1.13 0.07 0.3 0.01 0.63 0.27 1.09 0.29-0.28 0.68-0.52 0.85-0.86 1.3-2.57 2.56-5.17 3.82-7.76 0.35-0.72 0.64-1.48 1.08-2.51-0.57 0.24-0.84 0.32-1.08 0.45-5.13 2.7-10.44 5.04-15.99 6.7-3.14 0.94-6.46 1.38-9.73 1.8-5.2 0.67-10.44 0.61-15.62-0.2-4.19-0.66-8.34-1.58-12.47-2.51-4.36-0.98-8.72-1.98-13.02-3.19-3.1-0.87-6.04-2.33-9.16-3.12-3.85-0.98-7.78-1.65-11.71-2.25-5.94-0.91-11.58-2.64-16.61-5.97-3.69-2.44-7.15-5.25-10.84-7.69-3.6-2.38-7.24-4.74-11.09-6.66-5.77-2.89-10.57-6.81-14.54-11.86-2.23-2.83-4.63-5.53-6.96-8.28-0.07-0.08-0.18-0.12-0.54-0.33 0.16 0.57 0.21 0.94 0.36 1.27 3.52 7.53 5.34 15.55 6.69 23.68 1.21 7.3 1.57 14.65 0.04 21.97-0.68 3.23-1.55 6.43-2.22 9.66-0.74 3.56-1.35 7.16-2.04 10.73-0.14 0.74-0.27 1.5-0.58 2.17-0.25 0.55-0.7 1.27-1.19 1.4-1.36 0.36-1.36 1.25-1.3 2.31 0.36 6.11 0.61 12.23 1.08 18.34 0.42 5.38 1.08 10.75 1.63 16.12 0.11 1.09-0.99 2.93-1.98 3.27-0.82 0.29-2.41-0.84-2.76-2.04-0.22-0.75-0.33-1.54-0.43-2.32-0.45-3.5-0.93-7-1.29-10.51-0.54-5.23-1.04-10.46-1.45-15.7-0.32-4.19-0.46-8.4-0.72-12.6-0.09-1.42-0.11-2.89-0.51-4.23-0.37-1.25-1.21-2.36-2.06-3.42 0 1.69-0.09 3.38 0.02 5.07 0.32 5.07 1.07 10.07 2.12 15.05 0.4 1.91 0.11 3.97 0.22 5.95 0.04 0.68 0.32 1.35 0.51 2.02 0.14 0.46 0.43 0.91 0.45 1.37 0.08 1.82-0.03 3.66 0.16 5.47 0.15 1.39 0.73 2.73 0.95 4.12 0.28 1.68 0.47 3.39 0.52 5.09 0.03 0.81-1.4 1.84-2.19 1.84-0.9 0-1.88-0.77-2.12-1.89-0.45-2.09-0.8-4.2-1.17-6.31-0.12-0.69-0.2-1.38-0.3-2.06-0.2 0.02-0.28 0-0.34 0.03-0.52 0.28-1.27 0.93-1.51 0.78-0.48-0.3-0.81-1.01-0.97-1.62-1.78-6.61-2.08-13.42-2.79-20.18-0.71-6.72-1.41-13.45-2.1-20.17-0.16-1.61-0.23-3.22-0.37-4.83-0.09-1.03-0.56-1.83-1.73-2.55 0.09 1.02 0.11 1.81 0.22 2.59 0.74 5.09 1.62 10.17 2.22 15.28 0.65 5.52 1.04 11.07 1.55 16.6 0.1 1.12 0.36 2.25 0.32 3.36-0.04 1.33-0.24 2.67-0.54 3.97-0.09 0.38-0.73 0.89-1.1 0.89-0.38-0.01-0.98-0.51-1.1-0.91-0.48-1.65-0.89-3.34-1.18-5.03-0.92-5.25-1.81-10.51-2.66-15.77-0.79-4.86-1.65-9.7-1.65-14.65 0-3.53-0.24-7.06-0.45-10.58-0.03-0.5-0.45-1.09-0.86-1.44-0.58-0.5-1.32-0.81-2.21-1.33 0 0.78-0.04 1.35 0.01 1.92 0.5 5.95 0.96 11.91 1.52 17.85 0.49 5.2 1.11 10.38 1.65 15.58 0.23 2.2 0.4 4.41 0.6 6.62 0.12 1.36-0.77 2.18-1.69 2.87-0.68 0.51-1.01-0.15-1.13-0.74-0.3-1.47-0.61-2.94-0.81-4.43-0.86-6.4-1.7-12.8-2.51-19.2-0.55-4.36-1.13-8.72-1.52-13.09-0.31-3.4-0.4-6.82-0.48-10.23-0.04-1.56-1.39-2.1-2.05-3.42-0.33 6.83-0.64 13.38-0.95 19.92 0.17 0.01 0.33 0.03 0.5 0.04 0.29-2.87 0.59-5.75 0.88-8.62 0.11-0.03 0.21-0.05 0.32-0.08 0.14 0.48 0.4 0.97 0.39 1.45-0.06 5.05 0.6 10.03 1.17 15.04 0.45 3.94 0.34 7.89-1.04 11.68-0.13 0.35-0.6 0.89-0.82 0.85-0.8-0.15-1.84 0.07-2.25-0.94-0.18-0.44-0.21-0.94-0.27-1.42-0.21-1.6-0.41-3.21-0.66-5.12-0.23 1.24-0.41 2.21-0.59 3.18-0.13 0.01-0.27 0.02-0.4 0.03-0.18-0.73-0.48-1.46-0.5-2.2-0.04-1.42 0.11-2.85 0.11-4.28 0-0.68-0.15-1.35-0.24-2.03-0.14 0-0.28 0-0.42 0.01-0.05 0.4-0.16 0.8-0.14 1.2 0.22 3.71 0.55 7.42 0.69 11.13 0.15 3.94 0.14 7.88 0.2 11.82 0.04 2.7 0.16 5.41 0.12 8.11-0.02 1.67-0.22 3.35-0.45 5.01-0.05 0.35-0.62 0.62-0.95 0.93-0.25-0.37-0.69-0.73-0.72-1.12-0.36-3.89-0.69-7.78-0.95-11.68-0.39-5.7-0.71-11.4-1.07-17.1-0.17-2.66-0.36-5.32-0.55-7.98-0.03-0.37 0.02-0.85-0.18-1.09-1.22-1.47-0.96-3.16-0.82-4.85 0.01-0.06-0.06-0.13-0.11-0.27-0.86-0.05-0.89 0.56-0.89 1.16 0.01 2.37 0.03 4.74 0.08 7.1 0.12 5.6 0.18 11.2 0.41 16.79 0.16 3.86 0.57 7.71 0.83 11.56 0.03 0.42-0.23 1.22-0.43 1.24-1.19 0.16-0.88 0.99-0.9 1.69 0 0.11 0.01 0.23 0.02 0.34 0.08 0.69 0.43 1.63-0.6 1.73-1.05 0.11-1.14-0.89-1.23-1.68-1.08-9.6-1.53-19.25-1.87-28.9-0.09-2.63-0.48-5.25-0.74-7.91-1.31 0.04-1.54 0.77-1.56 1.53-0.05 2.55-0.12 5.11-0.04 7.66 0.14 4.47 0.32 8.94 0.6 13.4 0.17 2.81 0.54 5.6 0.82 8.41 0.06 0.56 0.14 1.12 0.13 1.68-0.14 5.02-0.29 10.04-0.44 15.06-0.01 0.19 0.05 0.43-0.04 0.55-0.28 0.38-0.62 0.71-0.94 1.06-0.31-0.36-0.84-0.7-0.88-1.09-0.22-1.97-0.28-3.97-0.45-5.95-0.49-5.84-1.09-11.67-1.47-17.52-0.25-3.86-0.16-7.74-0.3-11.61-0.03-0.82-0.4-1.63-0.6-2.45-0.33-1.38-0.68-2.75-0.97-4.14-0.1-0.46-0.06-0.95-0.08-1.46-1.44 0.57-2.01 1.3-1.92 2.61 0.29 3.97 0.63 7.94 0.93 11.91 0.22 2.99 0.21 6.02 0.65 8.98 1.19 7.94 0.23 15.92 0.67 23.87 0.04 0.74-0.03 1.56-0.99 1.61-1.03 0.05-1.29-0.77-1.35-1.61-0.19-2.62-0.27-5.26-0.55-7.87-0.44-4.07-1.03-8.12-1.53-12.18-0.79-6.41-1.54-12.83-2.34-19.23-0.11-0.85-0.39-1.68-0.69-2.48-0.08-0.21-0.59-0.44-0.82-0.37-0.49 0.14-0.96 0.43-1.38 0.75-0.18 0.13-0.31 0.48-0.28 0.71 0.41 3.88 1.05 7.74 1.25 11.63 0.33 6.3 0.36 12.62 0.55 18.93 0.08 2.74 0.27 5.48 0.38 8.22 0.06 1.35-0.72 2.07-2.27 2.17-0.88 0.06-1.37-0.52-1.59-1.82-0.5-2.94-0.5-5.87-0.34-8.86 0.15-2.67-0.4-5.38-0.61-8.08-0.38-5.02-0.72-10.04-1.12-15.06-0.04-0.47-0.34-0.94-0.6-1.36-0.44-0.72-0.94-1.41-1.42-2.12-2.66 0.56-4.53 2.86-4.77 5.97 0.37-0.02 0.74-0.07 1.1-0.06 1.08 0.02 1.94 0.97 1.57 1.97-0.92 2.53-0.31 5.05-0.23 7.59 0.21 7.02 0.37 14.05 0.53 21.07 0.02 0.89-0.29 1.73-1.29 1.83-1.03 0.1-1.36-0.73-1.56-1.59-1.03-4.27-1.27-8.59-1.22-12.97 0.05-4.72-0.22-9.45-0.4-14.18-0.01-0.39-0.28-0.85-0.56-1.15-1.22-1.34-1.44-2.48-0.48-3.96 0.61-0.94 0.67-1.78 0.15-2.73-2.59-4.74-2.92-9.93-3.18-15.18-0.35-7.09-0.78-14.18-1.42-21.25-0.35-3.84-1.23-7.63-1.81-11.46-0.95-6.26-1.46-12.55-0.87-18.87 0.43-4.6 0.96-9.19 1.62-13.75 0.6-4.18 1.85-8.2 3.49-12.1 0.08-0.2 0.14-0.41 0.03-0.74-0.73 0.91-1.42 1.85-2.2 2.72-3.38 3.78-6.75 7.56-10.17 11.31-5.45 5.97-10.07 12.53-14.06 19.54-0.05 0.09-0.05 0.21-0.12 0.54 0.47-0.15 0.82-0.34 1.17-0.35 0.55-0.02 1.32-0.1 1.61 0.21s0.28 1.13 0.1 1.62c-1.23 3.26-2.62 6.46-3.77 9.75-0.51 1.47-0.62 3.08-0.87 4.64-0.06 0.34 0.03 0.71 0.06 1.22 0.38-0.19 0.59-0.31 0.82-0.41 0.79-0.33 1.36 0.02 1.33 0.89-0.03 0.59-0.16 1.19-0.32 1.77-2.25 8.25-3.01 16.58-1.99 25.11 0.92 7.59 3.51 14.65 6.31 21.68 3.12 7.84 7.42 15 12.33 21.83 0.74 1.03 1.41 2.14 1.96 3.28 0.8 1.66 1.95 2.92 3.58 3.76 0.4 0.21 0.8 0.43 1.16 0.7 1.19 0.89 1.26 2 0.2 3.04-0.16 0.15-0.38 0.24-0.47 0.29 0.07 0.29 0.06 0.41 0.1 0.43 2.21 1.13 4.35 2.47 6.67 3.31 2.06 0.75 4.31 0.95 6.48 1.39 4.12 0.83 8.23 1.74 12.37 2.46 6.95 1.21 13.92 2.35 20.9 3.39 1.61 0.24 3.29-0.06 4.94-0.12 0.22-0.01 0.46-0.09 0.67-0.06 2.78 0.44 5.53 0.27 8.26-0.33 0.12-0.03 0.27 0.06 0.78 0.18-0.67 0.35-1.08 0.57-1.48 0.78-0.01 0.07-0.02 0.14-0.03 0.2 0.32 0 0.64 0.03 0.96 0 7.36-0.83 14.72-1.55 22.15-1.25 2.93 0.12 5.86-0.02 8.79-0.05 0.9-0.01 1.67 0.12 2.31 0.89 0.24 0.29 0.9 0.45 1.31 0.37 3.28-0.6 6.55-1.25 9.82-1.93 0.92-0.19 1.57 0.11 1.99 0.87 0.42 0.74 0.15 1.48-0.49 1.89-0.71 0.45-1.55 0.74-2.37 0.98-1.43 0.43-2.89 0.76-4.33 1.17-0.33 0.09-0.6 0.36-0.9 0.54 0.03 0.12 0.06 0.25 0.09 0.37 0.78-0.09 1.6-0.05 2.33-0.28 2.76-0.87 5.48-1.83 8.22-2.74 0.89-0.3 1.83-1.02 2.74-0.19 0.96 0.87 0.01 1.7-0.36 2.83 3.16-0.48 6.01-1.27 8.8-2.47-1.42 0.06-2.06-1.02-2.84-1.83-0.54-0.57-0.94-1.27-1.49-1.83-0.37-0.37-0.89-0.58-1.33-0.88-0.51-0.35-1.16-0.6-1.5-1.08-2.74-3.85-5.42-7.75-8.14-11.63-1.23-1.75-2.49-3.48-3.75-5.22-0.63-0.87-0.83-1.73-0.18-2.7 0.63-0.93 0.13-1.64-0.58-2.24-1.83-1.54-4.04-2.25-6.31-2.79-0.36-0.09-0.7-0.22-1.02-0.45 1.38-0.55 2.65-0.06 3.88 0.37 1.3 0.45 2.59 1.01 3.79 1.69 1.84 1.04 2.08 2.06 1.48 4.11-0.13 0.45 0.24 1.23 0.62 1.61 2.05 2.04 4.2 3.98 6.27 6.01 2.71 2.65 4.76 5.8 6.71 9.02 0.23 0.38 0.52 0.88 0.44 1.25-0.5 2.16 1.49 2.45 2.63 3.43-0.07-0.26-0.1-0.54-0.21-0.78-0.84-1.84-1.54-3.7-2.62-5.48-1.41-2.33-1.82-5.27-2.63-7.96-0.14-0.46-0.07-0.98-0.2-1.45-0.08-0.28-0.31-0.67-0.55-0.73-2.23-0.56-3.23-2.34-4.16-4.16-0.94-1.83-1.17-3.83-1.51-5.85-0.41-2.42-1.41-4.73-1.97-7.13-0.43-1.85-0.58-3.77-0.84-5.66-0.02-0.16 0.09-0.33 0.2-0.67 0.53 0.78 0.85 1.55 1.41 2.02 2.77 2.34 3.01 5.78 3.83 8.9 0.71 2.67 0.79 5.51 2.32 7.94 0.24 0.39 0.57 0.73 0.97 1.22 0.34-0.5 0.57-0.83 0.78-1.17 0.52-0.86 1.28-1.23 2.2-0.84 0.97 0.41 0.94 1.3 0.85 2.22-0.16 1.63-0.33 3.26-0.28 4.89 0.04 1.11 0.45 2.2 0.7 3.3 0.12 0 0.24 0 0.35-0.01 0.32-0.52 0.64-1.04 1.09-1.76 1.48 4.04 1.21 8.37 3.19 12.08 1.83-0.9 2.56-0.67 3.63 1.09 0.41 0.67 0.81 1.35 1.23 2.02 0.63 1.02 1.41 1.68 2.71 1.93 2.18 0.42 3.59 1.93 4.36 4.01 0.89 2.39 1.73 4.8 2.63 7.19 0.2 0.52 0.54 0.99 0.8 1.49 0.69 1.37 1.7 2.23 3.33 2.28 0.36 0.01 0.91 0.35 1.03 0.66 0.96 2.51 2.11 5 2.68 7.61 1.13 5.17 1.88 10.43 1.89 15.75 0 2.95 0.91 5.48 2.95 7.65 0.9 0.96 1.69 2 1.56 3.58-0.07 0.86 0.52 1.88 1.05 2.67 1.31 1.96 2.69 3.89 4.19 5.71 0.89 1.08 2.06 1.92 3.26 3.01 0.15-0.55 0.22-0.81 0.35-1.31 0.47 0.38 0.91 0.64 1.22 1.01 0.35 0.43 0.49 1.05 0.88 1.42 0.5 0.48 1.15 1.1 1.75 1.12 0.93 0.03 0.52-0.99 0.63-1.54 0.27-1.26 0.19-2.44-0.79-3.5-0.54-0.58-0.78-1.44-1.1-2.2-0.08-0.19 0.02-0.47 0.04-0.71 0.24 0.04 0.55 0 0.72 0.13 0.44 0.34 0.81 0.78 1.23 1.15 1.62 1.44 3.24 2.87 4.86 4.3 0.59 0.52 1.16 1.08 1.78 1.56 0.53 0.42 1.13 0.75 1.7 1.13l0.33-0.21c0-0.73-0.01-1.46 0-2.2 0.01-0.68 0.53-0.69 0.83-0.38 0.98 1.04 2.5 1.48 3.09 2.97 0.54 1.36 1.43 1.44 2.89 0.65-0.07-0.67-0.12-1.2-0.19-1.73-0.04-0.29-0.09-0.58-0.19-0.86-0.65-1.87-1.32-3.74-1.98-5.61-0.19-0.53-0.56-1.12 0.21-1.43 0.66-0.26 1.16 0.06 1.42 0.73 0.73 1.88 1.47 3.75 2.17 5.64 0.26 0.71 2.99 2.81 3.76 2.79 0.39-0.01 0.78-0.1 1.25-0.16-0.42-2.04-1.99-3.85-0.46-6.21 0.32 0.63 0.61 1.06 0.78 1.55 0.18 0.53 0.27 1.09 0.34 1.65 0.14 1.04 0.75 1.11 1.53 0.76 1.11-0.5 1.64-1.3 1.8-2.59 0.35-2.71-0.4-5.19-1.16-7.7-0.28-0.92-0.44-1.91-0.46-2.87-0.05-2.02-0.69-3.53-2.73-4.33-0.84-0.33-1.53-1.06-2.28-1.61 0.07-0.15 0.14-0.31 0.22-0.46 0.35 0.04 0.77-0.02 1.04 0.14 1.16 0.68 2.29 1.43 3.42 2.16 0.12 0.08 0.24 0.19 0.31 0.32 1.11 2.08 2.21 4.17 3.33 6.25 0.38 0.7 0.83 1.37 1.35 2.23 1.41-1.73 1.1-3.65 1.47-5.46 0.41 0.17 0.73 0.3 1.12 0.46 0.1-0.28 0.22-0.51 0.27-0.76 0.87-4.53 0.65-8.91-1.25-13.22-1.06-2.39-2.4-4.56-3.82-6.72-4.32-6.57-7.89-13.52-9.29-21.35-0.63-3.54-1.07-7.15-1.23-10.74-0.25-5.77-1.35-11.3-3.5-16.67-1.5-3.75-2.72-7.61-4.18-11.37-1.48-3.81-3.13-7.56-4.68-11.34-0.55-1.34-1.01-2.7-1.76-4.05-0.07 0.3-0.1 0.62-0.23 0.89-0.15 0.31-0.39 0.58-0.6 0.87-0.3-0.24-0.78-0.43-0.86-0.74-0.43-1.59-0.79-3.2-1.12-4.81-0.21-1.03-0.29-2.08-0.49-3.11-0.06-0.33-0.34-0.61-0.51-0.92-0.25 0.19-0.51 0.39-0.76 0.58-0.11 0.08-0.21 0.17-0.31 0.26l-0.12 0.26zm-97.42-127.51c-0.09 0.02-0.18 0.04-0.28 0.06-0.04 0.24-0.11 0.48-0.1 0.72 0.2 5.25 0.33 10.51 0.66 15.75 0.13 2.11 0.29 4.4 1.2 6.24 1.85 3.72 4.01 7.33 6.42 10.71 2.48 3.48 5.43 6.61 8.12 9.94 3.92 4.85 7.75 9.76 11.7 14.58 2.47 3.02 4.79 6.24 8.18 8.33 2.65 1.63 5.4 3.1 8.16 4.54 5.46 2.85 10.34 6.55 15.17 10.32 6.65 5.18 14.15 8.03 22.51 8.95 3.19 0.35 6.36 1.13 9.46 1.98 3.11 0.85 6.1 2.12 9.19 3.04 2.88 0.85 5.82 1.49 8.73 2.21 5.94 1.47 11.87 2.95 17.97 3.67 5.65 0.67 11.24 0.37 16.84-0.44 3.56-0.52 6.92-1.66 10.26-2.95 6.3-2.44 12.53-5.07 17.59-9.64 4.35-3.92 8.59-8.01 12.41-12.43 5.92-6.85 11.43-14.04 16.41-21.63 3.38-5.15 7.15-10.04 10.57-15.16 4.65-6.95 8.56-14.27 11.39-22.2s4.93-15.92 4.52-24.42c-0.19-3.91-1.06-7.68-2.52-11.27-1.36-3.34-3.8-5.92-6.67-8.08-2.29-1.73-3.5-4.06-3.88-6.87-0.11-0.82-0.31-1.63-0.53-2.42-0.27-0.97-0.56-1-1.31-0.37-1.01 0.85-0.61 1.91-0.54 2.94 0.22 3.09 0.47 6.27-1.31 8.98-2.07 3.17-4.41 6.17-6.73 9.17-1.97 2.55-4.17 4.93-6.1 7.51-2.83 3.79-5.4 7.8-8.84 11.09-3.04 2.9-6.2 5.69-9.3 8.53-7.77 7.13-16.03 13.64-25.03 19.15-10.35 6.34-20.94 12.28-31.77 17.76-4.33 2.19-8.69 4.3-13.4 5.55-5.68 1.5-11.45 2.47-17.33 2.76-3.96 0.2-7.89 0-11.73-1.1-2.7-0.77-5.38-1.61-7.68-3.38 0.06 0.33 0.19 0.57 0.35 0.8 2.52 3.64 6.02 6.04 10.01 7.8 5.36 2.37 10.74 4.68 16.09 7.05 1.58 0.7 3.12 1.49 4.64 2.3 0.35 0.19 0.54 0.65 0.81 0.99-0.33 0.25-0.63 0.59-1 0.74-0.58 0.25-1.23 0.33-1.83 0.56-1.32 0.51-2.63 1.06-3.94 1.6 0.04 0.12 0.08 0.24 0.12 0.35 9.31 1.98 18.55 2.44 27.65-1.27-0.06 0.22-0.13 0.36-0.24 0.44-0.18 0.14-0.37 0.25-0.57 0.36-3.54 1.92-7.43 2.54-11.36 2.85-4.17 0.32-8.34 0.15-12.46-0.63-1.36-0.26-2.74-0.51-4.06-0.91-0.94-0.28-1.04-0.98-0.26-1.58 0.64-0.5 1.37-0.93 2.12-1.25 1.26-0.54 2.56-0.98 4.02-1.52-0.46-0.24-0.77-0.44-1.1-0.58-6.83-2.85-13.67-5.67-20.48-8.54-4.07-1.71-7.51-4.24-9.97-7.98-2.8-4.25-5.9-8.27-9.7-11.67-5.57-4.98-11.26-9.83-16.86-14.78-4.43-3.92-9.6-6.6-14.91-9.07 0.08 0.2 0.18 0.42 0.27 0.65-2.27-1.25-4.39-2.6-6.44-4.05-3.09-2.18-6.33-4.22-9.16-6.71-4.25-3.75-7.2-8.53-9.6-13.65-2.13-4.56-3.73-9.29-4.01-14.34-0.12-2.29 0.05-4.66 0.47-6.92 0.46-2.45 1.46-4.8 2.06-7.23 0.4-1.63 0.52-3.32 0.77-4.99-0.13-0.04-0.25-0.08-0.38-0.12-1.98 2.54-3.95 5.09-5.96 7.61-1.42 1.79-2.06 3.86-2.02 6.08 0.04 2.06 0.38 4.11 0.51 6.16 0.31 5.05 2.04 9.66 4.43 14.04 1.84 3.37 3.57 6.78 4.67 10.48 2.35 7.92 5.15 15.65 10.13 22.37 2.1 2.83 4.16 5.77 6.7 8.17 3.18 3.01 6.82 5.53 10.29 8.22 3.91 3.04 8.09 5.79 11.73 9.13 7.05 6.46 14.44 12.46 22.13 18.13 5.13 3.79 10.41 7.29 16.46 9.46 4 1.43 8.06 2.68 12.01 4.24 3.58 1.41 7.17 2.69 10.95 3.4 2.51 0.47 5.03 0.92 7.51 1.52 6.41 1.56 12.73 1.55 18.87-1.07 5.72-2.44 11.41-4.94 17.08-7.49 7.68-3.45 15.05-7.48 21.86-12.46 4.09-2.99 8.17-6.02 11.45-9.95 0.34-0.41 0.82-0.7 1.24-1.05-0.52 0.95-1.13 1.79-1.8 2.58-0.58 0.69-1.21 1.34-1.86 1.96-7.43 7.1-15.97 12.59-25.14 17.08-6.52 3.2-13.18 6.13-19.82 9.08-2.49 1.1-5.08 2.08-7.71 2.78-4.27 1.13-8.63 1.01-12.96 0.16-2.17-0.43-4.35-0.85-6.53-1.25-2.58-0.48-5.22-0.78-7.75-1.45-3.04-0.81-6.02-1.87-8.99-2.93-4.63-1.66-9.34-3.16-13.82-5.16-7.89-3.53-14.42-9.2-21.18-14.44-4.68-3.63-8.97-7.77-13.49-11.62-3.06-2.61-6.24-5.07-9.3-7.67-2.83-2.41-5.49-5.01-8.35-7.38-2.97-2.47-6.3-4.54-9.08-7.19-4.87-4.66-7.81-10.63-10.18-16.85-1.6-4.21-2.95-8.51-4.44-12.77-0.3-0.94-0.72-1.83-1.1-2.74zm-28.29 7.11c-0.25 0.19-0.47 0.31-0.63 0.49-2.99 3.23-6.52 5.78-10.23 8.08-2.8 1.74-5.51 3.64-8.69 4.71-1.52 0.51-2.74 1.56-3.5 3.04-1.75 3.41-3.49 6.82-5.25 10.22-2.19 4.24-3.77 8.7-4.57 13.39-0.72 4.21-1.26 8.46-1.77 12.7-0.93 7.76-0.19 15.44 1.1 23.11 0.7 4.14 1.4 8.31 1.73 12.49 0.69 8.61 1.11 17.24 1.69 25.86 0.12 1.77 0.93 3.33 1.79 4.8 0.97-0.56 1.82-1.04 2.65-1.53 1.06-0.63 2.23-1.13 3.13-1.94 1.76-1.57 3.7-2.83 5.83-3.79 2.96-1.34 5.42-3.3 7.56-5.75 1.17-1.34 2.51-2.63 3.99-3.6 2.09-1.38 4.35-2.5 6.59-3.64 1.23-0.63 2.55-1.09 3.83-1.61 0.96-0.39 1.93-0.75 2.91-1.13-0.57-1.69-0.5-3.17 0.06-4.74 0.49-1.38 1.05-2.81 0.62-4.38-0.53-1.9-0.97-3.82-1.45-5.74-0.06-0.25-0.09-0.52-0.11-0.78-0.17-2.09-0.32-4.19-0.51-6.28-0.04-0.44-0.29-0.86-0.34-1.29-0.25-2.11-0.57-4.23-0.62-6.35-0.02-0.71 0.7-1.44 1.12-2.14 0.64-1.05 1.54-2 1.94-3.14 1.33-3.79 2.6-7.6 3.64-11.47 0.43-1.61 0.77-3.37 0.08-5.1-0.38-0.96-0.77-2.02-0.75-3.03 0.11-5.71 0.31-11.42 0.53-17.12 0.22-5.55 1.07-11.07 0.66-16.65-0.09-1.24 0.15-2.57 0.54-3.76 1.06-3.28 2.87-6.19 4.95-8.93 1.26-1.67 2.18-3.39 2.43-5.58 0.22-1.92 0.68-3.93 2.22-5.43 0.19-0.19 0.2-0.69 0.13-1.02-0.51-2.27-1.09-4.52-1.59-6.79-0.29-1.28-0.7-1.55-1.87-0.94-1.56 0.81-2.95 1.9-3.69 3.52-1.07 2.36-1.74 4.91-2.96 7.17-2.05 3.79-4.17 7.58-6.67 11.08-2.98 4.17-5.64 8.42-6.95 13.42-0.56 2.14-1.07 4.3-1.62 6.44-0.51 1.95-1.14 3.87-1.56 5.83-1.24 5.88-2.2 11.82-3.66 17.65-1.64 6.55-3.67 13.01-5.59 19.49-1 3.39-2.79 6.12-6.4 7.31-2.08 0.69-4.11 1.49-6.35 1.3-1.58-0.13-2.14-0.8-2.05-2.34 0.07-1.09 0.1-2.18 0.23-3.26 0.24-2.01 0.42-4.04 0.86-6.01 1.1-4.9 2.33-9.77 3.52-14.65 0.06-0.24 0.22-0.46 0.33-0.69 0.18 0.7 0.26 1.35 0.17 1.96-0.51 3.48-1.17 6.94-1.56 10.44-0.4 3.54-0.54 7.12-0.81 10.67-0.07 0.96 0.26 1.39 1.22 1.09 1.43-0.43 2.86-0.87 4.27-1.37 1.75-0.62 2.9-1.87 3.47-3.61 1.43-4.35 3.05-8.66 4.18-13.09 2.14-8.41 3.99-16.89 5.94-25.34 0.41-1.75 1.08-3.54 1.01-5.29-0.15-3.76 0.83-7.22 2.09-10.65 0.73-2.11 1.77-4.14 2.74-6.31zm24.32-3.32-0.39 0.03c-0.06 0.47-0.13 0.95-0.17 1.42-0.27 2.99-0.35 6.01-0.83 8.97-1.02 6.29-2.25 12.55-3.38 18.83-0.5 2.8-1.07 5.6-1.43 8.43-0.31 2.45-0.36 4.94-0.56 7.41-0.43 5.27-1.69 10.38-3.33 15.38-0.87 2.66-1.87 5.36-3.32 7.73-1.01 1.65-1.66 3.17-1.27 5 0.15 0.73 0.57 1.71 1.16 2 2.29 1.13 3.58 3.05 4.59 5.22 1.49 3.2 3.69 5.84 6.35 8.09 2.87 2.43 5.73 4.83 7.8 8.05 1.49 2.32 3.59 4.09 5.79 5.78 1.45 1.12 2.56 2.68 3.79 4.08 0.54 0.62 0.87 1.47 1.5 1.94 1.57 1.16 2.58 2.68 3.49 4.34 0.32 0.59 0.98 1.01 1.48 1.5 0.11-0.05 0.23-0.1 0.34-0.16 0.12-0.68 0.19-1.38 0.39-2.05 0.4-1.35 0.7-2.77 1.35-4 0.7-1.33 0.94-2.64 0.88-4.1-0.05-1.18 0.01-2.39 0.22-3.55 0.54-2.95 1.41-5.86 1.76-8.83 0.81-6.96 0.12-13.88-1.21-20.73-0.83-4.28-1.74-8.54-2.57-12.81-0.7-3.64-1.33-7.3-2.01-10.95-0.07-0.39-0.21-0.82-0.44-1.14-1.02-1.4-2-2.83-3.14-4.12-4.71-5.33-9.13-10.85-12.73-17.03-2.02-3.46-3.66-6.97-3.66-11.08 0-3.64-0.09-7.29-0.17-10.93-0.02-0.9-0.18-1.81-0.28-2.72zm139.07-38.67c-0.14 0-0.29 0-0.43-0.01-0.09-0.23-0.23-0.46-0.25-0.69-0.26-2.57-0.48-5.14-0.75-7.71-0.2-1.97-0.42-3.95-0.67-5.92-0.33-2.6-0.74-5.19-1.01-7.79-0.09-0.86-0.33-1.22-1.22-1.13-4.11 0.43-8.21 0.85-12.33 1.24-0.96 0.09-1.14 0.42-0.89 1.37 1.34 5.19 1.69 10.42 0.72 15.73-0.53 2.88-1.07 5.77-1.29 8.68-0.18 2.41-0.13 4.89 0.25 7.28 0.35 2.2 1.23 4.32 1.94 6.45 2.21 6.61 8.05 10.86 15.02 10.8 2.39-0.02 4.79-0.34 7.16-0.69 2.33-0.34 4.39-1.22 5.6-3.49 0.65-1.22 1.49-2.34 2.28-3.49 2.94-4.28 3.7-9.02 2.55-13.98-0.9-3.86-2.12-7.64-3.36-11.41-1.72-5.26-2.47-10.67-2.72-16.16-0.04-0.82-0.32-1.17-1.08-1.43-1.41-0.49-2.77-1.13-4.16-1.69-0.26-0.1-0.57-0.19-0.84-0.16-1.54 0.18-3.07 0.54-4.6 0.56-2.17 0.03-2.41 0.18-2.19 2.35 0.01 0.15 0.04 0.3 0.06 0.45 0.49 3.29 1.04 6.58 1.46 9.88 0.38 3.05 0.64 6.11 0.91 9.17 0.05 0.61-0.1 1.2-0.16 1.79zm88.31 59.72c-0.31 0.46-0.48 0.64-0.58 0.86-2.36 5.57-5.66 10.61-8.96 15.62-3.63 5.52-7.58 10.84-11.32 16.29-6.84 9.96-14.07 19.58-22.74 28.05-0.16 0.15-0.24 0.39-0.5 0.82 0.8-0.18 1.35-0.26 1.87-0.42 4.56-1.37 9.17-2.62 13.67-4.18 5.21-1.81 10.33-3.87 15.48-5.85 3.66-1.41 5.97-4.32 6.83-7.87 0.99-4.08 1.13-8.38 1.63-12.58 0-0.04-0.1-0.09-0.2-0.18-4.66 3.5-9.06 7.29-13.06 11.94 3.19-0.3 5.45-1.99 7.9-3.32-0.07 0.48-0.25 0.77-0.48 1.03-1.32 1.43-2.63 2.88-4 4.27-1.75 1.78-3.89 2.84-6.39 2.93-1.72 0.06-2.86-1.52-2.33-3.16 0.27-0.84 0.68-1.69 1.21-2.39 2.96-3.92 6.57-7.21 10.25-10.43 2.06-1.8 4.28-3.46 6.14-5.45 1.49-1.59 3.05-3.42 3.69-5.43 1.99-6.16 2.32-12.6 2.21-19.05-0.01-0.41-0.17-0.82-0.32-1.5zm-70.04-108.21c1.62 0.3 4.71-0.99 5.17-2.24 0.53-1.47 0.93-3.07-0.04-4.56-1.02-1.57-2.08-3.13-3.17-4.65-1.72-2.38-3.98-3.72-7.02-3.47-0.59 0.05-1.2-0.02-1.8-0.06-5.1-0.39-10.19-0.73-15.29 0.09-2.39 0.39-4.73 0.89-6.77 2.28-1.13 0.77-1.78 1.8-2.12 3.18-0.44 1.79-0.15 3.51 0.09 5.25 0.17 1.27 1.4 2.61 2.49 2.76 1.23 0.18 1.74-0.2 2.53-1.87 0.6-1.25 2.72-2.75 3.74-2.47 1.55 0.43 3.07 1.01 4.79 1.59-0.76 0.1-1.33 0.18-2.07 0.27 0.29 0.38 0.45 0.61 0.63 0.82 1.04 1.21 1.11 2.54 0.36 3.87-1.19 2.1-2.99 3.39-5.44 3.44-1.38 0.03-2.77-0.22-4.27-0.35-0.01 0.95 0.47 1.91 1.38 2.63 3.07 2.43 6.3 4.61 9.99 6.04 1.65 0.64 1.87 0.51 1.95-1.26 0.21-4.39 0.4-8.77 0.65-13.16 0.04-0.64 0.38-1.26 0.58-1.89 0.19 0.01 0.37 0.01 0.56 0.02 0.22 0.78 0.62 1.57 0.64 2.36 0.07 2.74 0.04 5.49-0.03 8.23-0.04 1.46-0.35 2.91-0.34 4.36 0.01 1.96 1.21 2.64 3.03 1.87 0.34-0.15 0.68-0.33 1-0.52 1.48-0.89 3.01-1.72 4.42-2.7 1.65-1.16 3.25-2.41 4.78-3.73 0.33-0.28 0.27-1.01 0.39-1.53-0.45-0.03-0.91-0.09-1.36-0.07-0.25 0.01-0.49 0.17-0.74 0.27-2.11 0.79-5.06-0.21-6.27-2.13-1.15-1.82-0.77-4.45 0.95-6.09 1.43-1.37 3.21-1.72 5.02-1.03 0.8 0.3 1.44 1.15 2.04 1.85 0.73 0.87 0.04 1.71-0.45 2.6zm-139.99 203.06c0.13 0.83 0.28 1.44 0.3 2.05 0.12 2.92 0.07 5.86 0.32 8.77 0.36 4.07 0.95 8.13 1.42 12.19 0.59 5.11 1.16 10.22 1.74 15.33 0.1 0.86 0.21 1.72 0.39 2.56 0.05 0.23 0.36 0.41 0.56 0.62 0.15-0.26 0.35-0.51 0.45-0.79 0.06-0.16-0.04-0.37-0.05-0.55-0.47-6.02-1.74-11.95-1.74-18.04 0-5.28-0.81-10.57-0.85-15.85-0.02-2.54-1.19-4.25-2.54-6.29zm196.64-154.37c-4.81 3.23-8.57 10.31-9.13 17.43 4.7-5.13 9.33-9.94 9.13-17.43zm-222.24 65.2c2.47-8.52 3.43-17.24 3.98-26.02-0.92 2.06-1.84 4.1-2.54 6.21-0.46 1.4-0.8 2.89-0.87 4.36-0.18 3.74-0.15 7.5-0.25 11.25-0.03 1.41-0.21 2.8-0.32 4.2zm164.67-67.79c1.47-1.31 2.07-2.69 2.26-4.24 0.28-2.4-0.41-4.68-1.04-6.95-0.01-0.05-0.12-0.08-0.18-0.12-1.53 0.51-2.92 2.35-2.79 3.9 0.12 1.37 0.35 2.74 0.65 4.08 0.23 1.03 0.66 2.02 1.1 3.33zm-53.84-22.69c-0.2 1.61-0.12 2.99 0.62 4.27 0.56 0.96 1.18 1.87 1.73 2.83 0.33 0.57 0.56 0.69 1.07 0.14 0.52-0.56 1.12-1.12 1.8-1.45 0.64-0.32 1.09-0.59 1.04-1.37-0.05-0.85 0.14-1.83-0.85-2.26-1.7-0.73-3.45-1.38-5.41-2.16zm9 7.87c-0.59 0.09-1.19 0.16-1.77 0.27-1.41 0.27-1.66 0.67-1.54 2.07 0.15 1.66 0.96 2.97 2.02 4.16 0.61 0.68 1.33 0.66 1.77-0.11 0.91-1.62 1.87-3.25 1.08-5.26-0.29-0.76-0.67-1.24-1.56-1.13zm-105.02 156.26c-0.14 0.05-0.28 0.09-0.42 0.14 0.06 0.67 0.09 1.34 0.17 2 0.33 2.57 0.74 5.13 1 7.7 0.5 5.08 0.85 10.17 1.4 15.25 0.56 5.18 1.3 10.35 1.97 15.52 0.05 0.35 0.21 0.69 0.31 1.03 0.12-0.02 0.23-0.04 0.35-0.07 0-0.43 0.04-0.86-0.01-1.28-0.39-3.2-0.81-6.4-1.21-9.61-0.66-5.29-1.37-10.57-1.94-15.86-0.46-4.33-0.72-8.68-1.11-13.01-0.05-0.61-0.33-1.2-0.51-1.81zm112.27-147.47c-0.1-0.45-0.18-1.1-0.41-1.68-0.17-0.4-0.56-0.72-0.85-1.07-0.31 0.35-0.8 0.66-0.89 1.05-0.49 2.22-0.97 4.45-1.26 6.7-0.16 1.24 0.49 2.32 1.53 3.08 0.59 0.44 0.99 0.33 1.08-0.42 0.26-2.49 0.51-4.98 0.8-7.66zm-117.6 147.41c-0.22 0.34-0.33 0.43-0.33 0.52 0.07 2.66 0.01 5.33 0.26 7.97 0.23 2.43 1.32 4.73 1.26 7.23 0 0.11 0.03 0.22 0.05 0.33 0.53 3.52 1.06 7.05 1.59 10.57 0.1 0.66 0.18 1.33 0.26 2 0.12-0.02 0.23-0.04 0.35-0.06-0.59-9.5-2.06-18.9-3.44-28.56zm158.24-160.91c-0.77 0.3-1.75 0.38-1.96 0.83-0.59 1.28-0.93 2.69-1.21 4.07-0.08 0.38 0.31 1.2 0.6 1.26 0.69 0.14 1.47 0.02 2.19-0.13 1.19-0.23 1.39-1.44 2.04-2.21 0.84-0.99 0.42-1.97-0.03-2.83-0.25-0.46-1.03-0.64-1.63-0.99zm-173.87 139.16c-0.14 0.04-0.27 0.08-0.41 0.12 0.08 0.37 0.06 0.82 0.26 1.09 0.68 0.9 0.77 1.83 0.39 2.86-0.27 0.72-0.14 1.34 0.41 1.96 0.33 0.38 0.55 1.01 0.53 1.52-0.06 1.53-0.28 3.05-0.42 4.58-0.07 0.79-0.09 1.59-0.13 2.39 0.1 0 0.21 0.01 0.31 0.01 0.05-0.09 0.14-0.18 0.15-0.28 0.34-3.08 0.59-6.18 1.05-9.24 0.34-2.24-1.27-3.42-2.14-5.01zm-15.56 31.43c-0.07-0.06-0.13-0.11-0.2-0.17-0.29 0.57-0.74 1.12-0.83 1.72-0.11 0.8-0.01 1.65 0.12 2.46 0.28 1.77 0.82 3.53 0.93 5.31 0.27 4.34 0.35 8.69 0.51 13.04 0.01 0.37 0.11 0.73 0.16 1.1 0.09-0.01 0.18-0.03 0.26-0.04-0.31-7.81-0.63-15.61-0.95-23.42zm12.03 5.32c0.07 0 0.14-0.01 0.21-0.01 0.04-0.18 0.11-0.36 0.11-0.54 0.04-3.59 0.09-7.19 0.1-10.78 0-0.23-0.35-0.67-0.39-0.66-0.42 0.17-1.14 0.39-1.16 0.64-0.09 1.36-0.1 2.74 0.06 4.09 0.13 1.09 0.64 2.14 0.8 3.23 0.19 1.34 0.19 2.69 0.27 4.03zm-18.97 1.87c-0.15 0-0.3-0.01-0.44-0.01-0.09 0.49-0.31 1-0.26 1.47 0.29 2.6 0.64 5.2 0.97 7.8 0.24 1.83 0.49 3.66 0.73 5.49 0.14-0.02 0.27-0.03 0.41-0.05-0.16-4.93-0.48-9.84-1.41-14.7zm32.66-3.01c-0.17 0.01-0.33 0.02-0.5 0.03 0.5 4.6 0.99 9.21 1.49 13.81 0.18-0.02 0.37-0.04 0.55-0.06-0.52-4.59-1.03-9.18-1.54-13.78zm-13.02 4.39c-0.12 0.02-0.24 0.03-0.36 0.05 0.26 4.92 0.51 9.83 0.77 14.75 0.64-4.97 0.03-9.88-0.41-14.8zm-25.12 20.26c0.08 0 0.16 0 0.24-0.01v-12.26c-0.08 0-0.16 0-0.24 0.01v12.26zm57.13 6.8c0.23 2.37 0.21 4.8 1.33 7 0.32-2.46-0.35-4.76-1.33-7zm-38.77-31.59h0.41c-0.04-2.5 0.2-5.02-0.27-7.49-0.22 0-0.43 0-0.65 0.01-0.01 0.73-0.1 1.47-0.02 2.19 0.13 1.22 0.38 2.42 0.53 3.63 0.05 0.54 0 1.1 0 1.66zm38.4 23.86c-0.17 0.02-0.35 0.04-0.52 0.06 0.19 1.9 0.39 3.8 0.58 5.7 0.16-0.01 0.31-0.03 0.47-0.04-0.24-1.9 0.22-3.86-0.53-5.72zm-24.06-20.1v-6.66c-0.61 2.15-0.95 4.29 0 6.66zm-33.53 2.23c-0.18-0.04-0.37-0.08-0.55-0.11-0.25 0.72-0.54 1.43-0.72 2.17-0.03 0.11 0.42 0.42 0.69 0.5 0.15 0.04 0.55-0.2 0.56-0.33 0.05-0.74 0.02-1.48 0.02-2.23zm38.25-13.88c-0.09 0-0.19 0-0.28 0.01 0.11 2.01 0.22 4.01 0.33 6.02l0.39-0.03c-0.15-2-0.29-4-0.44-6zm14.34-2.28c-0.14 0.01-0.28 0.01-0.42 0.02 0.08 1.28 0.16 2.57 0.23 3.85 0.06-0.01 0.13-0.01 0.19-0.02v-3.85zm162.65-9.38c0.09 0.01 0.19 0.03 0.28 0.04 0.21-1.1 0.43-2.2 0.64-3.3-0.11-0.02-0.21-0.04-0.32-0.07-0.64 1.02-0.61 2.18-0.6 3.33zm-183.04 16.57c0.13 0 0.25 0.01 0.38 0.01 0.08-1.08 0.16-2.15 0.23-3.23-0.09-0.01-0.19-0.01-0.28-0.02-0.1 1.08-0.22 2.16-0.33 3.24zm20.72 3.11c0.05 0.01 0.09 0.01 0.14 0.02v-3.09c-0.1 0-0.19 0-0.29 0.01 0.06 1.01 0.1 2.03 0.15 3.06zm-15.74-15.31c0.06 0 0.13 0.01 0.19 0.01v-3.08c-0.06 0-0.13 0.01-0.19 0.01v3.06zm6.24-5.81c-0.16-0.01-0.31-0.02-0.47-0.03 0.06 0.65 0.12 1.3 0.18 1.94 0.09-0.01 0.19-0.01 0.28-0.02 0.01-0.62 0.01-1.26 0.01-1.89z"/> <path d="m186.67 97.69c-1.44-0.98-2.85-1.95-3.39-3.73-1.05-3.5-1.99-7.08-1.7-10.74 0.28-3.43 0.9-6.84 1.62-10.21 1.3-6.11 3.43-11.96 5.71-17.77 1.83-4.67 4.62-8.75 7.37-12.88 0.48-0.72 0.99-1.41 1.45-2.15 1.91-3.05 4.77-3.82 8.1-3.36 5.14 0.71 9.82 2.62 14.27 5.27 7.2 4.3 14.27 8.78 21.05 13.7 9.21 6.68 17.76 14.11 25.63 22.32 4.03 4.21 6.47 9.27 7.64 14.95 0.29 1.39 0.61 2.78 0.87 4.18 0.06 0.34-0.03 0.71-0.05 1.07-0.12 0.01-0.23 0.02-0.35 0.04-0.32-0.93-0.5-1.93-0.97-2.78-1.57-2.86-3.23-5.67-4.88-8.48-3.23-5.49-7.99-9.63-12.51-13.97-6.55-6.29-13.75-11.77-21.17-16.98-6.8-4.77-13.77-9.28-21.17-13.08-3.04-1.55-6.32-2.38-9.73-2.63-1.43-0.11-2.66 0.31-3.54 1.55-4.13 5.85-8.02 11.81-10.11 18.76-1.15 3.85-2.5 7.64-3.51 11.52-0.82 3.19-1.43 6.46-1.83 9.73-0.43 3.43 0.3 6.81 1.27 10.11 0.59 1.94 0.6 3.89-0.07 5.56z"/> <path d="m385.23 92.57c0.22-0.26 0.4-0.58 0.67-0.76 3.74-2.46 6.67-5.81 9.89-8.84 7.36-6.91 15.23-13.14 24.18-17.95 7.39-3.97 14.91-7.64 22.75-10.61 5.42-2.05 10.98-3.61 16.76-4.28 7.78-0.89 13.3 2.14 17.52 9.59 3.68 6.49 4.08 13.33 2.28 20.39-1.34 5.25-3.08 10.37-5.51 15.22-2.15 4.29-4.99 8.12-8.01 11.82-0.41 0.51-0.99 0.97-1.58 1.22-0.45 0.18-1.23 0.18-1.53-0.1-0.35-0.32-0.61-1.14-0.45-1.57 0.34-0.93 0.9-1.81 1.51-2.6 3.71-4.76 7.05-9.75 9.08-15.48 1.62-4.59 3.33-9.16 3.9-14.07 0.8-6.99-1.51-12.87-6-18.02-1.92-2.2-4.51-3.17-7.4-3.35-3.53-0.22-6.96 0.45-10.36 1.3-8.65 2.16-16.71 5.85-24.71 9.68-12.59 6.02-24.09 13.66-34.57 22.87-2.32 2.04-4.99 3.7-7.5 5.53-0.19 0.14-0.45 0.18-0.68 0.27-0.07-0.09-0.15-0.18-0.24-0.26z"/> <path d="m312.75 305.06c-4.12 1.07-8.22 2.2-12.36 3.17-1.63 0.38-3.34 0.43-5.03 0.58-2.58 0.24-5.16 0.43-7.74 0.64-3.87 0.32-7.74 0.18-11.57-0.48-5.7-0.99-11.35-2.14-16.83-4.05-2.07-0.72-4.3-1.02-6.48-1.37-4.11-0.66-8.23-1.31-12.36-1.79-10.14-1.18-18.9-5.47-26.77-11.77-4.46-3.57-8.85-7.22-13.24-10.87-2.92-2.44-4.66-5.66-5.78-9.24-0.38-1.23-0.22-2.36 0.73-3.33 1.39-1.42 1.8-3.2 2-5.13 0.15-1.46 0.61-2.92 1.09-4.32 0.45-1.32 1.12-2.56 1.69-3.84 0.12 0.04 0.23 0.07 0.35 0.11-0.18 0.8-0.41 1.58-0.52 2.39-0.14 1.02-0.4 2.1-0.24 3.09 0.54 3.42-0.04 6.49-2.23 9.23-0.28 0.35-0.38 1.08-0.23 1.52 1.29 3.84 3.3 7.21 6.5 9.82 4.69 3.82 9.26 7.8 14.02 11.52 4.34 3.39 9.03 6.31 14.43 7.71 3.99 1.03 8.07 1.7 12.12 2.47 2.87 0.54 5.76 0.99 8.65 1.47 0.38 0.06 0.77 0.08 1.24-0.14-0.88-0.53-1.84-0.96-2.61-1.62-3.05-2.61-6.11-5.21-9.04-7.95-4.37-4.08-8.7-8.23-12.01-13.26-4.6-6.99-8.03-14.51-9.98-22.68-1.19-4.96-2.46-9.89-3.68-14.84-0.22-0.88-0.35-1.78-0.53-2.67l0.3-0.09c0.4 1.06 0.9 2.1 1.18 3.19 1.56 6.09 3.91 11.88 6.59 17.56 1.69 3.56 3.2 7.21 4.85 10.79 2.59 5.61 6.14 10.6 10.19 15.22 3.24 3.7 6.61 7.3 10.04 10.83 3.62 3.72 8.18 5.95 13.09 7.43 3.79 1.14 7.64 2.11 11.49 3.07 1.19 0.3 2.45 0.34 3.68 0.47 2.01 0.21 4.02 0.41 6.03 0.57 0.82 0.07 1.66 0.11 2.48 0.04 5.16-0.49 10.33-0.86 15.45-1.59 3.29-0.47 6.49-1.49 9.74-2.25 0.4-0.09 0.83-0.1 1.24-0.14 0.01 0.17 0.04 0.35 0.06 0.53z"/> <path d="m295.04 163.85c-0.66 1.75-1.07 3.49-1.91 4.99-2.04 3.61-7.14 5.3-10.93 3.76-2.32-0.94-3.28-2.98-3.98-5.18-0.57-1.78-0.73-3.6-0.3-5.45 0.07-0.3 0.07-0.62 0.1-0.93-0.11-0.04-0.21-0.08-0.32-0.12-0.39 0.73-0.73 1.5-1.17 2.2-1.37 2.17-1.05 4.07 0.43 6.15 2.26 3.17 5.02 5.33 9.01 5.27 2.86-0.04 5.43-1.07 7.5-3.14 0.29-0.29 0.64-0.54 1.14-0.95-0.79 2.87-4.28 5.31-7.99 5.37-5.25 0.08-9-1.73-11.89-8.96-1.47 0.22-1.85 0.04-2.08-1.55-0.14-0.96-0.1-2.07 0.25-2.96 1.89-4.84 5.43-8.14 10.3-9.74 3.89-1.28 7.61-0.8 10.6 2.56 2.48 2.79 4.71 5.65 5.21 9.51 0.15 1.13-0.08 2.1-1.04 2.8-0.6 0.44-1.19 0.52-1.56-0.3-0.34-0.74-0.67-1.49-0.98-2.25-0.16-0.36-0.27-0.74-0.39-1.08zm-6.34-0.17c1.31-0.87 1.83-1.85 1.51-3.19-0.3-1.24-0.58-2.48-0.95-3.7-0.32-1.03-1.73-1.46-2.48-0.83-0.87 0.73-1.36 3-0.73 3.99 0.8 1.27 1.72 2.44 2.65 3.73z"/> <path d="m365.48 161.97c0.53 2.82 0.12 5.41-1.16 7.91-2.08 4.07-9.41 5.71-12.54 0.2-0.77-1.36-1.01-3.01-1.49-4.53-0.07-0.24-0.11-0.48-0.21-0.93-0.94 0.75-1.21 2.34-2.73 1.79-0.18-5.2 3.34-9.21 8.07-10.78 4.93-1.64 9.08-0.43 12.56 3.56 2.75 3.15 3.63 6.74 3.42 10.74-0.04 0.69-0.23 1.44-0.57 2.03-0.45 0.79-1.18 1.49-2.21 1.15-1.5-0.5-1.78-1.11-1.58-2.51 0.36-2.58 0-5.09-0.88-7.53-0.14-0.41-0.45-0.74-0.68-1.1zm-4.86 1.34c-0.46-1.37-0.87-2.72-1.4-4.03-0.09-0.21-0.75-0.4-1.03-0.29-1.49 0.57-2.15 2.8-1.26 4.11 0.25 0.37 0.48 0.78 0.79 1.08 0.6 0.57 1.25 1.09 1.89 1.63 0.33-0.8 0.65-1.6 1.01-2.5z"/> <path d="m396.38 106.18c0.26-0.6 0.48-1.22 0.79-1.79 3.22-5.94 7.4-11.11 12.6-15.45 4.26-3.56 8.37-7.34 12.84-10.63 6.44-4.74 13.07-9.24 20.19-12.92 1.62-0.84 3.4-1.4 5.13-1.99 0.41-0.14 0.94 0.08 1.42 0.13-0.17 0.53-0.18 1.25-0.54 1.55-1.61 1.34-3.21 2.76-5.01 3.79-8.43 4.82-16.35 10.37-24.19 16.09-7.66 5.59-14.26 12.31-20.94 18.97-0.6 0.6-1.05 1.36-1.59 2.03-0.12 0.15-0.33 0.24-0.49 0.35-0.08-0.04-0.14-0.08-0.21-0.13z"/> <path d="m261.41 125.69c-0.41-2.65-0.61-5.08-1.2-7.42-1.81-7.17-4.46-14.02-8.48-20.28-3.91-6.08-8.68-11.5-13.08-17.22-3.99-5.19-8.21-10.16-12.84-14.79-0.13-0.13-0.26-0.27-0.37-0.42-0.22-0.3-0.43-0.61-0.53-1.07 0.31 0.21 0.66 0.39 0.93 0.65 5.16 4.76 10.49 9.36 15.42 14.35 6.95 7.03 12.86 14.91 17.1 23.9 2.16 4.59 4.07 9.35 4.42 14.47 0.16 2.31-0.51 4.67-0.84 7-0.03 0.26-0.29 0.47-0.53 0.83z"/> <path d="m214.46 167.9c-2.53 1.23-4.86 1.24-7.2-0.27-2.6-1.69-4.37-3.98-5.35-6.89-0.55-1.65-0.13-2.77 1.41-3.57 0.81-0.42 1.02-0.82 0.54-1.66-2.55-4.51-5.13-9.01-7.55-13.58-2.78-5.24-5.49-10.52-8.06-15.86-1.13-2.34-1.81-4.9-2.55-7.51 0.26 0.29 0.6 0.54 0.75 0.88 1.26 2.72 2.44 5.48 3.74 8.17 2.49 5.15 5.52 9.97 8.88 14.61 2.75 3.79 5.17 7.83 7.7 11.77 0.32 0.5 0.52 1.09 0.71 1.65 0.57 1.67 0.2 2.93-1.27 3.93-0.68 0.46-0.79 0.86-0.4 1.57 0.93 1.65 2.12 2.96 3.86 3.81 1.03 0.51 1.92 1.28 2.89 1.9 0.61 0.36 1.23 0.67 1.9 1.05z"/> <path d="m281.26 296.37c-0.67 0.06-1.34 0.1-2.01 0.18-5.19 0.69-10.08 0.26-13.97-3.78-0.36-0.38-0.41-1.05-0.74-1.47-0.3-0.37-0.78-0.6-1.2-0.86-1.37-0.82-2.84-1.49-4.09-2.46-1.26-0.98-1.09-2.46 0.18-3.44 0.47-0.37 0.96-0.73 1.46-1.06 0.9-0.59 0.73-1.11 0.01-1.75-2.39-2.15-5.01-2.76-8.7-1.96-1.03-2.04 2.19-5.8 5.31-6.01-1.76 1.42-3.95 2.44-4.91 4.89 1.7-0.39 3.19-0.82 4.71-1.08 2.85-0.49 5.27 0.34 7.14 2.61 1.6 1.94 1.54 3.7-0.35 5.32-0.83 0.71-0.86 1.19-0.16 1.98 1.21 1.37 2.24 2.89 3.5 4.21 0.51 0.54 1.39 0.95 2.13 1 2.91 0.19 5.84 0.24 8.76 0.27 0.7 0.01 1.4-0.2 2.1-0.35 1.14-0.25 2.09 0.06 2.42 0.89 0.41 1.03-0.08 1.72-0.95 2.24-0.25 0.15-0.43 0.4-0.65 0.61 0 0.03 0.01 0.02 0.01 0.02z"/> <path d="m458.99 129.15c-0.33 0.72-0.61 1.46-0.99 2.15-2.84 5.12-5.59 10.3-8.59 15.33-2.21 3.7-4.78 7.19-7.16 10.79-3.13 4.75-6.07 9.61-7.38 15.23-0.36 1.56-0.44 3.19-0.62 4.8-0.11 0.96-0.49 1.69-1.39 2.16-0.31 0.16-0.6 0.59-0.67 0.94-0.46 2.35-1.95 3.86-3.96 4.91-0.99 0.52-2.04 1.01-3.12 1.26-0.58 0.13-1.43-0.11-1.91-0.49-0.89-0.7-0.76-1.25 0.23-1.8 1.08-0.6 2.17-1.18 3.26-1.76 1.42-0.75 2.39-1.77 2.37-3.52-0.01-1.3 0.46-2.33 1.89-2.71 0.31-0.08 0.68-0.52 0.74-0.85 0.97-5.62 3.72-10.47 6.69-15.17 3.19-5.05 6.7-9.89 9.94-14.9 2.14-3.31 4.03-6.78 6.06-10.16 1.18-1.96 2.42-3.88 3.62-5.83 0.16-0.25 0.26-0.54 0.38-0.81 0.2 0.14 0.41 0.29 0.61 0.43z"/> <path d="m230.44 182.51c-0.81 1.24-1.52 2.57-2.46 3.7-1.46 1.75-6.64 1.93-8.13-1.24-0.3-0.65-0.39-1.45-0.37-2.17 0.03-0.73-0.2-0.97-0.87-1.15-0.75-0.2-1.51-0.5-2.16-0.91-1.36-0.84-1.77-2.06-1.29-3.72 0.21-0.73 0.08-1-0.65-1.32-1.12-0.49-2.15-1.21-3.2-1.86-0.15-0.09-0.18-0.36-0.26-0.55 0.26-0.11 0.52-0.3 0.78-0.32 1.42-0.08 2.85-0.07 4.27-0.19 1.01-0.08 2-0.3 3.01-0.46 0.94-0.16 1.76 0.05 2.21 0.94 0.46 0.92 0.04 1.66-0.65 2.3-0.52 0.48-1.04 0.97-1.52 1.5s-0.25 0.95 0.38 1.03c0.81 0.11 1.65 0.11 2.47 0.1 0.89-0.01 1.65 0.21 2.1 1.03 0.46 0.83 0.19 1.59-0.3 2.32-0.17 0.25-0.35 0.49-0.47 0.77-0.42 0.95-0.12 1.52 0.92 1.47 1.91-0.09 3.95 0.28 5.51-1.32 0.11-0.11 0.32-0.11 0.49-0.17 0.05 0.08 0.12 0.15 0.19 0.22z"/> <path d="m259.44 129.77c-0.98-2.18-3-3.04-4.65-4.34-0.12 0.07-0.24 0.14-0.36 0.2 0.42 1.56 0.83 3.12 1.25 4.68 0.36 1.34 0.77 2.67 1.09 4.02 0.24 1.02 0.07 2.01-0.95 2.53-1.11 0.57-1.85-0.15-2.49-0.94-0.46-0.56-0.86-1.16-1.42-1.71-0.23 2.24 0.11 4.52-1.33 6.58-0.12-0.54-0.22-1.08-0.36-1.62-0.36-1.34-0.76-2.67-1.09-4.02-0.15-0.62-0.26-1.26-0.29-1.89-0.07-2.2 0.92-3.26 3.33-3.47-0.11-0.54-0.25-1.06-0.32-1.59-0.15-1.18-0.39-2.37-0.38-3.56 0.01-1.45 1.12-2.41 2.56-2.46 3.47-0.12 6.61 3.86 5.68 7.2-0.02 0.13-0.15 0.23-0.27 0.39z"/> <path d="m394.78 140.05c-0.01-1.63 0.22-3.22 0.91-4.73 0.95-2.09 1.6-4.26 1.26-6.54-0.27-1.84-0.81-3.66-1.35-5.45-0.75-2.46-1.01-4.83 0.41-7.16 0.78-1.27 1.73-2.24 3.24-2.58 0.68-0.15 1.32-0.47 2.06-0.74 0.04 0.26 0.13 0.47 0.07 0.59-0.71 1.48-1.37 2.98-2.18 4.41-0.78 1.38-0.57 2.75-0.21 4.14 0.42 1.63 1.05 3.22 1.33 4.88 0.73 4.24-0.66 7.91-3.3 11.18-0.61 0.76-1.28 1.46-1.92 2.19-0.1-0.06-0.21-0.13-0.32-0.19z"/> <path d="m236.19 259.89c-1.77-1.02-3.28-2.46-3.94-4.65 1.88 0.94 3.63 2.06 5.54 2.7 1.96 0.65 4.08 0.83 6.25 1.24-0.7 1.01-1.79 1.69-3.11 1.71-1.28 0.02-2.56-0.27-4.07-0.45 1.2 1.64 2.57 2.83 4.23 3.64 2.18 1.07 4.52 1.36 6.92 1.16 0.46-0.04 0.9-0.42 1.36-0.45 0.7-0.04 1.53-0.13 2.08 0.19 0.78 0.44 0.6 1.38 0.18 2.02-0.69 1.06-1.53 2.02-2.33 3.01-0.27 0.33-0.58 0.64-0.87 0.95 0.05 0.09 0.1 0.19 0.15 0.28 1.04-0.24 2.07-0.51 3.11-0.69 0.39-0.07 0.99-0.07 1.17 0.16 0.21 0.25 0.14 0.83 0.04 1.22-0.46 1.73-1.01 3.43-1.45 5.17-0.13 0.52-0.02 1.1-0.02 1.65-2.16 0.06-2.43-1.88-0.83-6.59-0.91 0.11-1.79 0.29-2.66 0.29-0.42 0-1-0.22-1.21-0.54-0.15-0.22 0.11-0.86 0.37-1.16 0.85-0.99 1.78-1.9 2.8-2.96-2.76 0.32-5.23-0.22-7.61-1.2-2.64-1.09-4.41-3.2-6.07-5.4-0.19-0.26-0.03-0.77-0.03-1.3z"/> <path d="m239.55 163.24c-1.13 0.37-2.25 0.74-3.38 1.09-1.04 0.32-2.09 0.61-3.13 0.93-2.76 0.83-5.02-0.23-7.06-1.94-2.05-1.72-3.36-3.93-3.98-6.52-0.52-2.19 0.86-3.51 3.01-2.86 2.33 0.71 4.63 1.52 6.93 2.33 0.48 0.17 0.94 0.48 1.34 0.8 0.26 0.21 0.39 0.58 0.58 0.87-0.34 0.18-0.69 0.53-1.02 0.51-1.68-0.07-3.36-0.22-5.03-0.36-0.46-0.04-0.91-0.13-1.6-0.23 1.4 2.63 3.64 3.86 5.89 5.02 2.42 1.24 4.93-0.21 7.4-0.13 0.02 0.18 0.03 0.34 0.05 0.49z"/> <path d="m411.93 159.79v1.68c0.57-0.64 1.01-1.23 1.55-1.72 0.74-0.69 1.54-0.53 1.82 0.44 0.2 0.69 0.16 1.47 0.1 2.2-0.09 1.17-0.29 2.33-0.44 3.5 0.09 0.03 0.18 0.06 0.27 0.09 0.13-0.11 0.29-0.19 0.39-0.33 0.49-0.7 0.93-0.68 1.33 0.08 0.11 0.2 0.24 0.38 0.36 0.57 0.92 1.55 1 1.59 2.63 1.26-0.17 1.37-1.47 2.58-2.74 2.55-1.5-0.03-2.25-1.1-2.35-3.5-1.25 0.84-2.43 0.72-2.97-0.64-0.42-1.05-0.43-2.27-0.62-3.43 0.01-0.01-0.17 0.07-0.34 0.19-1 0.7-2.04 0.74-3.06 0.13-1.08-0.65-1.55-1.72-1.3-2.89 0.3-1.41 0.78-2.79 1.34-4.12 0.16-0.37 0.84-0.71 1.29-0.72 0.36-0.01 0.94 0.43 1.06 0.79 0.22 0.68 0.32 1.47 0.23 2.18-0.25 1.69-0.3 1.69 1.45 1.69z"/> <path d="m421.21 186.36c0.2 0.13 0.47 0.22 0.59 0.4 0.91 1.33 1.88 2.63 2.65 4.04 1.06 1.93 0.49 2.84-1.68 2.99-0.18 0.01-0.35 0.06-0.64 0.12 0.14 0.26 0.21 0.46 0.34 0.61 0.75 0.84 1.4 1.7 0.95 2.92-0.48 1.29-1.56 1.89-2.79 1.97-1.15 0.07-1.54 0.34-1.45 1.56 0.07 0.97-0.34 1.94-1.45 2.31-1.15 0.38-1.91-0.39-1.84-1.59s-0.06-2.44-0.25-3.64c-0.14-0.83-0.46-1.64 0.27-2.3 0.78-0.7 1.6-0.36 2.41 0.02 0.53 0.25 1.1 0.43 1.65 0.64 0.08-0.11 0.16-0.23 0.23-0.34-0.54-0.69-1.09-1.38-1.62-2.08-0.76-1.01-0.45-1.82 0.81-1.95 0.85-0.08 1.73-0.04 2.59-0.02 1.4 0.04 1.58-0.14 1.02-1.45-0.5-1.17-1.14-2.28-1.72-3.41-0.1-0.19-0.18-0.39-0.27-0.59 0.07-0.08 0.13-0.15 0.2-0.21z"/> <path d="m228.54 428.05c-0.3-0.28-0.67-0.51-0.9-0.84-1.5-2.11-2.94-4.26-4.45-6.35-2-2.77-4.05-5.5-6.07-8.25-0.55-0.76-1.08-1.54-1.58-2.33-1-1.59-1.57-3.3-1.51-5.22 0.05-1.52 0.01-3.05 0.13-4.68 0.18 0.48 0.37 0.95 0.54 1.43 0.41 1.11 0.61 2.37 1.27 3.31 2.62 3.72 5.04 7.53 6.99 11.66 1.62 3.42 3.54 6.7 5.32 10.05 0.18 0.34 0.34 0.69 0.51 1.04-0.08 0.05-0.16 0.12-0.25 0.18z"/> <path d="m281.25 296.38c2.51-0.62 5.01-1.24 7.48-1.85-0.01 2.88-0.63 3.84-3.47 4.61-2.64 0.71-5.31 1.3-7.99 1.84-2.54 0.51-4.63-0.46-6.4-2.26-0.57-0.57-0.39-0.94 0.37-1.02 1.04-0.11 2.09-0.14 3.13-0.25 2.08-0.21 4.16-0.44 6.24-0.69 0.23-0.03 0.44-0.25 0.66-0.39-0.01 0-0.02 0.01-0.02 0.01z"/> <path d="m404.02 156.02c0.67-1.4 1.23-2.56 1.94-4.04-0.83 0.29-1.41 0.45-1.95 0.69-1.64 0.74-3.26 1.53-4.91 2.25-0.45 0.19-0.98 0.18-1.51 0.12 2.63-2.84 5.32-5.49 9.16-6.47 1.12-0.29 2.25-0.57 3.39-0.76 0.92-0.16 1.72 0.16 2.23 0.98 0.5 0.83 0.45 1.69-0.18 2.41-1.66 1.91-3.41 3.68-6.13 4.03-0.64 0.07-1.22 0.46-2.04 0.79z"/> <path d="m244.74 150.37c-0.24 2.8-3.29 5.87-6.21 6.38-3.2 0.56-6-0.45-8.63-2.13-1.08-0.69-1.7-2.23-1.29-2.87 0.37-0.58 1.94-0.67 3.08-0.17 1.06 0.46 2.11 0.95 3.18 1.41 1.25 0.53 2.48 0.25 3.75 0.01 2.11-0.39 4.26-0.6 5.71-2.49 0.07-0.09 0.26-0.09 0.41-0.14z"/> <path d="m433.11 152.43c-0.05 0.23-0.13 0.47-0.16 0.71-0.05 0.45-0.04 0.9-0.1 1.34-0.19 1.5-1.07 2.49-2.08 2.37s-1.65-1.15-1.55-2.63c0.09-1.38 0.19-2.77 0.39-4.14 0.23-1.62 0.75-1.84 2.17-1.02 0.09 0.05 0.21 0.06 0.45 0.14 0.08-0.45 0.16-0.88 0.24-1.3 0.2-1.06 0.62-1.24 1.57-0.7 1.24 0.7 1.95 2.26 1.68 3.65-0.26 1.23-0.87 1.61-2.61 1.58z"/> <path d="m286.53 103.81c-0.23 2.56-0.43 5.06-2.16 7.13-0.14 0.17-0.25 0.4-0.43 0.52-0.39 0.25-0.82 0.44-1.23 0.66-0.07-0.41-0.2-0.83-0.19-1.24 0.01-3.07 0.06-6.15 0.06-9.22 0-0.99 0.2-1.82 1.28-2.08 0.79-0.19 1.77 0.47 2.1 1.51 0.28 0.88 0.38 1.81 0.57 2.72z"/> <path d="m265.33 387.31c1.93 0.2 3.86 0.37 5.78 0.61 0.42 0.05 0.8 0.39 1.19 0.6-0.31 0.35-0.57 0.78-0.94 1.04-0.69 0.48-1.44 0.86-2.36 1.4 1.81 0.56 3.33 1.03 4.85 1.5-0.04 0.16-0.08 0.32-0.11 0.48-0.98-0.19-1.96-0.37-2.93-0.58-0.51-0.11-1.04-0.22-1.5-0.44-0.37-0.18-0.83-0.47-0.94-0.81-0.08-0.23 0.3-0.73 0.59-0.95 0.61-0.47 1.3-0.83 2.2-1.38-0.56-0.07-0.83-0.14-1.1-0.14-2.25 0.07-4.5 0.15-6.75 0.22-0.49 0.02-1.01 0.14-1.45 0.01-0.48-0.14-1.17-0.46-1.26-0.82-0.09-0.38 0.32-1.13 0.71-1.31 1.18-0.56 2.42-1.03 3.69-1.33 1.6-0.37 3.24-0.6 4.88-0.78 1.34-0.14 2.63 0.06 3.64 1.21-2.94-0.45-5.57 0.57-8.19 1.47z"/> <path d="m228.23 85.07c-0.89-0.16-1.78-0.39-2.69-0.47-4.69-0.42-9.01 1.04-13.12 3-3.31 1.57-6.4 3.6-9.58 5.44-0.4 0.23-0.73 0.59-1.09 0.89l0.12 0.42c3.23-0.43 6.47-0.87 9.7-1.3 0.02 0.14 0.05 0.28 0.07 0.42-1.31 0.31-2.62 0.66-3.94 0.92-1.69 0.33-3.39 0.59-5.09 0.88-0.37 0.06-0.77 0.19-1.11 0.1-0.4-0.11-0.89-0.34-1.07-0.67-0.12-0.22 0.12-0.84 0.38-1.04 1.71-1.33 3.4-2.73 5.24-3.86 4.27-2.63 8.83-4.71 13.74-5.74 2.6-0.54 5.36-0.89 7.95 0.4 0.21 0.1 0.37 0.29 0.56 0.44-0.02 0.06-0.04 0.12-0.07 0.17z"/> <path d="m237.36 253.93c-2.35-0.28-4.74-0.4-6.42-2.33-0.78-0.89-1.33-1.97-1.95-2.99-0.11-0.18-0.02-0.47-0.02-0.72 0.28 0.03 0.63-0.05 0.82 0.09 2.31 1.63 4.96 1.98 7.68 2.17 0.75 0.05 1.57 0.31 2.19 0.72 1.21 0.8 1.02 2.16-0.34 2.69-0.61 0.25-1.31 0.26-1.96 0.37z"/> <path d="m360.64 421.26c0.18-0.37 0.32-0.76 0.53-1.1 1.92-3.17 3.89-6.31 5.78-9.49 0.72-1.22 1.39-1.72 2.23-1.36 0.9 0.38 1.23 1.51 0.75 2.75-1.18 3.03-3.19 5.37-5.97 7.08-1.09 0.67-2.08 1.51-3.11 2.27-0.07-0.06-0.14-0.11-0.21-0.15z"/> <path d="m386.32 404.04c-0.11-1.74 0.32-2.18 1.99-1.79 1.04 0.24 2.05 0.73 2.99 1.26 0.23 0.13 0.21 0.91 0.11 1.35-0.09 0.36-0.49 0.93-0.73 0.92-1.75-0.08-2.23 2.05-3.84 2.12-2.06 0.1-4.12-1.59-4.1-3.36 0.01-1.13 0.38-1.44 1.46-1.17 0.69 0.18 1.38 0.43 2.12 0.67z"/> <path d="m280.5 105.69c-1.84-4.34-2.64-8.69-3.83-13.06 2.15 0.87 3.86 2.04 4.6 4.37 0.93 2.91 0.78 5.69-0.77 8.69z"/> <path d="m374.35 409.6c-1.57 2.5-2.85 5.21-5.74 6.6-0.05-0.3-0.09-0.41-0.06-0.43 2.68-2.25 3.72-5.47 5.1-8.5 0.21-0.46 0.74-0.77 1.12-1.16 0.24 0.46 0.49 0.91 0.72 1.38 0.05 0.09-0.02 0.25 0.03 0.33 0.37 0.56 0.76 1.1 1.15 1.65 0.42-0.44 0.94-0.82 1.23-1.33s0.4-1.13 0.5-1.72c0.38-2.22 0.67-2.69 2.95-4.4-0.21 1.14-0.31 2.11-0.58 3.03-0.25 0.85-0.67 1.65-1.02 2.47-0.31 0.72-0.56 1.48-0.96 2.15-0.86 1.47-2.92 1.9-3.93 0.36-0.1-0.14-0.27-0.23-0.51-0.43z"/> <path d="m286.88 417.27c0 1.31 0 2.62 0.02 3.92 0.01 0.83-0.04 1.69-1.03 1.86-1.1 0.19-1.44-0.72-1.56-1.54-0.3-2.08-0.54-4.17-0.71-6.26-0.2-2.53-0.26-5.08-1.36-7.46 0.1-0.08 0.2-0.16 0.31-0.24 0.35 0.41 0.86 0.76 1.04 1.23 0.9 2.37 1.71 4.78 2.59 7.17 0.17 0.47 0.48 0.89 0.72 1.33 0 0.01-0.02-0.01-0.02-0.01z"/> <path d="m471.49 103.25c0 0.46 0.07 0.77-0.01 1.05-1.5 4.91-4.23 9.01-8.13 12.33-0.4 0.34-0.83 0.72-1.31 0.84-0.4 0.1-1.05-0.03-1.28-0.31-0.22-0.26-0.13-0.89 0.02-1.29 0.14-0.36 0.52-0.63 0.83-0.9 3.71-3.32 7.13-6.89 9.41-11.4 0.04-0.08 0.17-0.11 0.47-0.32z"/> <path d="m264.51 191.19c0.34-0.31 0.69-0.63 1.11-1.02-3.14-2.01-6.27-3.99-6.73-8.39 0.34 0.25 0.59 0.34 0.64 0.49 0.77 2.2 2.98 2.99 4.43 4.52 0.22 0.24 0.79 0.3 1.15 0.22 1.04-0.24 2.05-0.64 3.1-0.89 0.37-0.09 0.8 0.1 1.21 0.16-0.1 0.43-0.06 1.08-0.33 1.25-0.55 0.34-1.25 0.45-1.9 0.62-0.34 0.09-0.7 0.08-1.21 0.13 0.66 0.96 1.34 1.31 2.29 0.93 0.55-0.22 1.09-0.56 1.66-0.65 0.35-0.06 0.75 0.24 1.13 0.37-0.24 0.33-0.41 0.82-0.73 0.97-0.67 0.32-1.41 0.48-2.14 0.67-1.18 0.31-2.37 0.58-3.55 0.87-0.04-0.09-0.08-0.17-0.13-0.25z"/> <path d="m189.39 113.5c-1.67 1.23-3.12 1.3-4.5 0.16-2.11-1.75-3.41-3.9-2.91-6.78 0.06-0.34 0.27-0.65 0.42-0.97 0.35 0.17 0.76 0.27 1.03 0.53 0.43 0.41 0.75 0.93 1.15 1.39 1.01 1.15 2.04 2.28 3.04 3.45 0.6 0.69 1.15 1.44 1.77 2.22z"/> <path d="m349.73 169.25c0.25 0.39 0.56 0.75 0.75 1.16 2.2 4.84 6.69 5.54 10.89 4.51 1.45-0.35 2.87-0.85 3.84-2.18 0.19-0.26 0.9-0.14 1.38-0.19 0.02 0.44 0.24 1.07 0.02 1.3-0.68 0.72-1.43 1.48-2.32 1.89-3.67 1.7-7.4 2.02-10.96-0.29-2.17-1.41-3.01-3.77-4.01-5.97 0.14-0.07 0.28-0.15 0.41-0.23z"/> <path d="m247.7 145.89c-0.92 2.58-2.95 3.43-5.24 3.82-0.95 0.16-1.98 0.21-2.89-0.02-0.61-0.15-1.16-0.82-1.53-1.4-0.09-0.14 0.56-1.01 1.01-1.2 2.27-0.95 4.57-1.83 7.13-1.29 0.45 0.1 0.94 0.06 1.52 0.09z"/> <path d="m431.6 105.3c0.38-0.23 0.73-0.53 1.14-0.66 0.74-0.24 1.51-0.44 2.29-0.56 4.87-0.78 9.76-1.23 14.63-0.03 0.86 0.21 1.69 0.62 2.44 1.08 0.28 0.17 0.48 0.8 0.41 1.15-0.06 0.27-0.58 0.55-0.93 0.63-1.01 0.22-2.03 0.33-3.05 0.48-0.03-0.1-0.06-0.2-0.09-0.3 0.67-0.29 1.35-0.59 2.02-0.88-0.01-0.11-0.02-0.23-0.04-0.34-6.16-2.03-12.38-1.67-18.64-0.24l-0.18-0.33z"/> <path d="m225.96 97.03c-5.21 1.74-8.43 5.56-11.46 9.59-0.58 0.77-0.74 1.84-1.14 2.75-0.15 0.33-0.5 0.84-0.69 0.81-0.35-0.06-0.94-0.48-0.92-0.69 0.12-0.97 0.21-2.04 0.7-2.84 2.07-3.39 4.98-5.98 8.36-8.02 1.26-0.76 2.7-1.23 4.08-1.76 0.29-0.1 0.71 0.1 1.07 0.16z"/> <path d="m450.03 97.77c0.82-0.39 1.64-0.79 2.46-1.18-0.02-0.12-0.03-0.23-0.05-0.35-3.92-0.48-7.83-0.78-11.82-0.37-3.96 0.4-7.9 0.71-11.54 2.53-0.04-0.08-0.09-0.16-0.13-0.24 0.67-0.38 1.31-0.84 2.01-1.14 2.43-1.03 5.01-1.36 7.6-1.8 3.52-0.59 7.03-0.48 10.55-0.44 1.41 0.02 2.83 0.33 4.22 0.61 0.4 0.08 0.72 0.55 1.08 0.84-0.29 0.31-0.53 0.78-0.88 0.92-1.12 0.41-2.28 0.7-3.43 1.04-0.01-0.14-0.04-0.28-0.07-0.42z"/> <path d="m444.9 122.19c0.26-3.77-2.68-4.84-5.06-6.29-1.33-0.81-2.85-1.31-4.27-1.99-0.32-0.15-0.56-0.48-0.83-0.72 0.07-0.12 0.14-0.23 0.2-0.35 2.8 0.97 5.65 1.85 8.39 2.98 1.02 0.42 1.91 1.33 2.65 2.2 1.3 1.52 0.9 3.02-1.08 4.17z"/> <path d="m187.04 107.16c-1.9-0.31-2.94-1.49-3.61-2.95-0.77-1.7-1.32-3.49-1.99-5.24-0.16-0.41-0.41-0.79-0.54-1.21-0.08-0.24 0-0.53 0.01-0.8 0.27 0.06 0.66 0.02 0.8 0.19 0.34 0.43 0.61 0.94 0.83 1.45 1.03 2.36 2.43 4.46 4.39 6.16 0.28 0.24 0.57 0.51 0.74 0.83 0.17 0.3 0.36 0.78 0.24 1-0.15 0.29-0.62 0.42-0.87 0.57z"/> <path d="m466.61 117.2c-0.42 0.73-0.79 1.48-1.25 2.17-1.2 1.81-2.41 3.61-3.69 5.36-0.45 0.62-1.08 1.15-1.7 1.61-0.64 0.48-1.38 0.45-1.91-0.21-0.54-0.67 0.06-1.12 0.47-1.52 2-1.97 4.04-3.9 6.05-5.86 0.59-0.58 1.11-1.23 1.67-1.85 0.11 0.11 0.24 0.21 0.36 0.3z"/> <path d="m394.36 113.41c0.02-0.37-0.07-0.79 0.08-1.1 1.48-3.07 4.03-4.73 7.3-5.38 0.27-0.05 0.79 0.11 0.86 0.29 0.1 0.28 0 0.74-0.18 1-0.26 0.34-0.65 0.64-1.04 0.83-2.47 1.18-4.95 2.31-7.02 4.36z"/> <path d="m381.03 98.27c-1.24-3.15 1.06-7.54 4.22-7.97-0.89 2.97-2.12 5.58-4.22 7.97z"/> <path d="m216.26 144.6c-0.85-0.24-1.9-0.49-2.92-0.84-0.61-0.21-0.52-0.72-0.11-1.07 1.27-1.06 2.76-1.62 4.38-1.2 0.52 0.14 1.09 0.91 1.24 1.49 0.2 0.8-0.5 1.27-1.25 1.46-0.36 0.11-0.74 0.1-1.34 0.16z"/> <path d="m215.36 147.98c0.19-0.96 0.81-1.73 1.75-2.01 0.96-0.29 2.03-0.43 3.03-0.35 0.77 0.06 1.34 0.75 1.25 1.61-0.1 0.9-0.75 1.34-1.64 1.38-0.26 0.01-0.52-0.01-0.78-0.05-1.16-0.18-2.32-0.37-3.61-0.58z"/> <path d="m355.73 142.13c0.36 0.33 0.87 0.59 0.97 0.95 0.07 0.29-0.27 0.9-0.58 1.03-1.88 0.85-3.03 2.38-4.07 4.05-0.2 0.33-0.61 0.53-0.92 0.79-0.07-0.41-0.29-0.86-0.19-1.23 0.53-2.02 1.63-3.7 3.35-4.92 0.38-0.26 0.86-0.4 1.44-0.67z"/> <path d="m209.97 434.49c2.2-0.61 4.52 0.13 6.81 0.49 2.83 0.45 5.62 1.21 8.41 1.86 0.5 0.12 1.02 0.28 1.46 0.54 0.39 0.23 0.96 0.65 0.94 0.95-0.02 0.41-0.45 0.92-0.84 1.18-1.07 0.73-2.46 0.84-3.46 0.36 1.22-0.48 2.66-0.33 3.82-1.73-5.84-1.64-11.45-3.15-17.14-3.65z"/> <path d="m293.43 137.39c1.64 0.52 4.55 5.06 4.23 6.44-0.09 0.37-0.7 0.95-0.9 0.89-0.49-0.16-1.11-0.55-1.26-1-0.48-1.37-0.74-2.82-1.16-4.22-0.19-0.66-0.54-1.28-0.91-2.11z"/> <path d="m276.67 395.22c2.82 0.55 5.43 1.39 7.72 3.21-1.78 1.25-6.92-1.24-7.72-3.21z"/> <path d="m222.35 106.73c-0.91 2.2-2.12 4.2-2.54 6.36-0.41 2.13 0 4.41 0.05 6.58-2.44-1.88-0.88-10.57 2.49-12.94z"/> <path d="m434.96 144.72c0.26-0.43 0.51-1.35 1.03-1.54 0.4-0.15 1.17 0.56 1.71 0.98 0.24 0.19 0.38 0.56 0.49 0.87 0.32 0.95-0.07 1.9-0.85 2.18-0.81 0.29-1.68-0.15-2.07-1.09-0.14-0.34-0.17-0.72-0.31-1.4z"/> <path d="m380.17 183.62c0.41 1.65-0.04 2.86-1.24 3.73-1.36 0.98-2.77 1.23-3.81 0.58 1.66-1.42 3.3-2.82 5.05-4.31z"/> <path d="m373.03 193.24c0.42-0.32 0.84-0.64 1.27-0.95 1.17-0.87 2.33-1.75 3.53-2.59 0.22-0.15 0.73-0.24 0.84-0.12 0.21 0.24 0.34 0.66 0.3 0.98-0.04 0.29-0.3 0.66-0.56 0.8-1.51 0.81-3.05 1.56-4.59 2.31-0.16 0.07-0.41-0.05-0.61-0.08-0.06-0.12-0.12-0.23-0.18-0.35z"/> <path d="m377.76 197.57c2.36-3.42 4.72-6.85 7.08-10.27 0.09 0.06 0.17 0.12 0.26 0.19-1.75 3.86-3.72 7.56-7.34 10.08z"/> <path d="m422.35 509.03c-2.46-1.09-4.01-3.37-6.32-4.66 0.07-0.11 0.14-0.22 0.22-0.33 0.24 0.12 0.49 0.23 0.73 0.36 1.12 0.59 2.26 1.14 3.35 1.8 0.72 0.44 1.4 0.97 2.01 1.55 0.23 0.22 0.22 0.7 0.31 1.06-0.1 0.07-0.2 0.15-0.3 0.22z"/> <path d="m212.36 138.36c0.21-1.55 2.46-2.68 3.75-1.81 0.27 0.18 0.52 0.58 0.53 0.88 0 0.22-0.38 0.53-0.66 0.65-0.41 0.17-0.87 0.25-1.32 0.27-0.77 0.04-1.54 0.01-2.3 0.01z"/> <path d="m353.75 148.18c1.51-1.74 2.98-3.55 5.44-4.09 0.29-0.06 0.66 0.25 0.99 0.39-0.26 0.2-0.5 0.41-0.77 0.58-1.44 0.91-2.89 1.8-4.33 2.71-0.36 0.23-0.69 0.51-1.03 0.77l-0.3-0.36z"/> <path d="m215.04 92.99c-2.23 2.75-5.26 4.36-6.44 7.72-0.66-0.35-0.76-0.83-0.32-1.31 1.42-1.58 2.9-3.1 4.35-4.66 0.51-0.55 0.97-1.14 1.49-1.67 0.1-0.11 0.38-0.04 0.92-0.08z"/> <path d="m292.64 144.8c-0.58-1.72-1.09-3.26-1.64-4.89 0.19 0.07 0.69 0.1 0.82 0.33 0.66 1.2 1.33 2.42 1.79 3.7 0.25 0.71-0.36 1.02-0.97 0.86z"/> <path d="m362.78 146.95c-1.51 0.43-3.03 0.85-4.72 1.33 0.74-1.59 3.12-2.34 4.63-1.69l0.09 0.36z"/> <path d="m297.88 518.54c1.39 0.38 2.64 1.82 2.77 3.19-1.1-0.13-2.79-2.08-2.77-3.19z"/> <path d="m289.41 141.15c0.67 0.86 1.35 1.7 1.98 2.58 0.09 0.12 0.02 0.5-0.1 0.58-0.18 0.12-0.5 0.17-0.7 0.09-0.59-0.23-1.57-2.28-1.49-3.03 0.11-0.07 0.21-0.15 0.31-0.22z"/> <path d="m326.64 362.29c0.87-0.29 1.73-0.65 2.62-0.85 5.73-1.31 11.22-3.27 16.56-5.73 3.65-1.68 7.43-3.06 11.09-4.72 3.61-1.64 6.84-3.91 9.73-6.64 1.15-1.09 1.75-2.29 1.71-3.96-0.15-7.5 0.59-14.93 2.06-22.28 0.37-1.87 0.98-3.7 1.47-5.55 0.07-0.26 0.11-0.53-0.08-0.92-0.22 0.27-0.45 0.54-0.67 0.81-5.88 7.23-11.76 14.43-18.19 21.21-4.35 4.58-9.61 7.03-15.55 8.22-6.55 1.32-13.17 2.27-19.75 3.43-2.28 0.4-4.54 0.96-6.82 1.39-1.33 0.25-2.68 0.38-4.02 0.56-0.03-0.09-0.05-0.18-0.08-0.27 0.54-0.21 1.05-0.49 1.61-0.63 8.03-2.04 16.1-3.98 24.1-6.12 3.98-1.07 7.9-2.41 11.76-3.85 1.46-0.55 2.79-1.61 3.97-2.67 5.03-4.54 9.44-9.67 13.74-14.9 3.32-4.03 6.64-8.06 10.02-12.03 0.77-0.9 1.76-1.63 2.68-2.39 0.7-0.58 1.49-0.72 2.26-0.09 0.75 0.61 0.79 1.43 0.49 2.26-0.69 1.95-1.46 3.87-2.12 5.82-1.69 4.93-2.69 10.01-3.08 15.2-0.34 4.56-0.49 9.14-0.65 13.72-0.07 1.9-0.89 3.38-2.17 4.67-3.01 3.05-6.46 5.51-10.28 7.43-5.11 2.56-10.34 4.86-15.94 6.15-3.47 0.8-7 1.36-10.49 2.05-1.28 0.25-2.55 0.59-3.84 0.84-0.68 0.14-1.37 0.18-2.06 0.27-0.02-0.16-0.05-0.29-0.08-0.43z"/> <path d="m323.66 196.93c2.86 0.05 5.62 0.08 8.4-0.44-0.69-0.91-2.12-0.96-2.26-2.56 0.59 0.28 1.01 0.53 1.46 0.7 1.09 0.4 2.2 0.74 3.28 1.17 0.25 0.1 0.39 0.47 0.58 0.71-0.25 0.18-0.48 0.51-0.74 0.53-2.76 0.2-5.52 0.4-8.28 0.47-0.81 0.02-1.63-0.38-2.44-0.58z"/> </svg>