<?xml version='1.0' encoding='utf-8'?>
<svg xmlns="http://www.w3.org/2000/svg" version="1.1" id="Layer_1" x="0px" y="0px" viewBox="0 0 612 792" style="enable-background:new 0 0 612 792;"> <style type="text/css"> .st0{fill:#B7D668;} .st1{fill:#F2F3E1;} .st2{fill:#DCDECD;} .st3{fill:#B4B7AA;} .st4{fill:#C8CABC;} .st5{fill:#58595B;} .st6{fill:#414042;} .st7{fill:none;} .st8{fill:#5F5F69;} .st9{fill:#6C6169;} .st10{fill:#808285;} .st11{fill:#A3DCE8;} .st12{fill:#73A0A9;} .st13{fill:#99BEC2;} .st14{fill:#353839;} .st15{fill:#C1DDE3;} .st16{fill:#FFFFFF;} .st17{fill:#E793BF;} .st18{fill:#C97EA9;} .st19{fill:#EFBDD8;} </style> <g> <path class="st0" d="M496.25,480.42c0,49.95-19.26,95.39-50.77,129.32c-2.12,2.29-4.31,4.54-6.55,6.72c0,0.01-0.01,0.01-0.01,0.01 c-16.81,16.41-36.63,29.71-58.58,39.02h-0.01c-6.71,2.85-13.6,5.32-20.68,7.39c-16.97,4.97-34.92,7.64-53.5,7.64 c-19.69,0-38.68-2.99-56.55-8.56c-21.9-6.81-42.1-17.47-59.8-31.21c-44.87-34.76-73.75-89.17-73.75-150.33 c0-54.26,22.74-103.22,59.2-137.85c5.05-4.8,10.36-9.32,15.91-13.53c3.36-2.56,6.8-5.01,10.33-7.34h0.02 c24.26-16.04,52.42-26.65,82.74-30.13c7.19-0.83,14.49-1.25,21.9-1.25c16.05,0,31.63,1.99,46.52,5.74 c21.5,5.4,41.55,14.47,59.44,26.51c0.33,0.22,0.66,0.44,0.99,0.67C463.3,357.46,496.25,415.09,496.25,480.42z"/> <path class="st1" d="M260.37,340.71c-0.07,0.05-0.15,0.1-0.22,0.15c-0.02-0.06-0.04-0.13-0.05-0.19 C260.19,340.69,260.28,340.71,260.37,340.71z"/> <path class="st1" d="M352.7,295c-0.11,3.11-0.25,6.22-0.45,9.29c-0.84,12.93-2.63,24.99-6.91,31.68c-1.95,3.05-4.42,4.99-7.55,5.38 c-8.75,1.11-18.11-0.74-26.86-1.38c-7.82-0.57-15.65-1.02-23.49-1.34c-1.89-0.08-13.58-1.48-14.33,0.76 c0.65-1.81,1.27-3.61,1.86-5.4c7.13-2.05,14.68-2.7,22.1-2.15c7.59,0.56,19.09,6.44,26.28,2.61c4.58-2.43,7.25-9.78,10.01-14.19 C338.85,311.47,345.87,303.17,352.7,295z"/> <path class="st1" d="M451.35,601.07c-0.36,0.28-0.73,0.59-1.09,0.91c-0.18,0.15-0.36,0.32-0.54,0.5c-0.22,0.22-0.45,0.44-0.66,0.67 c-0.22,0.23-0.44,0.46-0.64,0.7c-0.14,0.16-0.27,0.32-0.4,0.48c-0.51,0.64-0.98,1.32-1.36,2.02c-0.09,0.17-0.18,0.34-0.27,0.51 c-0.01,0.03-0.02,0.05-0.03,0.07c-0.08,0.16-0.15,0.32-0.23,0.49c0,0.01-0.01,0.03-0.01,0.04c-0.07,0.17-0.14,0.34-0.2,0.52 c-0.07,0.19-0.13,0.37-0.18,0.56c-0.05,0.16-0.09,0.31-0.12,0.47c-0.02,0.06-0.04,0.12-0.04,0.18c-0.03,0.15-0.06,0.3-0.08,0.45 c-0.02,0.03-0.02,0.07-0.02,0.1c-2.12,2.29-4.31,4.54-6.55,6.72c0,0.01-0.01,0.01-0.01,0.01c-16.81,16.41-36.63,29.71-58.58,39.02 h-0.01c-6.71,2.85-13.6,5.32-20.68,7.39c-16.97,4.97-34.92,7.64-53.5,7.64c-19.69,0-38.68-2.99-56.55-8.56 c-21.9-6.81-42.1-17.47-59.8-31.21c-0.1-1.31-0.47-2.59-1.21-3.81c-1.67-2.78-3.07-2.49-4.03-5.54c-0.19-0.61,1.65-3.54,1.36-5 c-0.47-2.38-4.29-3.35-4.51-5.84c-0.25-2.81,3.26-4.28,3.09-6.34c-0.45-5.39-8.46-7.52-12.9-8.9c7.62-7.62,4.54-14.08-6-15 c4.19-6.76,8.74-18-3.83-16.57c0-4.93,5.51-7.97,1.07-12.7c-1.88-2.01-5.12,0.12-5.19-2.9c-0.03-1.21,4.74-5.91,5.2-7.18 c2.57-6.96-2.14-8.85-8.16-11.15c9.6,1.02,5.9-17.56-2.13-19.64c13.35,1.84,2.56-14.49,0.79-18.61c7.62,0.27,6.86-9.29,9.63-12.97 c2.62-3.47,7.81-1.85,10.88-4.69c3.6-3.33,1.63-7.54,6.35-10.3c4.17-2.45,8.97,1.11,4.92-6.16c-1.9-3.42-8.45-6.74-11.85-8.43 c2.14-0.39,4.68-2.51,5.39-4.64c-1.62-0.81-4.88-1.65-6.03-2.03c1.36-1.21,2.73-2.4,4.11-3.58c-1.8-1.58-4.29-2.53-6.65-2.95 c1.96-2.32,2.19-4.68,1.78-7.45c-1.19-0.61-2.28-1.38-3.27-2.29c0.13-1.94,0.69-3.76,1.66-5.46c-1.47-3.29-5.19-3.6-6.59-6.81 c0.07,0.17,0.37-4.77-0.07-6.12c-0.61-1.85-4.16-4.62-3.84-6.67c0.3-1.98,3.45,0.22,4.31-2.08c2.63-7.1-1.4-11.99,3.34-19.49 c3.27-5.16,5.08-3.27,6.12-10.76c1.21-8.69,0.31-17.45,1.71-26.12c0.18-1.15,0.4-2.3,0.68-3.45c2.47-10.22,4.96-21.16,8.25-31.15 c0.16-0.48,0.33-0.95,0.51-1.41c0.17-0.45,0.35-0.89,0.54-1.33c0.14-0.32,0.28-0.64,0.44-0.96c0.1-0.23,0.21-0.46,0.32-0.68 c0.08-0.17,0.17-0.33,0.26-0.5c0.16-0.33,0.34-0.66,0.53-0.98c0.15-0.3,0.32-0.59,0.49-0.88c0.19-0.32,0.38-0.65,0.58-0.96 c0.39-0.64,0.8-1.28,1.22-1.89c0.14,0.32,0.29,0.64,0.44,0.96c0.33,0.74,0.67,1.48,1.01,2.22c0.25,0.54,0.5,1.08,0.76,1.61 c0.38,0.8,0.76,1.59,1.15,2.38c0.29,0.59,0.58,1.17,0.88,1.74c0.25,0.49,0.5,0.98,0.76,1.47c0.58,1.14,1.19,2.28,1.81,3.4 c0.37,0.7,0.76,1.39,1.16,2.08c0.3,0.55,0.61,1.09,0.93,1.63c0.87,1.53,1.78,3.04,2.72,4.53c0.27,0.44,0.54,0.87,0.82,1.3 c0.17,0.28,0.35,0.57,0.52,0.84c0.35,0.56,0.71,1.12,1.08,1.67c0.29,0.45,0.58,0.88,0.88,1.32c0.37,0.56,0.75,1.12,1.14,1.67 c0.2,0.3,0.41,0.61,0.63,0.91c0.21,0.31,0.42,0.61,0.64,0.91c0.84,1.2,1.7,2.37,2.58,3.54c4.35,5.8,9.1,11.31,14.21,16.44 c0.27,0.27,0.57,0.55,0.9,0.82c0.14,0.12,0.29,0.24,0.44,0.37c0.2,0.16,0.4,0.32,0.62,0.48c0.27,0.21,0.54,0.41,0.82,0.62 c0.22,0.17,0.45,0.34,0.69,0.51c0.23,0.17,0.46,0.34,0.7,0.51c0.03,0.03,0.06,0.05,0.09,0.07c0.21,0.15,0.42,0.3,0.63,0.46 c0.08,0.07,0.17,0.14,0.26,0.2c0.15,0.11,0.3,0.22,0.45,0.34c0.25,0.19,0.51,0.39,0.77,0.59c0.35,0.28,0.7,0.57,1.03,0.85 c0.14,0.12,0.28,0.24,0.41,0.36c0.11,0.1,0.23,0.21,0.34,0.31c0.18,0.17,0.36,0.34,0.53,0.52c0.16,0.15,0.31,0.3,0.45,0.46 c0.02,0.02,0.04,0.04,0.06,0.06c0.02,0.03,0.04,0.05,0.07,0.08c0.27,0.31,0.52,0.62,0.75,0.93c0.07,0.1,0.14,0.21,0.21,0.31 c0.11,0.16,0.21,0.32,0.3,0.48c0.06,0.09,0.11,0.18,0.15,0.27c0.01,0.02,0.03,0.05,0.04,0.07c0.03,0.05,0.05,0.09,0.07,0.14 c0.03,0.06,0.06,0.12,0.08,0.18c0.02,0.03,0.03,0.06,0.04,0.08c0.01,0.02,0.01,0.04,0.02,0.05s0,0.01,0,0.01 c0.05,0.11,0.09,0.21,0.13,0.32c0.05,0.12,0.08,0.24,0.12,0.36c0.01,0.02,0.01,0.05,0.02,0.07c0.04,0.15,0.07,0.29,0.1,0.44 c0.06,0.29,0.08,0.58,0.08,0.86c0,0.14-0.01,0.28-0.02,0.41c0,0.03-0.01,0.06-0.01,0.09c-0.02,0.13-0.04,0.27-0.07,0.4 c0,0.04-0.01,0.07-0.02,0.1c-0.01,0.06-0.02,0.11-0.04,0.16c-0.02,0.06-0.04,0.12-0.05,0.17c-0.05,0.14-0.1,0.28-0.15,0.41 c-0.06,0.14-0.13,0.28-0.2,0.41c-0.02,0.04-0.04,0.09-0.07,0.13c-0.04,0.08-0.09,0.16-0.14,0.24c0,0.01-0.01,0.02-0.01,0.02 c-0.05,0.09-0.11,0.18-0.17,0.26c-0.12,0.17-0.24,0.33-0.38,0.49c-0.09,0.11-0.18,0.21-0.28,0.32c-0.39,0.43-0.84,0.84-1.32,1.23 c-0.19,0.15-0.38,0.3-0.58,0.45c-0.23,0.18-0.47,0.35-0.71,0.52c-0.15,0.1-0.31,0.21-0.46,0.31c-0.01,0.01-0.02,0.02-0.02,0.02 c-0.14,0.09-0.29,0.19-0.43,0.29c-0.08,0.05-0.15,0.1-0.23,0.15c-0.08,0.06-0.15,0.11-0.23,0.16c-0.59,0.39-1.14,0.76-1.62,1.11 c-4.03,2.97-7.77,6.42-11.18,10.08c-1.05,1.13-2.07,2.28-3.05,3.46c-0.13,0.16-0.26,0.31-0.39,0.47c-0.53,0.64-1.05,1.29-1.55,1.95 c-0.37,0.47-0.73,0.94-1.08,1.42c-0.44,0.59-0.88,1.19-1.29,1.79c-0.41,0.58-0.81,1.16-1.2,1.75c-0.36,0.52-0.7,1.05-1.04,1.58 l-0.01,0.01c-0.03,0.03-0.05,0.06-0.06,0.09c-0.02,0.02-0.03,0.03-0.03,0.05c-0.12,0.17-0.23,0.35-0.33,0.52 c-0.04,0.04-0.06,0.08-0.07,0.12c-0.15,0.21-0.28,0.43-0.41,0.64c-0.11,0.17-0.21,0.34-0.31,0.51c-0.04,0.05-0.06,0.09-0.08,0.13 c-0.12,0.19-0.23,0.38-0.34,0.56c-0.23,0.39-0.47,0.79-0.7,1.19c-0.71,1.22-1.4,2.46-2.05,3.72c-0.15,0.29-0.3,0.57-0.44,0.85 c-0.02,0.02-0.03,0.04-0.03,0.06c-0.14,0.26-0.28,0.52-0.4,0.79v0.01c-0.02,0.05-0.05,0.09-0.07,0.14 c-0.14,0.25-0.27,0.51-0.39,0.77c-0.29,0.59-0.58,1.18-0.85,1.78c-0.14,0.3-0.28,0.6-0.42,0.9c-0.22,0.49-0.44,0.98-0.66,1.48 c-0.11,0.26-0.22,0.51-0.33,0.77c-0.28,0.64-0.55,1.28-0.81,1.92c-0.06,0.17-0.13,0.33-0.2,0.5c-0.07,0.16-0.13,0.33-0.2,0.5 c-0.09,0.23-0.18,0.47-0.27,0.7c-0.12,0.3-0.24,0.61-0.35,0.92c-0.19,0.49-0.38,0.99-0.55,1.49c-0.03,0.05-0.05,0.1-0.06,0.16 c-0.12,0.31-0.23,0.62-0.34,0.93c-0.48,1.34-0.93,2.7-1.36,4.07c-0.12,0.37-0.23,0.75-0.34,1.12c-0.13,0.38-0.24,0.76-0.35,1.15 c-0.08,0.27-0.16,0.54-0.24,0.82c-0.2,0.68-0.39,1.37-0.57,2.06c-0.38,1.38-0.73,2.77-1.05,4.16c-0.09,0.41-0.19,0.81-0.28,1.21 c-0.07,0.3-0.14,0.59-0.2,0.89c-0.07,0.28-0.13,0.57-0.19,0.86c-0.01,0.02-0.01,0.04-0.01,0.06c-0.12,0.56-0.24,1.13-0.34,1.69 c-0.11,0.51-0.21,1.01-0.3,1.52c-0.01,0.04-0.02,0.08-0.02,0.12c-0.13,0.68-0.25,1.35-0.37,2.03c-0.12,0.7-0.24,1.41-0.35,2.11 c-0.09,0.59-0.18,1.18-0.26,1.78v0.01l-0.01,0.01c-0.07,0.52-0.14,1.03-0.21,1.55c-0.07,0.5-0.14,1-0.2,1.51 c-0.01,0.04-0.01,0.09-0.02,0.13l-0.15,1.32c-0.06,0.55-0.12,1.1-0.18,1.65c-0.04,0.34-0.07,0.67-0.1,1 c-0.03,0.35-0.07,0.7-0.1,1.05c-0.02,0.2-0.03,0.41-0.05,0.61v0.03c-0.06,0.65-0.11,1.3-0.15,1.95c-0.01,0.11-0.02,0.21-0.02,0.32 c-0.05,0.59-0.09,1.18-0.12,1.77c0.11-0.17,0.23-0.35,0.34-0.52c0,0,0,0,0-0.01c0.33-4.54,3.33-8.4,7.29-11.51 c3.74-6.06,7.41-12.18,11.16-18.23c0.94-1.52,1.89-3.04,2.84-4.55c0.67-1.06,1.34-2.12,2.01-3.17c0.06-0.09,0.13-0.19,0.19-0.29 l0.01-0.01c0.65-1.02,1.32-2.04,1.98-3.06c0.4-0.61,0.81-1.22,1.21-1.83c0.28-0.41,0.56-0.82,0.83-1.23 c0.46-0.69,0.92-1.37,1.39-2.05c0.37-0.55,0.75-1.1,1.14-1.65c0.59-0.86,1.19-1.72,1.8-2.57c0.74-1.03,1.48-2.06,2.23-3.08 c0.76-1.02,1.52-2.03,2.29-3.04c0.05-0.06,0.09-0.12,0.14-0.18c0.55-0.72,1.1-1.43,1.66-2.13c0.05-0.07,0.11-0.14,0.17-0.21 c0.91-1.16,1.84-2.3,2.79-3.44c16.08-19.28,37.74-35.52,62.68-38.37c16.71-1.9,33.71,2.38,48.78,9.84 c0.54,0.27,1.08,0.54,1.62,0.82c0.38,0.19,0.76,0.39,1.13,0.59c0.39,0.2,0.77,0.41,1.15,0.62c2.12,1.14,4.21,2.36,6.26,3.64 c0.59,0.36,1.17,0.73,1.75,1.11c0.68,0.44,1.35,0.88,2.01,1.33c0.05,0.03,0.09,0.06,0.14,0.09c0.01,0.01,0.02,0.02,0.03,0.03 c0.12,0.08,0.24,0.16,0.35,0.24c0.14,0.09,0.28,0.19,0.42,0.29c0.37,0.26,0.74,0.51,1.11,0.77c0.55,0.39,1.1,0.78,1.64,1.18 l0.57,0.42c0.18,0.13,0.36,0.27,0.53,0.4c0.91,0.67,1.8,1.37,2.68,2.07c0.48,0.37,0.95,0.75,1.41,1.14 c0.47,0.38,0.94,0.77,1.4,1.16c0.68,0.57,1.35,1.15,2.01,1.74c0.1,0.08,0.2,0.17,0.29,0.26c0.13,0.11,0.26,0.22,0.38,0.33 c0.09,0.08,0.18,0.16,0.27,0.25c0.49,0.43,0.97,0.87,1.45,1.32c0.17,0.15,0.33,0.31,0.49,0.47c0.19,0.16,0.37,0.33,0.54,0.51 c0.08,0.07,0.16,0.14,0.24,0.23c0.24,0.22,0.48,0.45,0.72,0.69c0.09,0.08,0.18,0.17,0.26,0.25c0.32,0.31,0.64,0.63,0.96,0.95 c0.32,0.32,0.63,0.64,0.95,0.96c0.13,0.13,0.26,0.27,0.39,0.4c0.23,0.23,0.46,0.47,0.68,0.71c0.08,0.08,0.16,0.16,0.23,0.24 c0.22,0.23,0.44,0.47,0.66,0.7c0.15,0.16,0.3,0.32,0.45,0.48c0.57,0.62,1.14,1.25,1.7,1.89c0.33,0.37,0.66,0.74,0.97,1.11 c0.32,0.38,0.64,0.75,0.96,1.13c0.58,0.68,1.15,1.37,1.7,2.06c0.17,0.2,0.33,0.4,0.49,0.61c0.11,0.13,0.21,0.26,0.31,0.39 c0.21,0.25,0.4,0.5,0.59,0.76c0.22,0.28,0.43,0.55,0.65,0.83c0.31,0.41,0.63,0.83,0.93,1.24c0.03,0.04,0.06,0.08,0.09,0.12 c0.62,0.84,1.23,1.69,1.83,2.54c0.27,0.37,0.53,0.74,0.78,1.12c0.07,0.1,0.14,0.2,0.21,0.31c0.15,0.22,0.3,0.44,0.44,0.66 c0.22,0.33,0.44,0.66,0.66,1c0.31,0.46,0.61,0.92,0.9,1.39c0.26,0.4,0.51,0.8,0.75,1.2c0.15,0.24,0.29,0.47,0.44,0.71 c0.03,0.05,0.06,0.09,0.08,0.14c0.23,0.37,0.46,0.74,0.67,1.11c0.23,0.38,0.45,0.75,0.66,1.13c0.19,0.32,0.38,0.65,0.56,0.98 c0.05,0.09,0.1,0.17,0.15,0.26c0.07,0.12,0.14,0.24,0.2,0.36c0.28,0.5,0.56,1,0.83,1.51c0.2,0.36,0.4,0.74,0.61,1.11 c0.19,0.32,0.38,0.64,0.58,0.95c0.18,0.29,0.38,0.58,0.58,0.87c0.12,0.19,0.26,0.38,0.4,0.56c0.21,0.27,0.43,0.54,0.65,0.79 s0.45,0.49,0.69,0.72c0.12,0.12,0.25,0.23,0.38,0.33c0.03,0.03,0.07,0.06,0.11,0.09c0.12,0.09,0.24,0.19,0.36,0.27 c0.13,0.1,0.27,0.19,0.41,0.28c0.36,0.21,0.72,0.39,1.11,0.52c0.14,0.05,0.29,0.09,0.43,0.12c0.15,0.04,0.3,0.07,0.46,0.09 c0.05,0,0.09,0.01,0.13,0.01c0.16,0.02,0.33,0.03,0.5,0.03c0.15,0,0.29-0.01,0.44-0.02c-0.12-0.56-0.24-1.12-0.37-1.67 c-0.04-0.22-0.09-0.44-0.15-0.66c-0.13-0.55-0.26-1.1-0.4-1.65c-0.02-0.1-0.05-0.21-0.08-0.31c0-0.01,0-0.03-0.01-0.05 c-0.07-0.27-0.14-0.53-0.21-0.8c-0.14-0.55-0.29-1.1-0.45-1.65c-0.09-0.34-0.19-0.69-0.3-1.03c0-0.04-0.01-0.07-0.03-0.11 c-0.11-0.4-0.23-0.8-0.36-1.2c-0.01-0.05-0.02-0.1-0.04-0.15c-0.04-0.13-0.08-0.26-0.13-0.39c-0.03-0.12-0.07-0.25-0.12-0.37 c-0.11-0.39-0.24-0.79-0.38-1.19c-0.05-0.18-0.11-0.36-0.18-0.54c-0.22-0.67-0.45-1.33-0.69-1.99c-0.04-0.12-0.08-0.24-0.13-0.36 c-0.22-0.63-0.46-1.26-0.7-1.88c-0.13-0.35-0.27-0.7-0.41-1.05c-0.13-0.35-0.27-0.7-0.42-1.04c-0.02-0.07-0.05-0.13-0.08-0.2 c-0.29-0.71-0.59-1.42-0.9-2.12c-0.13-0.3-0.26-0.6-0.4-0.9c-0.37-0.84-0.75-1.67-1.16-2.49c-0.19-0.42-0.39-0.83-0.6-1.25 c-0.42-0.87-0.86-1.73-1.32-2.58c-0.02-0.05-0.04-0.08-0.07-0.13c-0.12-0.23-0.24-0.46-0.37-0.69c-0.12-0.23-0.24-0.45-0.37-0.68 c-0.71-1.3-1.45-2.59-2.22-3.86c-0.35-0.58-0.71-1.16-1.07-1.74c-0.36-0.58-0.73-1.15-1.11-1.72c-0.27-0.42-0.55-0.84-0.83-1.25 c-0.29-0.44-0.59-0.87-0.89-1.3c-0.09-0.13-0.18-0.26-0.28-0.39c-0.23-0.34-0.47-0.67-0.71-1c-0.21-0.3-0.43-0.6-0.65-0.89 c-0.62-0.86-1.27-1.7-1.93-2.54c-0.55-0.71-1.12-1.42-1.7-2.11c-0.1-0.13-0.21-0.26-0.31-0.39h-0.01c-1.83,0.14-3.61-0.46-5.38-2.6 c-1.3-1.57-1.98-3.59-2.42-5.8c-0.38-0.38-0.77-0.74-1.16-1.11c-0.84-0.8-1.7-1.58-2.58-2.35c-0.3-0.25-0.59-0.51-0.89-0.76 c-0.02-0.03-0.04-0.04-0.06-0.05c-0.13-0.12-0.25-0.23-0.38-0.33c-0.92-0.79-1.86-1.55-2.81-2.3c-0.63-0.5-1.25-0.98-1.89-1.46 c0.23-0.38,0.47-0.76,0.71-1.12c0.22-0.35,0.46-0.68,0.69-1.01c0.48-0.68,0.99-1.33,1.51-1.95c0.27-0.32,0.54-0.63,0.82-0.94 c0.01-0.03,0.04-0.05,0.06-0.07c0.3-0.33,0.6-0.66,0.92-0.98c0.25-0.26,0.51-0.52,0.77-0.77c0.2-0.2,0.41-0.39,0.61-0.58 c0.11-0.12,0.23-0.23,0.36-0.34c0.18-0.16,0.35-0.31,0.53-0.47c0.26-0.23,0.52-0.45,0.78-0.67c0.26-0.23,0.53-0.45,0.8-0.65 c0.23-0.19,0.46-0.37,0.7-0.55c0.43-0.34,0.87-0.66,1.31-0.98c0.44-0.32,0.88-0.63,1.33-0.94c0.57-0.38,1.15-0.76,1.74-1.13 s1.19-0.74,1.79-1.1c0.61-0.36,1.22-0.71,1.84-1.05c0.24-0.13,0.48-0.27,0.72-0.4c0.44-0.24,0.88-0.48,1.32-0.71 c0.4-0.22,0.81-0.43,1.22-0.64c1.16-0.6,2.34-1.19,3.52-1.76c0.59-0.29,1.18-0.57,1.77-0.85c2.96-1.42,5.93-2.8,8.81-4.22 c0.93-0.46,1.85-0.93,2.77-1.41c0.21-0.11,0.43-0.23,0.64-0.34c1.68-0.88,3.35-1.8,5-2.76c0.74-1.44,1.07-4.03,1.69-3.6 c0.67,0.48,1.47,5.9,2.2,6.28c1.16,0.61,2.35,0.95,3.64,0.77c-0.13,0.38-0.23,0.78-0.24,1.25c-0.24,9.38,0.17,18.75,0.3,28.13 c-0.38,0.58-0.63,1.29-0.62,2.16c0.02,13.13,0.66,26.43-2.14,39.34c-0.33,1.51,0.15,2.76,1,3.63c-0.12,0.53-0.25,1.06-0.38,1.59 c-0.04,0.15-0.08,0.29-0.12,0.44c-0.13,0.48-0.26,0.96-0.41,1.44c-0.14,0.48-0.29,0.95-0.45,1.43c-0.22,0.66-0.45,1.33-0.69,1.99 c-0.17,0.48-0.35,0.97-0.54,1.46c-0.26,0.67-0.52,1.35-0.8,2.03c-0.24,0.59-0.48,1.19-0.74,1.8c-0.25,0.61-0.51,1.24-0.78,1.87 c-1.26,3-3.65,7.11-1.62,10.11c2.2,3.23,11.61,2.14,7.77,9.84c0.68-1.36,12.07,5.34,13.67,6.25c-8.14,3.89-4.84,6.17-1.96,9.07 c-0.73-0.09-1.46-0.21-2.19-0.36c-0.74-0.15-1.41-0.12-2.01,0.06c-1.97,0.58-3.13,2.65-2.99,4.51c0.11,1.45,0.99,2.76,2.87,3.14 c0.11,0.02,0.21,0.04,0.32,0.06c-0.08,0.09-0.17,0.18-0.25,0.28c-1.55,1.92-2.18,4.36-1.77,6.8c0.3,1.8,2.57,4.49,2.17,6.19 c-0.4,1.68,0.2,3.02,1.21,3.89c-3.17,5.96-5.41,10.76-5.94,13.51c-0.23,1.18-0.33,2.24-0.31,3.21c0.05,2.63,0.95,4.54,2.48,5.95 c0.04,0.04,0.1,0.08,0.14,0.12c0.29,1.68,0.68,3.51,1.24,5.31c0.26,0.88,0.57,1.77,0.92,2.62l0.01,0.02 c1.71,4.2,4.43,7.8,8.77,8.45c0.1,0.02,0.2,0.02,0.31,0.03c0.05,0.1,0.09,0.21,0.14,0.31c0.11,0.24,0.21,0.49,0.3,0.73 c0.09,0.21,0.17,0.42,0.24,0.63c0.1,0.27,0.19,0.53,0.27,0.8c0.09,0.26,0.16,0.52,0.23,0.79c0.13,0.48,0.24,0.95,0.33,1.43 c0.04,0.24,0.08,0.48,0.12,0.73c0.07,0.46,0.12,0.92,0.16,1.39c0.01,0.14,0.02,0.28,0.03,0.42c0.02,0.32,0.04,0.65,0.04,0.98 c0.01,0.29,0.02,0.59,0.02,0.89c0,1.3-0.07,2.68-0.17,4.19c-0.12,1.95-1.3,2.96-0.87,5.27c0.03,0.15,0.07,0.3,0.13,0.44 c0.05,0.14,0.12,0.28,0.2,0.4c0,0.01,0.01,0.01,0.01,0.01c0.14,0.24,0.33,0.46,0.53,0.66c0.02,0.02,0.03,0.04,0.05,0.05 c0.14,0.14,0.29,0.27,0.44,0.4c0.31,0.26,0.63,0.51,0.92,0.77c0.15,0.12,0.29,0.25,0.42,0.39c0.06,0.06,0.12,0.12,0.18,0.19 c0.1,0.12,0.18,0.23,0.27,0.35c0,0.01,0,0.01,0,0.01c0.06,0.08,0.11,0.17,0.15,0.27c0.05,0.1,0.09,0.2,0.12,0.31 c0.19,0.66,0.23,1.36,0.18,2.08c-0.02,0.27-0.05,0.55-0.09,0.83c-0.01,0.04-0.01,0.09-0.02,0.13c-0.04,0.24-0.09,0.49-0.13,0.74 c-0.15,0.76-0.34,1.53-0.51,2.27c-0.15,0.65-0.28,1.28-0.35,1.87c-0.01,0.09-0.02,0.19-0.03,0.28c-0.02,0.2-0.03,0.39-0.03,0.58 c0,0.18,0.01,0.35,0.03,0.52c0.01,0.13,0.03,0.25,0.06,0.37c0.06,0.27,0.15,0.53,0.28,0.77c0.04,0.08,0.09,0.15,0.14,0.23 c0.06,0.09,0.14,0.18,0.22,0.27c0.06,0.06,0.13,0.13,0.2,0.19c0.11,0.1,0.24,0.2,0.38,0.28c0.11,0.07,0.24,0.14,0.37,0.2 c0.12,0.06,0.25,0.11,0.38,0.16c0.16,0.05,0.32,0.1,0.5,0.15c0.33,0.09,0.7,0.15,1.11,0.2c0.02,0,0.04,0.01,0.06,0.01 c0.19,0.02,0.39,0.03,0.59,0.05c0.23,0.01,0.47,0.02,0.72,0.02c-0.11,0.09-0.21,0.18-0.31,0.27c-0.7,0.6-1.31,1.16-1.83,1.68 c-0.12,0.12-0.24,0.23-0.35,0.35c-0.6,0.63-1.07,1.19-1.41,1.69c-0.09,0.14-0.18,0.27-0.25,0.4c-0.1,0.16-0.17,0.32-0.24,0.46 c0,0.01,0,0.01-0.01,0.02c-0.03,0.06-0.05,0.11-0.07,0.17c-0.01,0.04-0.03,0.09-0.04,0.13c-0.04,0.12-0.07,0.24-0.09,0.35 c-0.01,0.02-0.01,0.03-0.01,0.05c-0.02,0.11-0.03,0.22-0.03,0.32c0,0.09,0.01,0.18,0.02,0.26c0.01,0.09,0.03,0.18,0.07,0.26 c0.02,0.07,0.05,0.14,0.08,0.21c0.14,0.27,0.36,0.5,0.65,0.71c0.08,0.06,0.17,0.12,0.27,0.18c0.02,0.02,0.05,0.03,0.08,0.05 c0.17,0.1,0.36,0.19,0.56,0.27c0.11,0.06,0.23,0.11,0.36,0.15c0.18,0.07,0.36,0.13,0.55,0.19c0.76,0.26,1.63,0.47,2.54,0.7 c0.19,0.04,0.37,0.09,0.55,0.13c0.28,0.07,0.55,0.14,0.83,0.22c0.17,0.04,0.34,0.09,0.51,0.14c0.06,0.01,0.12,0.03,0.18,0.05 c0.16,0.04,0.31,0.09,0.47,0.14c1.09,0.34,2.12,0.75,2.95,1.31c0.09,0.05,0.17,0.11,0.25,0.17c0.12,0.09,0.24,0.18,0.35,0.28 l0.01,0.01c0.11,0.1,0.21,0.2,0.31,0.31c0.06,0.07,0.11,0.13,0.17,0.2c0.08,0.1,0.15,0.2,0.23,0.3c0.04,0.07,0.09,0.14,0.13,0.21 c0.11,0.19,0.2,0.37,0.28,0.55c0.04,0.09,0.07,0.19,0.1,0.28c0.03,0.08,0.05,0.15,0.07,0.23c0.15,0.51,0.19,1.01,0.14,1.51 c0,0.13-0.02,0.25-0.04,0.37s-0.04,0.25-0.07,0.37c-0.05,0.22-0.11,0.44-0.19,0.66c-0.06,0.18-0.13,0.36-0.21,0.54 c-0.17,0.4-0.38,0.79-0.61,1.18c-0.38,0.66-0.83,1.32-1.28,1.96c-0.11,0.16-0.23,0.32-0.34,0.48c-0.11,0.16-0.23,0.32-0.34,0.48 c-0.26,0.37-0.51,0.74-0.75,1.1c-0.27,0.42-0.52,0.82-0.73,1.23c-0.08,0.15-0.16,0.3-0.22,0.45c-0.13,0.3-0.24,0.59-0.31,0.88 c-0.07,0.3-0.11,0.58-0.11,0.87c0,0.11,0.01,0.21,0.02,0.32c0.01,0.1,0.03,0.2,0.05,0.3c0.04,0.16,0.09,0.31,0.15,0.47 c0.52,1.25,2.04,2.41,5.19,3.48c0.1,0.04,0.2,0.08,0.31,0.11c-0.53,0.95-0.96,1.84-1.32,2.67c-0.28,0.67-0.51,1.31-0.69,1.92 c-0.04,0.15-0.08,0.3-0.12,0.45c-0.11,0.45-0.19,0.87-0.25,1.29c-0.02,0.2-0.04,0.39-0.06,0.58c-0.02,0.33-0.03,0.65-0.01,0.96 c-0.01,0.01,0,0.01,0,0.01c-0.01,0.05-0.01,0.09,0,0.12c-0.01,0.01-0.01,0.02,0.01,0.02c0,0.13,0.02,0.27,0.03,0.39 c0,0.13,0.02,0.26,0.05,0.38c0.03,0.14,0.05,0.27,0.08,0.41c0.03,0.13,0.06,0.26,0.1,0.39c0.04,0.13,0.08,0.26,0.13,0.39 c0.03,0.13,0.08,0.26,0.14,0.38c0.05,0.13,0.11,0.25,0.17,0.37c0.1,0.2,0.21,0.41,0.33,0.61c0.07,0.13,0.15,0.26,0.24,0.38 c0.25,0.38,0.54,0.75,0.87,1.12c0.08,0.09,0.17,0.19,0.26,0.29c0.12,0.12,0.24,0.25,0.38,0.38c0.2,0.2,0.41,0.39,0.63,0.59 s0.46,0.39,0.7,0.58c0.24,0.2,0.49,0.39,0.75,0.58C448.82,599.49,450.02,600.26,451.35,601.07z"/> <path class="st2" d="M301.81,421.19c-0.54-3.47-1.55-6.89-2.51-9.91c-5.33-16.97-15.31-23.68-33.34-21.08 c-2.42,0.35-5.15,0.4-7.47,1.19c-2.52,0.85-4.91,2.07-7.43,2.96c-2.03,0.72-4.03,0.93-6.09,1.52c-3.49,0.99-6.76,2.59-9.96,4.27 c-4.16,2.18-8.47,4.13-12.44,6.67c-4.52,2.89-8.95,5.89-13.1,9.3c-3.04,2.5-6.16,4.88-8.19,8.3c-1.41,2.38-3.48,3.74-5.23,5.8 c-1.14,1.34-2.25,2.91-3.15,4.41c-0.81,1.36-1.18,2.52-2.28,3.73c-1.12,1.23-2.81,2.54-3.59,4.01c-0.88,1.65-0.94,4.29-0.93,6.13 c0.02,2.57-0.47,5.57,0.86,7.88c0.61,1.05,1.24,2.19,1.89,3.24c0.25,0.41,0.64,0.71,0.89,1.1c0.37,0.59,0.43,1.17,0.61,1.89 c1.14,4.44-2.73,7.94-5.25,11.25c-1.7,2.23-3.61,4.27-5.36,6.45c-1.33,1.66-2.61,3.65-3.49,5.59c-1.22,2.71-2.9,5.35-3.71,8.21 c-1.55,5.49-0.93,11.38-0.96,17.02c-0.04,7.08,1.55,14.08,1.55,21.16c0,7.07-1.44,14.3-0.07,21.32c0.88,4.53,1.88,8.99,3.06,13.45 c0.5,1.87,0.56,3.88,1.09,5.7c0.31,1.09,1.38,2.18,1.79,3.22c0.21,0.54,0.02,1.09,0.14,1.64c0.18,0.8,0.45,1.15,0.46,2 c0.03,1.25-0.25,2.17,0.97,2.89c10.73,6.26,1.15-28.89,0.92-30.78c-1.39-11.24,7.89-20.37,18.66-21.14c2.08-0.15,4.2-0.15,6.2,0.45 c2.9,0.86,5.29,2.89,7.68,4.76c10.43,8.13,22.49,12.85,34.54,17.99c2.35,1,7.49,3.43,9.77,1.19c2.51-2.48,0.4-7.38-2.71-8.01 c-1.36-0.28-2.77,0.06-4.16-0.02c-1.39-0.08-2.94-0.84-3.14-2.22c-0.1-0.68,0.17-1.36,0.46-1.98c2.36-4.98,6.94-9.09,7.45-14.58 c0.24-2.64-0.51-5.25-0.89-7.87c-1.04-7.22,3.47-7.6,6.44-12.83c2.02-3.55,0.07-7.97-1.92-11.54c-4.72-8.45-12.9-15.88-5.24-24.78 c6.78-7.87,14.17-15.33,22.17-21.97c6.4-5.31,16.24-6.04,21.72-12.31C302.34,432.49,302.68,426.78,301.81,421.19z"/> <path class="st2" d="M409.21,584.78c7.06-15.01,15-30.7,15.01-47.01c0.02-17.08-7.23-34.81-20.47-45.82 c-2.21-1.84-1.94-4.12-0.43-6.1c-4.81-4.58-9.92-8.73-15.2-11.27c-7.82-3.76-12.43-11.76-20.77-15.11 c-2.72-1.09-5.59-1.73-8.45-2.36c-2.92-0.65-6.02-1.28-8.84-0.31c-1.74,0.6-3.22,1.77-4.55,3.03c-9.31,8.86-12.81,24.98-5.83,36.22 c5.11,8.23,14.53,12.47,22.64,17.76c10.63,6.94,26.31,18.77,24.13,33.41c-2.15,14.42-15.84,18.95-28.49,20.76 c-8.26,1.19-16.74-0.01-24.96,1.67c-6.19,1.26-19.89,7.63-14.43,16.15c1.48,2.3,3.97,3.73,6.43,4.93 c14.44,7.02,30.31,7.85,46.09,7.64c4.23-0.06,8.31-1.31,12.31-2.57c4.47-1.41,8.8-3.06,13.1-4.91c4.29-1.85,8.58-3.72,12.62-6.07 C409.15,584.81,409.18,584.8,409.21,584.78z"/> <path class="st3" d="M353.47,524.13c-0.72,1.72-0.16,3.81-0.47,5.61c-0.37,2.17-0.99,4.3-2.07,6.22c-2.02,3.6-4.94,6.6-7.88,9.45 c-5.54,5.36-11.17,10.75-17.92,14.56c-0.29,0.17-0.6,0.33-0.83,0.57c-0.54,0.55-0.66,1.42-0.43,2.16c0.22,0.74,0.74,1.36,1.33,1.85 c2.63,2.24,7.68,2.96,11.07,2.93c6.24-0.05,12.41,0.22,18.65-0.43c6.31-0.65,12.55,0.92,18.79,1.54 c5.72,0.57,10.74-1.93,14.02-6.71c3.79-5.53,5.28-12.12,5.89-18.7c0.61-6.58-1.51-11.08-7.38-14.25c-3.93-2.12-7.99-4.6-12.25-5.99 c-4.97-1.61-12.79-2.26-17.83-0.51c-1.17,0.41-2.27,1.14-2.9,2.21C353.32,524.49,353.39,524.31,353.47,524.13z"/> <path class="st4" d="M422.93,458.21c-2.02-2.55-4.64-4.18-5.48-7.49c-0.65-2.57,0.35-5.74-1.66-7.84c-1.5-1.57-4.25-2.43-6.06-3.59 c-2.32-1.48-4.65-3.08-6.29-5.34c-6.1-8.37,2.89-15.49,3.66-23.85c0.04-0.43,0.15-0.8,0.28-1.16c-1.76,0.24-3.51,0.67-5.24,1.06 c-4.23,0.94-7.95,4.13-12.33,4.17c-1.32,0.01-2.63-0.27-3.93-0.51c-0.19-0.04-0.37-0.07-0.56-0.1c-6.06-1.06-14.81-2.82-18.29,3.81 c-1.69,3.21-1.73,7.01-1.51,10.63c1.57,25.46,14.71,41.39,28.79,61.2c3.57,5.03,6.78,10.43,8.87,16.26 c1.4,3.92,1.19,21.66,7.81,20.5c2.07-0.36,3.87-1.88,5.41-3.21c0.39-0.33,0.75-0.69,1.1-1.05c-0.56-1.32-0.52-2.91,0.65-4.29 c2.88-3.37,0.67-8.71,0.57-12.67c-0.01-0.33,0.02-0.65,0.08-0.94c-0.15-0.97-0.06-1.96-0.05-3.16c0.02-0.72,0.01-1.51-0.1-2.42 v-0.01c-0.07-0.62-0.12-1.25-0.12-1.88c-0.05-2.72,0.5-5.46,1.57-7.96c0.44-1.06,0.99-2.07,1.62-3.03 c0.51-0.77,1.09-1.55,1.23-2.47c0.28-2.01-1.66-3.71-1.77-5.74c-0.09-1.78,1.52-3.47,3.3-3.46c0,0-1.8-2.93-2.89-4.28 c-1.1-1.36-1.89-3.36-0.88-4.78c1.02-1.42,3.3-1.46,4.38-2.76c0.08-0.09,0.15-0.19,0.21-0.29c0.36-0.6,0.41-1.3,0.26-1.98 C424.65,459.61,423.71,459.2,422.93,458.21z"/> <path class="st5" d="M402.51,510.95c-0.31-2.03-0.9-3.98-1.6-5.41c-0.32-0.64-0.62-1.28-0.92-1.92c-1.77-3.82-3.32-7.66-6.14-10.95 c-4.75-5.55-11.13-4.67-17.67-4.27c-5.93,0.36-10.99-2.62-16.68-2.31c-6.81,0.38-14.6,5.7-18.08,12.43 c-1.73,3.32-2.4,6.99-1.39,10.57c1.74,6.18,7.26,14.52,13.06,18.64c0.73,0.52,1.47,0.98,2.2,1.35c0.61,0.31,1.19,0.59,1.81,0.73 c0.51,0.12,1.04,0.27,1.56,0.41c0.13,0.04,0.25,0.07,0.38,0.1c1.17,0.29,2.03,0.89,3.05,1.44c3.02,1.61,6.19,2.87,9.21,4.51 c0.61,0.33,1.25,0.69,1.57,1.31c0.44,0.85,0.13,1.95,0.56,2.81c1.01,2.01,3,0.45,4.12-0.33c0.28-0.2,0.57-0.37,0.87-0.53 c0.15-0.09,0.29-0.16,0.44-0.22c0.1-0.05,0.19-0.1,0.29-0.13c0.02-0.01,0.04-0.02,0.06-0.02c0.11-0.05,0.22-0.09,0.33-0.13 c0.23-0.09,0.46-0.17,0.7-0.24c0.03-0.01,0.06-0.02,0.1-0.03c0.23-0.06,0.45-0.12,0.68-0.17c0.13-0.03,0.26-0.05,0.4-0.08 c0.24-0.05,0.49-0.09,0.74-0.12c0.32-0.05,0.65-0.09,0.98-0.11c0.24-0.02,0.48-0.04,0.72-0.05c0.26-0.02,0.52-0.03,0.78-0.04 c0.32-0.02,0.64-0.03,0.95-0.03c0.36-0.01,0.72-0.02,1.07-0.03c0.58-0.02,1.16-0.03,1.73-0.07c0.61-0.04,1.21-0.09,1.8-0.18 c0.2-0.03,0.39-0.06,0.59-0.1c0.28-0.05,0.55-0.11,0.82-0.18c0.48-0.12,0.94-0.27,1.4-0.46c0.07-0.03,0.14-0.06,0.2-0.09 c0.36-0.16,0.7-0.33,1-0.51c0.46-0.26,0.86-0.55,1.21-0.87c0.12-0.1,0.23-0.21,0.34-0.32c0.09-0.09,0.18-0.18,0.26-0.28 c0.14-0.15,0.26-0.31,0.38-0.47c0.18-0.23,0.33-0.47,0.46-0.71c0.12-0.21,0.23-0.42,0.32-0.64c0.1-0.21,0.19-0.43,0.27-0.66 c0.11-0.32,0.21-0.64,0.3-0.97c0.39-1.5,0.53-3.13,0.77-4.77c0.04-0.31,0.09-0.63,0.14-0.94c0.03-0.2,0.07-0.4,0.11-0.6 c0.03-0.18,0.07-0.36,0.11-0.53c0.05-0.25,0.11-0.5,0.19-0.74c0.04-0.16,0.08-0.32,0.13-0.47c0.06-0.2,0.13-0.4,0.21-0.6 c0.09-0.27,0.2-0.53,0.32-0.79c0.04-0.09,0.08-0.17,0.13-0.26c0.07-0.14,0.14-0.27,0.22-0.41c0.07-0.13,0.15-0.27,0.24-0.4 c0.14-0.22,0.28-0.44,0.42-0.66c0.18-0.28,0.37-0.56,0.55-0.84c0.18-0.28,0.36-0.57,0.51-0.87 C402.83,516.76,402.93,513.77,402.51,510.95z"/> <g> <path class="st6" d="M401.8,518.74c-0.63,1.19-1.51,2.23-2.07,3.44c-2.49,5.36,0.05,12.16-6.72,14.96 c-4.87,2.02-10.93-0.25-15.45,2.92c-1.12,0.78-3.11,2.34-4.12,0.33c-0.43-0.86-0.12-1.96-0.56-2.81 c-0.32-0.62-0.96-0.98-1.57-1.31c-3.02-1.64-6.19-2.9-9.21-4.51c-1.02-0.55-1.88-1.15-3.05-1.44c-0.13-0.03-0.25-0.06-0.38-0.1 c0.68-3.94,2.15-7.69,3.44-11.47c1.33-3.91,2.53-7.92,4.75-11.4c3.23-5.07,10.03-9.25,16.06-6.46c1.23,0.57,2.31,1.41,3.53,2 c3.78,1.86,5.08-1.48,8.51-1.79c1.24-0.11,2.43,0.48,3.46,1.17c0.59,0.4,1.11,0.86,1.58,1.35c0.3,0.64,0.6,1.28,0.92,1.92 c0.7,1.43,1.29,3.38,1.6,5.41C402.94,513.77,402.84,516.76,401.8,518.74z"/> <path class="st6" d="M403.18,507.32c0.07,0.03,0.14,0.05,0.21,0.03C403.31,507.34,403.25,507.33,403.18,507.32z"/> </g> <path class="st4" d="M445.56,605.67c-0.16,0.24-0.3,0.49-0.46,0.73c-2.1,3.28-3.96,6.82-6.17,10.06c0,0.01-0.01,0.01-0.01,0.01 c-16.81,16.41-36.63,29.71-58.58,39.02h-0.01c-6.71,2.85-13.6,5.32-20.68,7.39c0.93-4.91,1.86-9.81,2.78-14.72 c0.15-0.78,0.27-1.67-0.2-2.31c-0.61-0.83-1.89-0.79-2.82-0.34c-3.85,1.86-7.5,4.48-11.17,6.66c-0.14-2.54,0.47-5.07,0.79-7.6 c0.73-5.76-0.04-11.59-0.8-17.35c-2.29,0.44-4.57,0.88-6.85,1.31c-1.01,0.2-2.1,0.38-3.04-0.04c-4-1.81,0.34-8.09-3.26-10.38 c-1.4-0.89-3.21-0.3-4.85-0.05c-1.64,0.26-3.82-0.27-4.01-1.92c-0.1-0.89,0.45-1.7,0.71-2.55c0.79-2.54-1.16-5.29-3.63-6.3 c-2.46-1-5.25-0.7-7.88-0.3c-2.63,0.41-5.35,0.9-7.93,0.24c-1.4-2,0.87-4.42,2.25-6.43c0.24-0.35,0.46-0.73,0.47-1.14 c0.03-1.44-2.1-1.71-3.43-1.16c-1.32,0.55-2.95,1.36-4.04,0.44c-1.88-1.6,1.11-5.37-0.8-6.94c-0.51-0.42-1.22-0.49-1.88-0.54 l-9.75-0.75c1.09-2.3,0.18-5.15-1.54-7.02c-4.81-5.27-12.37-8.17-17.56-13.42c-3.01-3.05-5.72-6.42-8.95-9.23 c-1.48-1.3-5.98-3.21-7.7-5.29c-0.38-0.45-0.62-0.92-0.67-1.38c-0.04-0.3-0.05-0.63,0.07-0.91c0.49-1.15,3.01-0.65,5.25,0.11 c1.58,0.54,3.03,1.2,3.54,1.5c3.08,1.83,5.58,4.52,8.2,6.92c4.31,3.96,9.13,5.92,14.1,8.06c2.17,0.93,4.36,1.89,6.55,3.07 c0.63,0.34,1.25,0.66,1.88,0.97c0.42,0.2,0.85,0.41,1.27,0.6c0.49,0.22,0.97,0.44,1.46,0.65c0.09,0.04,0.19,0.08,0.29,0.12 c0.46,0.19,0.93,0.38,1.39,0.56c0.6,0.23,1.19,0.45,1.79,0.66c0.46,0.16,0.91,0.31,1.36,0.46c0.01,0.01,0.02,0.01,0.04,0.01 c1.06,0.35,2.13,0.66,3.2,0.94c0.54,0.14,1.07,0.28,1.61,0.41c0.54,0.13,1.08,0.25,1.62,0.36c0.54,0.12,1.09,0.23,1.63,0.33 c0.55,0.11,1.09,0.21,1.64,0.3c0.55,0.1,1.1,0.19,1.66,0.27c1.66,0.25,3.34,0.45,5.05,0.63c0.61,0.07,1.22,0.13,1.83,0.19 c0.46,0.04,0.92,0.08,1.38,0.12c0.72,0.06,1.45,0.12,2.18,0.17c7.93,0.57,15.83,1.44,23.75,2.01c7.35,0.52,15.27-0.72,22.56-3.32 c1.73-0.61,3.43-1.31,5.08-2.07c7.97-3.71,13.88-6.26,19.86-12.65c14.69-15.7,11.63-37.86,9.27-57.49 c-0.08-0.64-0.16-1.26-0.23-1.89c-0.29-2.45,5.25,2.82,5.34,0.35c0.09-2.46,0.4-5.02,1.73-7.1c0.03-0.05,0.07-0.1,0.1-0.15 c1.16-1.75,2.64-2.58,4.24-2.78c0.34-0.05,0.68-0.06,1.02-0.05h0.04c0.94,0.03,1.91,0.25,2.88,0.61c0,0.28,0.01,0.56,0.03,0.84 c0.02,0.35,0.05,0.69,0.09,1.04v0.01c0.11,0.91,0.12,1.7,0.1,2.42v0.13c-0.01,0.89-0.06,1.66-0.02,2.39 c0.01,0.21,0.04,0.43,0.07,0.64c0,0.01,0,0.01,0,0.02c0.11,0.7,0.34,1.39,0.81,2.15c-0.26,0.18-0.5,0.39-0.71,0.63 c-0.17,0.17-0.31,0.35-0.45,0.55c-0.54,0.8-0.84,1.79-0.72,2.78c0.09,0.74,0.4,1.48,1.01,2.16c0.01,0.02,0.03,0.04,0.05,0.06 c0.29,0.31,0.57,0.63,0.83,0.96c9.89,11.94,7.31,30.76,7.33,45.08c0,0.51,0.09,0.95,0.22,1.36c-1.35,2.38-0.25,6.17,3.31,6.12 c1.92-0.02,4.45-0.43,6.28,0.29c3.22,1.24,2.14,2.9,1.17,5.24c-1.45,3.54-2.47,6.85-2.17,10.72c0.29,3.79,1.62,7.36,3.21,10.78 c0.98,2.12,2.71,4.26,4.02,6.47c0.29,1.4,0.59,2.81,0.87,4.21C444.06,604.43,444.72,605.19,445.56,605.67z"/> <path class="st7" d="M161.78,563.75c-0.13,0.25-0.24,0.34-0.29,0.21C161.44,563.84,161.55,563.78,161.78,563.75z"/> <path class="st7" d="M436.78,553.29c0.73-0.63,1.21-0.89,1.08-0.47C437.76,553.16,437.35,553.29,436.78,553.29z"/> <path class="st7" d="M445.37,583.45c0.2-0.36,0.32-0.56,0.32-0.56C446.25,583.54,446.01,583.66,445.37,583.45z"/> <path class="st4" d="M233.83,363.63c-1.4,2.32-4.54,3.97-6.48,5.4c-4.03,2.97-7.77,6.42-11.18,10.08c-2.67,2.86-5.12,5.9-7.36,9.09 c-1.14-1.61-2.04-3.61-2.67-5.36c-0.26-0.69-0.47-1.35-0.63-1.93c-3.92-13.81-7.24-28.12-6.87-42.57 c0.13-4.99,0.31-11.22,1.72-16.75c0.1-0.4,0.21-0.8,0.33-1.19c2.57,4.17,5.34,8.23,8.29,12.16c4.35,5.8,9.1,11.31,14.21,16.44 c0.54,0.55,1.21,1.1,1.96,1.67c2.13,1.65,4.86,3.42,6.83,5.44c0.02,0.09,0.05,0.17,0.07,0.25 C232.74,358.75,233.44,361.18,233.83,363.63z"/> <path class="st4" d="M381.88,393.81c-2.09,1.36-4.47,1.92-7.08,0.88c-4.12-1.64-4.86-7.45-6.39-11.04 c-0.94-2.19-2.17-4.43-3.01-6.74C371.42,381.99,376.95,387.66,381.88,393.81z"/> <path class="st4" d="M390.99,381.2c0,0,0,0.01,0,0.02c-0.54,1.19-1.12,2.34-1.72,3.46c-0.18,0.33-0.36,0.66-0.56,1.01 c-2.82-4.67-5.99-9.14-9.48-13.33c-1.83,0.14-3.62-0.46-5.39-2.6c-1.3-1.57-1.98-3.59-2.42-5.8c-3.08-2.99-6.34-5.78-9.77-8.36 c1.54-2.56,3.39-4.82,5.48-6.84c7.82-7.62,18.92-12.01,28.97-16.95C399.68,348.34,397.44,367.12,390.99,381.2z"/> <path class="st8" d="M161.78,563.75c-0.13,0.25-0.24,0.34-0.29,0.21C161.44,563.84,161.55,563.78,161.78,563.75z"/> <path class="st6" d="M159.45,401.21c-0.03-0.04-0.07-0.07-0.1-0.1C159.55,401.15,159.57,401.18,159.45,401.21z"/> <path class="st6" d="M306.1,434.84c-0.06-0.07-0.13-0.12-0.21-0.17c-0.25-0.14-0.57-0.11-0.84-0.2c-2.15-0.62,1.05-4.34,1.41-5.2 c0.5-1.2,0.56-2.73-0.33-3.68c-0.58-0.62-1.45-0.87-2.2-1.26c-1.56-0.8-2.73-2.31-3.12-4.02c-0.28-1.25-0.17-2.55-0.37-3.81 c-0.42-2.58-2.02-3.09-4.27-3.49c-1.56-0.28-2.97-1.11-4.48-1.6c-2.81-0.91-5.76-0.59-8.66-0.68c-4.57-0.15-8.16-2.13-12.76-0.41 c-3.98,1.49-7.22,4.35-10.82,6.52c-2.96,1.78-6.17,3.1-9.31,4.54c-2.32,1.06,4.96,7.99,6.19,9.2c3.09,3.04,6.42,5.82,9.62,8.75 c0.88,0.8,1.78,1.62,2.85,2.13c1.08,0.51,2.28,0.7,3.46,0.79c7.31,0.56,14.48-2.08,21.77-2.35c2.1-0.08,4.22,0,6.29-0.36 s4.14-1.23,5.47-2.86C306.2,436.15,306.48,435.3,306.1,434.84z"/> <g> <path class="st6" d="M381.11,420.82c-0.22,0-0.41,0-0.6,0C380.71,420.86,380.92,420.86,381.11,420.82z"/> <path class="st6" d="M392.13,429.61c-0.35-2.34-2.35-3.82-3.9-5.41c-2.97-3.05-7.65-3.36-11.57-4.29c-2.18-0.52-4.51-0.6-6.38,0.8 c-1.63,1.22-2.71,3.07-3.26,5.01c-0.66,2.3-0.63,4.75-0.43,7.13c0.32,3.95,0.54,7.89,0.97,11.83c0.09,0.84,0.19,1.69,0.5,2.47 c0.46,1.15,1.39,2.31,2.42,3.01c4.81,3.28,8.03,3.56,13.42,1.6c4.07-1.48,3.77-2.64,5.78-6.17c1.43-2.52,2-5.02,2-7.93 c0-1.36-0.06-2.73,0.01-4.09C391.75,432.28,392.32,430.88,392.13,429.61z"/> </g> <g> <path class="st6" d="M430.04,487.27C430.05,487.31,430.19,487.39,430.04,487.27z"/> <path class="st6" d="M416.53,497.02c-0.23-0.31-0.47-0.62-0.7-0.96c-2.05-2.97,1.84-6.48,4.27-7.67c-1.29,3.01,0,9.13-1.35,12.27 c-0.02,0.04-1.22-2-1.29-2.16C417.19,497.94,416.87,497.48,416.53,497.02z"/> <path class="st6" d="M451.35,601.07c-0.36,0.28-0.73,0.59-1.09,0.91c-0.19,0.16-0.37,0.33-0.54,0.5 c-0.23,0.22-0.45,0.44-0.66,0.67c-0.23,0.23-0.44,0.46-0.64,0.7c-0.14,0.16-0.27,0.32-0.4,0.48c-0.51,0.64-0.98,1.32-1.36,2.02 c-0.1,0.17-0.19,0.34-0.27,0.51c-0.01,0.03-0.02,0.05-0.03,0.07c-0.08,0.16-0.16,0.33-0.23,0.49c0,0.01-0.01,0.03-0.01,0.04 c-0.08,0.17-0.15,0.35-0.2,0.52c-0.07,0.19-0.13,0.37-0.18,0.56c-0.05,0.15-0.09,0.31-0.12,0.47c-0.02,0.06-0.04,0.12-0.04,0.18 c-0.04,0.15-0.07,0.3-0.08,0.45c-0.02,0.03-0.02,0.07-0.02,0.1c-2.12,2.29-4.31,4.54-6.55,6.72c0,0.01-0.01,0.01-0.01,0.01 c-16.81,16.41-36.63,29.71-58.58,39.02h-0.01c-0.88-0.44-1.73-0.84-1.9-2.15c-0.37-2.86,10.29-6.43,12.19-6.98 c-3.96-2.68-9.25-3.85-6.32-9.53c2.19-4.24,11.9-6.93,16.07-8.1c-10.6-1.53,3.18-7.73,5.66-9.14c6.93-3.96,13.69-8.26,18.4-14.87 c-0.39-0.3-5.72-0.51-5.64-1.24c0.47-4.12,1.53-2.79,3.75-6.2c3.36-5.16,4.49-6.05-4.09-6.62c2.82-2.68,13.11-9.26,11.28-13.69 c-1.84-4.42-13.7-1.63-13.61-7.17v-0.13c0.04-0.91,0.39-1.56,0.93-2.06v-0.01c2.49-2.33,8.97-1.41,7.71-6.43 c-0.34-1.37-2.24-2.25-4.12-3.17c-1.94-0.94-3.87-1.94-4.09-3.58c-0.35-2.72,5.08-3.54,5.48-6.71c0.76-6.11-8.7-6.42-7.95-12.46 c0.36-2.93,4.14-3.07,4.55-5.73c0.49-3.13-2.23-3.14-3.8-5.41c-0.01-0.02-0.02-0.03-0.03-0.05c-4.68-6.84,0.6-6.86,1.02-13 c0.16-2.36-3.37-2.45-2.26-6.06c0.14-0.44,0.37-0.84,0.67-1.19c0.71-0.86,1.8-1.48,2.83-2.08c0.62-0.35,1.21-0.7,1.68-1.08v0.13 c0,0.83,0.09,1.6,0.25,2.33c0.43,1.95,1.37,3.59,2.53,5.15c1.66,2.27,3.76,4.37,5.34,7c0.63,1.07,1.16,2.07,1.59,3.02 c0.05,0.1,0.09,0.21,0.14,0.31c0.11,0.24,0.21,0.49,0.3,0.73c0.09,0.21,0.17,0.42,0.24,0.63c0.1,0.27,0.19,0.53,0.27,0.8 c0.09,0.26,0.16,0.52,0.23,0.79c0.13,0.48,0.24,0.95,0.33,1.43c0.04,0.24,0.08,0.48,0.12,0.73c0.07,0.46,0.12,0.92,0.16,1.39 c0.01,0.14,0.02,0.28,0.03,0.42c0.02,0.32,0.04,0.65,0.04,0.98c0.01,0.29,0.02,0.59,0.02,0.89c0,1.3-0.07,2.68-0.17,4.19 c-0.12,1.95-1.3,2.96-0.87,5.27c0.03,0.16,0.07,0.3,0.13,0.44c0.05,0.14,0.12,0.28,0.2,0.4c0,0.01,0.01,0.01,0.01,0.01 c0.14,0.24,0.33,0.46,0.53,0.66c0.02,0.02,0.03,0.04,0.05,0.05c0.14,0.14,0.29,0.27,0.44,0.4c0.31,0.26,0.63,0.51,0.92,0.77 c0.15,0.12,0.29,0.25,0.42,0.39c0.06,0.06,0.12,0.12,0.18,0.19c0.1,0.12,0.18,0.23,0.27,0.35c0,0.01,0,0.01,0,0.01 c0.06,0.08,0.11,0.17,0.15,0.27c0.05,0.1,0.09,0.2,0.12,0.31c0.19,0.66,0.23,1.36,0.18,2.08c-0.02,0.27-0.05,0.55-0.09,0.83 c-0.01,0.04-0.01,0.09-0.02,0.13c-0.04,0.24-0.09,0.49-0.13,0.74c-0.15,0.76-0.34,1.53-0.51,2.27c-0.15,0.65-0.28,1.28-0.35,1.87 c-0.02,0.1-0.03,0.19-0.03,0.28c-0.02,0.2-0.03,0.39-0.03,0.58c0,0.18,0.01,0.35,0.03,0.52c0.01,0.13,0.03,0.25,0.06,0.37 c0.06,0.27,0.15,0.53,0.28,0.77c0.04,0.08,0.09,0.15,0.14,0.23c0.06,0.09,0.14,0.18,0.22,0.27c0.06,0.07,0.13,0.13,0.2,0.19 c0.11,0.1,0.24,0.2,0.38,0.28c0.12,0.08,0.24,0.14,0.37,0.2c0.12,0.06,0.24,0.11,0.38,0.16c0.16,0.05,0.32,0.1,0.5,0.15 c0.33,0.09,0.7,0.15,1.11,0.2c0.02,0,0.04,0.01,0.06,0.01c0.19,0.02,0.38,0.03,0.59,0.05c0.23,0.01,0.47,0.02,0.72,0.02 c-0.11,0.09-0.21,0.18-0.31,0.27c-0.7,0.6-1.31,1.16-1.83,1.68c-0.12,0.11-0.24,0.23-0.35,0.35c-0.6,0.63-1.07,1.19-1.41,1.69 c-0.09,0.14-0.18,0.27-0.25,0.4c-0.1,0.16-0.17,0.32-0.24,0.46c0,0.01,0,0.01-0.01,0.02c-0.03,0.06-0.05,0.11-0.07,0.17 c-0.02,0.04-0.03,0.09-0.04,0.13c-0.05,0.12-0.08,0.24-0.09,0.35c-0.01,0.02-0.01,0.03-0.01,0.05c-0.02,0.11-0.03,0.22-0.03,0.32 c0,0.09,0.01,0.18,0.02,0.26c0.01,0.09,0.03,0.18,0.07,0.26c0.02,0.07,0.05,0.14,0.08,0.21c0.14,0.27,0.36,0.5,0.65,0.71 c0.08,0.06,0.17,0.12,0.27,0.18c0.02,0.02,0.05,0.03,0.08,0.05c0.17,0.1,0.36,0.19,0.56,0.27c0.11,0.06,0.23,0.11,0.36,0.15 c0.17,0.07,0.36,0.14,0.55,0.19c0.76,0.26,1.63,0.47,2.54,0.7c0.19,0.04,0.37,0.09,0.55,0.13c0.28,0.07,0.55,0.14,0.83,0.22 c0.17,0.04,0.34,0.09,0.51,0.14c0.06,0.01,0.12,0.03,0.18,0.05c0.16,0.04,0.31,0.09,0.47,0.14c1.09,0.34,2.12,0.75,2.95,1.31 c0.09,0.05,0.17,0.11,0.25,0.17c0.12,0.09,0.24,0.18,0.35,0.28l0.01,0.01c0.11,0.1,0.21,0.2,0.31,0.31 c0.06,0.07,0.11,0.13,0.17,0.2c0.08,0.1,0.15,0.2,0.23,0.3c0.04,0.07,0.09,0.14,0.13,0.21c0.11,0.19,0.2,0.37,0.28,0.55 c0.04,0.09,0.07,0.19,0.1,0.28c0.03,0.08,0.05,0.15,0.07,0.23c0.15,0.51,0.19,1.01,0.14,1.51c0,0.13-0.02,0.25-0.04,0.37 s-0.04,0.25-0.07,0.37c-0.05,0.22-0.11,0.44-0.19,0.66c-0.06,0.18-0.13,0.36-0.21,0.54c-0.17,0.4-0.38,0.79-0.61,1.18 c-0.38,0.66-0.83,1.32-1.28,1.96c-0.11,0.16-0.23,0.32-0.34,0.48c-0.11,0.16-0.23,0.32-0.34,0.48c-0.26,0.37-0.52,0.74-0.75,1.1 c-0.27,0.42-0.52,0.82-0.73,1.23c-0.08,0.15-0.15,0.3-0.22,0.45c-0.13,0.3-0.23,0.59-0.31,0.88c-0.07,0.3-0.11,0.58-0.11,0.87 c0,0.11,0.01,0.21,0.02,0.32c0.01,0.1,0.03,0.2,0.05,0.3c0.03,0.16,0.08,0.31,0.15,0.47c0.52,1.25,2.04,2.41,5.19,3.48 c0.1,0.04,0.2,0.08,0.31,0.11c-0.53,0.95-0.96,1.84-1.32,2.67c-0.28,0.67-0.51,1.31-0.69,1.92c-0.05,0.15-0.09,0.3-0.12,0.45 c-0.12,0.45-0.2,0.88-0.25,1.29c-0.03,0.2-0.05,0.39-0.06,0.58c-0.03,0.33-0.03,0.65-0.01,0.96c-0.01,0.01,0,0.01,0,0.01 c-0.01,0.05-0.01,0.09,0,0.12c-0.01,0.01-0.01,0.02,0.01,0.02c-0.01,0.14,0,0.27,0.03,0.39c0,0.13,0.02,0.26,0.05,0.38 c0.02,0.14,0.04,0.28,0.08,0.41c0.03,0.13,0.06,0.26,0.1,0.39c0.03,0.13,0.07,0.26,0.13,0.39c0.03,0.13,0.08,0.26,0.14,0.38 c0.05,0.13,0.1,0.25,0.17,0.37c0.09,0.21,0.2,0.41,0.33,0.61c0.07,0.13,0.15,0.26,0.24,0.38c0.25,0.38,0.54,0.75,0.87,1.12 c0.08,0.1,0.16,0.19,0.26,0.29c0.12,0.12,0.24,0.25,0.38,0.38c0.19,0.2,0.41,0.39,0.63,0.59s0.46,0.39,0.7,0.58 c0.24,0.2,0.49,0.39,0.75,0.58C448.82,599.49,450.02,600.26,451.35,601.07z"/> </g> <path class="st9" d="M379.61,493.6c-1.74,0.03-3.62,0.07-5.28,0.65c-4.2,1.49-3.75,5.7-1.04,8.46c3.09,3.13,3.87,8.54,0.56,11.8 c-1.32,1.3-3.07,2.06-4.8,2.73c-3.05,1.17-6.22,2.33-7.43,5.67c-0.44,1.22-0.52,2.66,0.19,3.74c0.8,1.23,2.46,1.7,3.9,1.43 c1.44-0.27,2.7-1.15,3.78-2.14c3-2.74,5.62-5.93,7.64-9.45c1.67-2.9,2.59-5.78,3.44-8.98c0.14-0.53,0.31-1.11,0.76-1.43 c1.11-0.79,1.49,0.68,1.36,1.46c-0.95,5.78-2.47,11.4-2.86,17.27c-0.13,1.96,0,4.26,1.61,5.39c1.32,0.92,3.09,0.66,4.66,0.36 c1.19-0.23,2.38-0.45,3.58-0.68c0.81-0.15,1.69-0.35,2.22-0.98c1.6-1.93-2.65-3.17-3.55-4.07c-0.96-0.95-1.64-1.97-2.06-3.26 c-0.87-2.66-1.01-5.9-0.16-8.58c1-3.15,3.23-5.75,4.76-8.68c0.56-1.08,1.04-2.25,1.06-3.47 C392.06,494.41,384.84,493.51,379.61,493.6z"/> <path d="M344.83,502.06c1.9,3.35,2.14,7.35,4.2,10.67c0.67,1.08,1.45,2.16,2.58,2.75c5.39,2.78,6.98-7.16,8.7-9.73 c1.49-2.23,4.26-3.92,6.83-3.15c3.1,0.93,4.29,5,3.25,8.07c-2.36,6.92-10.71,12.77-17.79,8.67c-4.69-2.72-6.61-8.4-8.16-13.6 c-0.45-1.51-0.8-2.94,0.05-4.24C344.61,501.69,344.72,501.87,344.83,502.06z"/> <path d="M399.07,524.04c-2.89-0.2-7.13-2.4-8.59-4c-2.12-2.33-2.85-6.35-1.58-9.28c1.29-2.98,6.07-2.83,8.32-1.1 c4.25,3.27,0.39,8.79,2.64,12.26L399.07,524.04z"/> <path class="st10" d="M368.19,497.1c-0.53-0.19-1.11-0.28-1.64-0.23c-3.48,0.35-10.19,2.44-12.03,5.76c-1.26,2.28,1,3.32,2.94,2.39 c0.88-0.42,1.64-1.04,2.47-1.56c2.68-1.68,6.8-0.81,9.18-3.12C370.59,498.89,369.59,497.61,368.19,497.1z"/> <path class="st10" d="M369.25,518.41c-3.13,0.08-6.4,2.93-8.23,4.97c-0.83,0.92-1.38,2.71,0.28,3.18c0.89,0.25,1.84-0.17,2.62-0.67 c1.61-1.04,3.27-1.88,4.69-3.2C369.87,521.52,372.58,518.32,369.25,518.41z"/> <path class="st10" d="M353.48,521.82c-0.46-0.63-1.11-1.13-1.72-1.64c-1.67-1.38-3.2-2.94-4.55-4.64 c-0.13-0.17-3.69-4.62-3.86-4.09c-0.28,0.85,0.33,1.71,0.89,2.41c2.43,3.06,4.28,6.46,6.32,9.78c0.32,0.51,0.65,1.04,1.15,1.37 c1.91,1.25,2.78-1.48,2.01-2.84C353.65,522.06,353.57,521.93,353.48,521.82z"/> <path d="M293.8,428.24c-0.85-2.18-2.77-3.51-4.34-5.12c-0.67-0.66-1.27-1.38-1.7-2.22c-0.45-0.89-0.58-1.9-0.89-2.84 c-1.25-3.77-6.36-7.3-10.37-6c-4.85,1.58-9.35,3.49-13.58,6.37c-0.68,0.47-2.2,1.26-3.01,2.2c-0.35,0.41-0.56,0.84-0.51,1.29 c0.04,0.39,0.28,0.72,0.51,1.02c2.38,3.13,4.71,6.75,8.16,8.8c5.41,3.23,11.97,2.64,18.03,1.08c2.1-0.55,4.14-1.21,6.05-1.87 c0.73-0.25,1.55-0.6,1.79-1.33C294.09,429.17,293.96,428.68,293.8,428.24z"/> <path class="st11" d="M286,428.87c-1.61,3-5.17,4.36-8.4,4.66c-3.85,0.37-7.66-0.89-10.63-3.34c-0.69-0.57-1.73-1.45-2.61-2.47 c-1.2-1.4-2.09-3.04-1.35-4.48c0.93-1.81,3.18-2.95,4.93-3.79c2.28-1.09,4.81-1.85,7.32-2.18c3.63-0.47,7.98,1,10.16,4.09 c0.21,0.29,0.4,0.59,0.56,0.9C287.06,424.32,287.1,426.8,286,428.87z"/> <path class="st12" d="M285.42,421.36c-0.85,0.77-1.82,1.46-2.74,2.09c-5.04,3.42-12.19,5.61-18.32,4.27 c-1.2-1.4-2.09-3.04-1.35-4.48c0.93-1.81,3.18-2.95,4.93-3.79c2.28-1.09,4.81-1.85,7.32-2.18 C278.89,416.8,283.24,418.27,285.42,421.36z"/> <path d="M282.58,422.83c0,2.66-2.15,4.81-4.81,4.81c-2.45,0-4.46-1.82-4.77-4.18c-0.03-0.2-0.04-0.42-0.04-0.63 c0-1.01,0.31-1.94,0.84-2.71c0.86-1.27,2.32-2.1,3.97-2.1C280.43,418.02,282.58,420.17,282.58,422.83z"/> <g> <path class="st13" d="M276.4,420.8c-1.16-1.37-4.23-0.46-5.57,0.13c-0.81,0.36-2.64,1.87-1.3,2.78c0.18,0.12,0.41,0.17,0.62,0.2 c1.35,0.19,2.48-0.41,3.75-0.7c0.76-0.17,3.13-0.69,2.75-1.94C276.6,421.09,276.51,420.94,276.4,420.8z"/> </g> <path d="M388.34,434.2c0-0.11-0.01-0.23-0.02-0.34c-0.27-3.75-3.08-7.71-6.95-8.41c-2.57-0.47-5.18,0.49-7.29,1.94 c-1.94,1.33-4.32,3.5-4.74,5.93c-0.19,1.11-0.02,2.26,0.26,3.35c0.82,3.2,3,6.4,5.9,8.05c2.83,1.61,6.75,1.22,9.05-1.11 C386.96,441.18,388.48,437.67,388.34,434.2z"/> <path class="st11" d="M384.7,440.85c-1.18,1.56-2.39,2.84-4.39,3.19c-2.08,0.36-4.65,0.08-6.41-1.19c-1.19-0.86-2-2.1-2.54-3.45 c0,0,0,0,0,0c-0.03-0.08-0.07-0.18-0.11-0.29c-0.05-0.13-0.11-0.26-0.15-0.39c-0.01-0.01-0.02-0.03-0.02-0.05 c-0.07-0.19-0.13-0.38-0.18-0.58c-0.53-1.96-0.72-4.2,0.27-6.04c0.01-0.02,0.02-0.04,0.03-0.06c0.17-0.32,0.38-0.61,0.61-0.88 c1.95-2.26,5.06-2.58,7.83-1.99c1.62,0.35,3.11,1.17,4.12,2.55c0,0.01,0.01,0.01,0.01,0.02c1.03,1.44,1.71,3.24,2.04,4.97 C386.1,438.22,385.64,439.61,384.7,440.85z"/> <g> <path class="st12" d="M383.77,431.69c-0.85,0.87-1.75,1.69-2.7,2.46c-2.65,2.16-6.21,4.69-9.71,5.25 c-0.06-0.17-0.15-0.4-0.26-0.68c-0.01-0.01-0.02-0.03-0.02-0.05c-0.07-0.19-0.13-0.38-0.18-0.58c-0.53-1.96-0.72-4.2,0.27-6.04 c0.01-0.02,0.02-0.04,0.03-0.06c0.17-0.32,0.38-0.61,0.61-0.88c1.95-2.26,5.06-2.58,7.83-1.99c1.62,0.35,3.11,1.17,4.12,2.55 C383.76,431.68,383.77,431.68,383.77,431.69z"/> </g> <circle cx="376.65" cy="434.46" r="4.81"/> <g> <path class="st14" d="M378.89,435.58c-0.3,0.02-0.6,0.08-0.83,0.13c-0.98,0.21-1.7-0.04-2.69-0.02c-0.8,0.02-1.98,1.08-1.07,1.85 c0.16,0.13,0.38,0.16,0.58,0.17c1.62,0.09,3.21-0.46,4.74-1c0.17-0.06,0.35-0.13,0.46-0.28 C380.52,435.8,379.23,435.56,378.89,435.58z"/> </g> <path class="st15" d="M385.56,437.26c-0.11-1.11-0.13-2.12-0.96-3.11c0.2,0.24,0.23,0.95,0.29,1.28c0.08,0.48,0.1,0.97,0.06,1.46 c-0.05,0.6-0.2,1.2-0.43,1.76c-0.13,0.3-0.28,0.61-0.47,0.88c-0.08,0.12-0.33,0.3-0.32,0.46c0.03,0.53,1.1-0.05,1.29-0.28 C385.58,439.05,385.64,438.1,385.56,437.26z"/> <path class="st15" d="M283.55,425.88c-0.11,0.16-0.17,0.36-0.28,0.54c-1.25,2.15-3.3,3.67-5.88,3.52 c-0.83-0.05-1.67-0.26-2.47-0.03c-0.24,0.07-0.5,0.29-0.4,0.51c0.03,0.07,0.1,0.12,0.16,0.16c3.15,2.13,7.98-0.01,9.02-3.53 C283.82,426.68,283.92,426.13,283.55,425.88z"/> <g> <path class="st14" d="M273.91,423.21c-0.31,0.07-0.61,0.16-0.91,0.25c-0.03-0.2-0.04-0.42-0.04-0.63c0-1.01,0.31-1.94,0.84-2.71 c1.04-0.11,2.05,0.02,2.6,0.68c0.12,0.13,0.2,0.29,0.26,0.47C277.04,422.52,274.67,423.04,273.91,423.21z"/> </g> <path class="st3" d="M369.2,579.56c-0.91,4.68-10.32,7.63-13.61,8.69c-4.68,1.5-9.49,2.53-14.14,4.16 c-6.32,2.23-10.36,4.45-17.35,3.32c-4.21-0.67-8.63-1.57-12.64-0.13c-0.9,0.33-1.79,0.77-2.74,0.81c-2.8,0.1-2.94-5.16-4.91-6.87 c-2.03-1.76-5.09-2.11-7.61-2.68c-0.83-0.18-1.82-0.54-1.94-1.38c-0.2-1.4,2.11-1.73,2.72-3.02c-6.66-2.28-12.88-5.8-18.28-10.32 c-0.54-0.45-1.11-1.3-0.58-1.78c0.23-0.22,0.59-0.24,0.91-0.24c2.01,0,4.02-0.03,6.03-0.07c2.17,0.93,4.36,1.89,6.55,3.07 c10.03,5.39,20.04,6.94,31.28,7.75c7.93,0.57,15.83,1.44,23.75,2.01C353.99,583.4,361.91,582.16,369.2,579.56z"/> <path d="M375.11,552.69c-0.62-0.19-1.29-0.28-2-0.26c-4.11,0.14-7.73,2.25-11.49,3.67c-3.67,1.38-7.61,2.04-11.5,2.4 c-13.7,1.3-27.31,3.44-40.97,5.16c11.14,3.92,23.14,4.58,34.95,4.87c12.95,0.31,26.82,0.14,38.19-6.91 C380.79,558.26,378.78,553.81,375.11,552.69z"/> <path class="st6" d="M295,554.13c-4.61-3.62-9.32-7.12-14.13-10.47c-2.88-2.01-5.81-3.98-9.07-5.28c-2.8-1.12-7.73-2.51-10.5-0.84 c2.05,3.35,9.03,4.77,12.24,6.94c3.29,2.22,6.28,4.84,9.4,7.28c2.48,1.94,5.58,5.29,8.94,5.3c1.07,0,5.75-0.85,3.64-2.51 C295.35,554.4,295.17,554.26,295,554.13z"/> <circle class="st16" cx="278.87" cy="420.67" r="1.11"/> <circle class="st16" cx="379.06" cy="431.88" r="1.11"/> <path class="st6" d="M251.07,660.22c-0.46,0.61-0.95,1.19-1.47,1.74c-21.9-6.81-42.1-17.47-59.8-31.21 c-0.1-1.31-0.47-2.59-1.21-3.81c-1.67-2.78-3.07-2.49-4.03-5.54c-0.19-0.61,1.65-3.54,1.36-5c-0.47-2.38-4.29-3.35-4.51-5.84 c-0.25-2.81,3.26-4.28,3.09-6.34c-0.45-5.39-8.46-7.52-12.9-8.9c7.62-7.62,4.54-14.08-6-15c4.19-6.76,8.74-18-3.83-16.57 c0-4.93,5.51-7.97,1.07-12.7c-1.88-2.01-5.12,0.12-5.19-2.9c-0.03-1.21,4.74-5.91,5.2-7.18c2.57-6.96-2.14-8.85-8.16-11.15 c9.6,1.02,5.9-17.56-2.13-19.64c13.35,1.84,2.56-14.49,0.79-18.61c7.62,0.27,6.86-9.29,9.63-12.97c2.62-3.47,7.81-1.85,10.88-4.69 c3.6-3.33,1.63-7.54,6.35-10.3c4.17-2.45,8.97,1.11,4.92-6.16c-1.9-3.42-8.45-6.74-11.85-8.43c2.14-0.39,4.68-2.51,5.39-4.64 c-1.62-0.81-4.88-1.65-6.03-2.03c1.36-1.21,2.73-2.4,4.11-3.58c-1.8-1.58-4.29-2.53-6.65-2.95c1.96-2.32,2.19-4.68,1.78-7.45 c-1.19-0.61-2.28-1.38-3.27-2.29c0.13-1.94,0.69-3.76,1.66-5.46c-1.47-3.29-5.19-3.6-6.59-6.81c0.07,0.17,0.37-4.77-0.07-6.12 c-0.61-1.85-4.16-4.62-3.84-6.67c0.3-1.98,3.45,0.22,4.31-2.08c2.63-7.1-1.4-11.99,3.34-19.49c3.27-5.16,5.08-3.27,6.12-10.76 c1.21-8.69,0.31-17.45,1.71-26.12c0.18-1.15,0.4-2.3,0.68-3.45c2.47-10.22,4.96-21.16,8.25-31.15c0.16-0.48,0.33-0.95,0.51-1.41 c0.17-0.45,0.35-0.89,0.54-1.33c0.14-0.32,0.28-0.64,0.44-0.96c0.1-0.23,0.21-0.46,0.32-0.68c0.08-0.17,0.17-0.33,0.26-0.5 c0.16-0.33,0.34-0.66,0.53-0.98c0.15-0.3,0.32-0.59,0.49-0.88c0.19-0.32,0.38-0.65,0.58-0.96c0.39-0.64,0.8-1.28,1.22-1.89 c0.09,0.2,0.18,0.4,0.27,0.6c0.39,0.86,0.78,1.72,1.18,2.58c0.62,1.34,1.26,2.67,1.91,3.99c0.53,1.07,1.08,2.14,1.64,3.21 c-0.01,0.01,0.01,0.02,0.01,0.02c0.55,1.06,1.11,2.12,1.69,3.17c0.03,0.07,0.07,0.14,0.11,0.21c-1.28,5.64-2.93,11.26-4.72,16.88 c-5.22,16.38-11.59,32.7-13.2,49.28c-0.33,3.42-1.43,10.34,1.2,13.27c4.58,5.12,6.37-0.82,9.74-3.6c6.3-5.22,1.02-0.75,9.27,0.24 c4.34,0.53,6.71-2,7.97-5.39c1.21-3.27,1.38-7.35,1.28-10.23c3.66,3.39,9.18,0.26,11.33-3.13c3.01-4.77,1.05-11.31-0.5-16.24 c2.42,1.41,4.84,2.81,7.26,4.21c-0.38-1.91-0.62-4.38-0.36-6.77v-0.01c0.27,0.21,0.54,0.41,0.82,0.62c0.19,0.15,0.39,0.3,0.6,0.45 c0.29,0.21,0.58,0.42,0.88,0.64c0.29,0.22,0.59,0.44,0.89,0.66c0.93,0.69,1.86,1.42,2.7,2.17c0.1,0.09,0.2,0.18,0.3,0.28 c0.73,0.68,1.39,1.39,1.92,2.13c0.12,0.17,0.23,0.34,0.34,0.51c0.19,0.31,0.35,0.63,0.49,0.94c0.04,0.1,0.08,0.19,0.11,0.29 c0.06,0.13,0.1,0.27,0.14,0.4c0.06,0.18,0.1,0.37,0.14,0.56c0.3,1.62-0.27,2.97-1.25,4.15c-0.09,0.11-0.18,0.21-0.28,0.32 c-0.39,0.43-0.84,0.84-1.32,1.23c-0.19,0.15-0.38,0.3-0.58,0.45c-0.23,0.18-0.47,0.35-0.71,0.52c-0.15,0.1-0.31,0.21-0.46,0.31 c-0.01,0.01-0.02,0.02-0.02,0.02c-0.14,0.09-0.29,0.19-0.43,0.29c-0.75,0.51-1.48,0.97-2.08,1.42c-4.03,2.97-7.77,6.42-11.18,10.08 c-0.55,0.59-1.09,1.19-1.63,1.8c-0.48,0.55-0.95,1.1-1.42,1.66c-0.19,0.23-0.38,0.45-0.56,0.68c-1.31,1.61-2.57,3.26-3.75,4.95 c-0.41,0.58-0.81,1.16-1.2,1.75c-0.36,0.52-0.7,1.05-1.04,1.58c-0.16,0.23-0.3,0.45-0.43,0.67c-0.27,0.42-0.53,0.84-0.79,1.27 c-0.04,0.05-0.06,0.09-0.08,0.13c-0.35,0.58-0.7,1.16-1.04,1.75c-0.71,1.22-1.4,2.46-2.05,3.72c-0.3,0.57-0.59,1.13-0.87,1.71 c-0.23,0.43-0.45,0.87-0.65,1.31c-0.23,0.46-0.45,0.92-0.66,1.38c-0.2,0.42-0.4,0.85-0.59,1.28c-0.03,0.06-0.06,0.12-0.08,0.19 c-0.26,0.56-0.5,1.12-0.74,1.68c-1.01,2.34-1.93,4.71-2.78,7.12c-0.22,0.62-0.43,1.24-0.64,1.86c-0.23,0.67-0.45,1.34-0.66,2.01 c-0.17,0.53-0.33,1.06-0.49,1.6c-0.17,0.56-0.34,1.12-0.5,1.69c-0.2,0.68-0.39,1.37-0.57,2.06c-0.38,1.38-0.73,2.77-1.05,4.16 c-0.12,0.52-0.24,1.03-0.36,1.55c-0.24,1.05-0.46,2.1-0.66,3.16c-0.11,0.51-0.21,1.01-0.3,1.52c-0.01,0.04-0.02,0.08-0.02,0.12 c-0.13,0.68-0.25,1.35-0.37,2.03c-0.12,0.7-0.24,1.41-0.35,2.11c-0.09,0.59-0.18,1.19-0.26,1.79l-0.01,0.01 c-0.09,0.63-0.17,1.25-0.26,1.88c-0.12,0.87-0.22,1.75-0.32,2.63c-0.16,1.38-0.3,2.77-0.42,4.15c0,0.07-0.01,0.13-0.01,0.19 c-0.06,0.65-0.11,1.3-0.15,1.95c-0.06,0.7-0.1,1.39-0.14,2.09c0.11-0.17,0.23-0.35,0.34-0.52c-0.05,0.55-0.05,1.1-0.01,1.67 c0.34,4.76,4.2,8.81,4.37,13.57c0.22,6.2-3.46,5.76-6.39,10.01c-4.34,6.32,0.12,9.82,2.71,15.73c1.38,3.15,4.49,13.24-3.22,12.62 c7.27,6.05,2.04,10.71,1.8,17.45c-0.18,5.08,3.48,6.48,4.63,9.76c0.32,0.91,0.45,1.97,0.24,3.3c-0.36,2.31-3.71,2.68-3.78,6.19 c-0.06,2.67,3,7.16,4.05,9.34c1.42,2.94,9.05,16.47,13.47,7.36c-3.05,7.33-15.26,26.95-9.85,33.35c2.74,3.24,5.91,1.73,7.43,7.05 c1.55,5.42-2.05,11.17,0.39,16.55c5.79-8.85,8.35,12.83,8.69,13.59c2.14,4.72,4.78,3.02,8.53,5.09c4.09,2.27,2.12,2,4.05,5.4 c4.91,8.69,8.34,5.05,17.74,3.73C254.98,641.91,257.53,651.68,251.07,660.22z"/> <path class="st6" d="M264.51,338.22c-0.72,1.53-2.3,2.71-4.14,2.49C261.71,339.81,263.1,338.98,264.51,338.22z"/> <path class="st6" d="M352.25,304.29c-6.19,8.19-13.6,16.41-14.63,18.25c3,0.53,6.51-0.97,9.13-2.19 c-1.45,4.35-2.75,10.6-1.41,15.62c-1.95,3.05-4.42,4.99-7.55,5.38c-8.75,1.11-18.11-0.74-26.86-1.38 c-7.82-0.57-15.65-1.02-23.49-1.34c-1.89-0.08-13.58-1.48-14.33,0.76c0.65-1.81,1.27-3.61,1.86-5.4c7.13-2.05,14.68-2.7,22.1-2.15 c7.59,0.56,19.09,6.44,26.28,2.61c4.58-2.43,7.25-9.78,10.01-14.19c5.49-8.79,12.51-17.09,19.34-25.26 C352.59,298.11,352.45,301.22,352.25,304.29z"/> <path class="st6" d="M371.42,363.96c-3.08-2.99-6.34-5.78-9.77-8.36c1.54-2.56,3.39-4.82,5.48-6.84c0.38,0.44,0.75,0.92,1.11,1.47 C370.65,353.92,370.51,359.34,371.42,363.96z"/> <path class="st6" d="M425.31,461.52c-3.13-0.56-6.16-1.52-9.03-2.82c-10.14-4.59-18.4-13.46-22.24-23.88 c-1.78-4.82-0.76-13.6-4.35-17.31c-4.91-5.07-8.74-0.94-11.66-9.14c-3.9-10.92-6.83-21.15-21.66-16.51 c-13.83,4.33-16.88,20.96-18.84,33.35c-10.77-5.85-11.59-19.8-16.45-29.72c-6.89-14.06-16.49-14.55-30.29-10.23 c-5.2,1.62-9.89,2.56-13.75,6.45c-4.36,4.38-6.07,8.78-11.54,12.47c-11.03,7.45-19.86,13.83-27.81,24.75 c-3.59,4.91-3.48,6.95-9.88,5.66c-6.58-1.31-10.01-4.2-17.32-1.84c-4.41,1.42-10.11,3.97-14.59,7.51 c10.7-17.34,20.81-35.09,33.84-50.72c16.08-19.28,37.74-35.52,62.68-38.37c16.71-1.9,33.71,2.38,48.78,9.84 c8.68,4.3,16.81,9.65,24.2,15.9c6.02,5.08,11.55,10.75,16.48,16.9c4.56,5.67,8.6,11.74,12.04,18.15c1.73,3.22,4.19,7.05,7.84,6.72 c-2.44-11.63-6.9-22.81-13.05-32.99c-2.82-4.67-5.99-9.14-9.48-13.33c4.25-0.29,8.7-4.58,13.59-2.89 c-0.81,1.54-1.96,7.06-1.83,11.73c0,0,0,0.01,0,0.02c0.16,5.32,1.98,9.5,7.88,5.32c-3.66,2.6-0.21,16.31,4.04,17.55 c7.93,2.29,5.65-24.86,5.43-29.9c-0.6-13.44-1.24-26.87-1.57-40.32c-0.03-1.4-0.16-3.23-0.29-5.28c-0.06-0.9,0.01-1.76,0.18-2.55 c0.56-2.86,2.23-4.86,2.8-4.56c1.24,0.65,1.21,1.4,2.59,1.13c0.01,0.01,0.01,0.01,0.01,0.01c0.01,0.02,0.03,0,0.05-0.05 c0.2-0.46,0.89-3.67,0.94-3.37c0.02,0.84,0.03,1.75,0.04,2.72c0.14,11.73-0.28,32.46-0.5,42.57c0,0.28-0.01,0.56-0.02,0.84 c-0.04,2.19-0.1,4.37-0.16,6.55c-0.05,1.8-0.1,3.61-0.16,5.41c-0.06,2.13-0.13,4.25-0.2,6.38c-0.14,4.25-0.29,8.49-0.43,12.71 c-0.11,3.23-0.49,6.08-1.1,8.79c-0.12,0.53-0.25,1.06-0.38,1.59c-0.04,0.15-0.08,0.29-0.12,0.44c-0.13,0.48-0.26,0.96-0.41,1.44 c-0.14,0.48-0.29,0.95-0.45,1.43c-0.22,0.66-0.45,1.33-0.69,1.99c-0.17,0.48-0.35,0.97-0.54,1.46c-0.26,0.67-0.52,1.35-0.8,2.03 c-0.24,0.59-0.48,1.19-0.74,1.8c-0.25,0.61-0.51,1.24-0.78,1.87c-1.26,3-3.65,7.11-1.62,10.11c2.2,3.23,11.61,2.14,7.77,9.84 c0.68-1.36,12.07,5.34,13.67,6.25c-8.14,3.89-4.84,6.17-1.96,9.07C425.35,456.37,427.05,458.51,425.31,461.52z"/> <path class="st0" d="M221.64,281.38c10.64-1.52,18.9,4.21,28.78,6.77c6.35,1.64,13.09,0.55,19.55,1.74 c5.57,1.02,10.9,2.43,16.54,2.8c3.34-31.92-2.18-64.35-14.1-89.79c-10.34-22.06-25.37-42.07-44.67-59.48 c-0.57-0.51-1.02-0.92-1.33-1.21c-1.38-1.3-2.69-2.66-4.08-4.11c-3.92-4.07-7.97-8.29-13.4-10.78c-5.31-2.44-10.43-2.63-15.22-0.59 c-7.85,3.35-14.49,12.75-19.73,27.93c-5.73,16.59-7.89,35.5-6.78,59.54c1.39,30.25,7.47,58.15,18.06,82.93 c0.69,1.62,1.29,2.51,2.02,4.1C194.08,290.32,209.77,283.07,221.64,281.38z"/> <path class="st0" d="M446.33,168.13L446.33,168.13c-0.77-1.67-1.94-4.2-4.29-5.73c-2.45-1.58-5.32-1.57-7.81-1.35 c-27.13,2.4-53.31,22.86-70.01,54.71c-6.92,13.19-10.17,27.86-12.67,40.58c-1.11,5.65-1.18,14.62-1.27,25 c-0.04,4.86-0.71,10.87-1.14,17.94c3.32-3.78,5.03-6.44,8.23-9.25c3.46-3.05,8.19-4.19,12.68-4.94c8.56-1.43,19.61-1.96,27.38,2.68 c8.17,4.88,11.3,15.49,13.3,24.17c1.02,4.4,2.02,9.76,2.4,14.39c26.42-17.39,44.6-42.96,49.9-69.56 C466.15,241.05,467.82,214.78,446.33,168.13z"/> <path class="st16" d="M371.42,363.96c0.44,2.21,1.12,4.23,2.42,5.8c1.77,2.14,3.56,2.74,5.39,2.6L371.42,363.96z"/> <path class="st16" d="M443.61,169.38c-0.78-1.69-1.64-3.46-3.2-4.46c-1.71-1.1-3.9-1.06-5.92-0.88 c-29.79,2.64-53.73,26.63-67.62,53.12c-6.52,12.43-9.69,26.09-12.38,39.76c-3.59,18.24,3.05,81.95-16.69,84.44 c-8.75,1.1-18.12-0.75-26.86-1.38c-7.82-0.57-15.65-1.02-23.49-1.34c-1.89-0.08-13.58-1.48-14.33,0.76 c42.75-119.23-41.26-187.9-48.77-195c-5.36-5.06-9.97-11.27-16.67-14.34c-17.13-7.86-26.61,13.27-30.87,25.59 c-6.45,18.67-7.52,38.83-6.62,58.42c1.29,28,6.78,56.05,17.82,81.89c5.54,12.96,12.5,25.34,20.97,36.61 c4.35,5.8,9.1,11.3,14.22,16.44c3.1,3.11,10.4,6.61,11.29,11.32c0.79,4.21-4.38,6.68-7.13,8.7c-4.03,2.97-7.77,6.42-11.18,10.08 c-18.14,19.47-26.39,47.11-27.9,73.2c13.77-20.98,25.4-43.49,41.47-62.76c16.08-19.28,37.73-35.52,62.68-38.36 c16.71-1.91,33.71,2.38,48.78,9.84c22.25,11.01,40.95,29.08,52.71,50.94c1.74,3.23,4.2,7.05,7.85,6.73 c-5.22-24.92-19.76-47.78-40.12-63.08c7.33-12.21,21.86-17.58,34.63-23.88c30.62-15.11,57.13-42.06,63.8-75.55 C465.93,226.8,456.14,196.59,443.61,169.38z"/> <g> <path class="st17" d="M254.21,341.46c2.04-1.85,3.37-4.7,4.41-7.35c5.65-14.44,9.66-29.51,11.95-44.84 c3.36-22.58,2.91-45.96-3.64-67.83c-5.48-18.29-15.18-35.11-27.42-49.7c-9.44-11.25-20.23-26.05-34.66-31.04 c-17.53-6.05-21.55,17.11-23.74,29.51c-3.32,18.74-5.82,37.85-3.78,56.77c2.3,21.32,10.35,41.76,21.42,60.14 c11.07,18.37,25.1,34.8,40.01,50.22c3.34,3.45,7.72,7.15,12.35,5.88C252.29,342.88,253.32,342.26,254.21,341.46z"/> <path class="st18" d="M228.38,263.05c4.92,20.86,11.24,41.39,18.88,61.41c-7.64-24.67-10.77-52.09-15.61-77.45 c-2.19-11.49,8.99-11.82,10.97-1.22c0.31,1.65,5.71,14.36,7.11,8.1c2.42-10.82-4.12-21.75-3.68-32.83 c0.14-3.46,0.96-6.86,1.2-10.31c1-14.46-15.46-28.55-26.48-35.56c-2.49-1.58-5.25-2.94-8.19-3.03c-5.14-0.14-9.77,3.81-11.63,8.6 c-1.86,4.79-1.4,10.19-0.08,15.16c2.62,9.83,6.36,18.59,7.65,28.81c1.3,10.27,1.46,20.65,2.67,30.93 c1.23,10.47,3,21.14,8.06,30.39c3.7-6.28,0.62-15.41-0.84-21.9c-0.84-3.74-1.83-7.56-1.87-11.42c-0.01-0.82,1.58-10.3,2.17-9.83 C224.69,247.6,226.63,255.65,228.38,263.05z"/> <path class="st18" d="M256.69,242.38c-0.2-0.03-0.42-0.03-0.65,0.01c-3.21,0.54-2.87,9.35-2.79,11.44 c0.93,25.5,1.86,51,2.79,76.49c3.83-26.33,4.91-53.07,3.19-79.62C259.08,248.5,259.25,242.77,256.69,242.38z"/> <path class="st18" d="M207.73,267.5c-2.47-12.73-9.85-24.58-13.08-37.04c-2.05-7.92-2.69-16.04-2.5-24.21 c0.17-7.16,2.74-15.01-2.58-20.99c-2.61,4.8-2.53,10.57-2.19,16.02c1.34,21.44,5.99,42.25,12.02,62.81 c1,3.42,1.41,7.02,2.78,10.32c2.27,5.5,6.24,11.52,6.37,1.78C208.59,273.23,208.28,270.34,207.73,267.5z"/> <path class="st19" d="M243.15,192.18c0-2.17-0.35-4.47-1.02-6.33c-1.92-5.35-5.65-10.02-9.8-13.82 c-5.14-4.71-11.1-8.33-16.52-12.68c-4.81-3.85-7.51-9.27-14.52-6.28c-5.91,2.53-11.04,9.14-13.58,14.89 c-1.1,2.5-1.5,6.04,1.87,7.02c1.56,0.46,3.23,0.11,4.83-0.15c14.31-2.37,33.42,1.76,42.58,13.92c1.56,2.07,2.66,4.46,4.1,6.62 c0.25,0.38,0.61,0.79,1.06,0.72c0.48-0.07,0.69-0.64,0.77-1.12C243.08,194.1,243.15,193.15,243.15,192.18z"/> <path class="st19" d="M199.99,230.93c-4.29,10.89-0.2,33.73,8.76,41.67c0.88,0.78,1.37-9.76,1.36-9.95 c-0.3-5.21-1.42-10.36-2.87-15.36C206.08,243.33,203.34,232.49,199.99,230.93z"/> </g> <g> <path class="st17" d="M351.63,334.8c7.91-5.96,7.33-19.66,8.52-28.46c1.74-12.92,3.49-25.85,5.23-38.77 c1.97-14.6,3-28.24,10.21-41.34c5.99-10.88,14.38-20.42,24.31-27.88c5.09-3.82,10.58-7.09,16.38-9.71 c1.43-0.65,17.24-5.79,17.24-5.61c0.96-0.2,1.98-0.37,2.88,0.02c0.95,0.41,1.54,1.36,2.06,2.25 c22.84,39.7,21.93,104.1-22.61,129.25c-10.08,5.69-21.01,9.67-32.07,12.97c-5.73,1.71-11.51,3.24-17.3,4.73 c-3.82,0.98-12.25,0.73-15.12,2.76C351.44,334.94,351.54,334.87,351.63,334.8z"/> <path class="st19" d="M371,260.94c5.06-11.52,18.12-18.53,25.33-28.4c4.52-6.18,7.81-13.29,13.15-18.78 c5.34-5.49,13.73-9.1,20.7-5.95c1.32,0.6,2.62,1.54,2.98,2.94c0.24,0.95,0,1.94-0.28,2.88c-3.79,12.48-15.03,20.9-24.86,29.46 c-10.29,8.96-19.69,18.95-27.99,29.78c-1.1,1.43-2.3,2.97-4.04,3.45c-6.24,1.72-7.3-7.94-6.19-11.97 C370.12,263.17,370.52,262.04,371,260.94z"/> <path class="st19" d="M424.9,244.84c-0.18,0.26-0.36,0.53-0.52,0.82c-4.14,7.18-6.91,14.99-10.39,22.48 c-3.66,7.87-8.22,13.69-13.84,20.28c-5.06,5.93,0.41,9.96,5.37,4.64c11.84-12.68,26.47-26.58,29.17-44.58 C435.86,240.66,428.79,239.29,424.9,244.84z"/> <path class="st18" d="M412.41,228.62c-1.27,1.12-2.47,2.33-3.6,3.54c-20.72,22.12-34.17,47.91-44.37,76.18 c12.79-8.8,19.03-23.98,26.07-37.2c8.07-15.14,19.02-27.83,32.66-38.29c1.39-1.07,2.86-2.17,3.66-3.73 c0.8-1.56,0.71-3.75-0.7-4.79c-0.75-0.56-1.73-0.7-2.66-0.71C419.29,223.56,415.62,225.78,412.41,228.62z"/> <g> <path class="st18" d="M404.62,278.58c-0.65-0.74-1.86-0.71-2.71-0.21c-3.93,2.31-7.34,7.56-10.04,11.16 c-5.97,7.99-9.31,15.1-12.06,24.8c-0.33,1.17-0.81,1.83,0.49,2.38c1.16,0.5,2.1-0.44,2.88-1.15 c9.17-8.39,15.91-22.42,21.24-33.49C404.95,280.96,405.44,279.51,404.62,278.58z"/> <path class="st18" d="M400.53,277.68C399.81,278.18,399.71,278.66,400.53,277.68L400.53,277.68z"/> </g> <g> <path class="st19" d="M437.28,277.9c-3.66-1.09-7.88-0.64-11.46,0.87c-5.14,2.16-9.29,6.11-13.31,9.98 c-8.83,8.49-17.66,16.98-26.5,25.48c-2.72,2.62-11.39,8.38-3.95,8.39c4.26,0.01,9.51-4.23,12.72-6.63 c13.17-9.99,23.49-23.44,37.14-32.76c2.42-1.66,5.98-2.02,7.89-3.91C439.13,278.49,438.3,278.21,437.28,277.9z"/> </g> </g> </g> </svg>